<?xml version="1.0" encoding="utf-8"?>
<svg width="512px" height="512px" viewBox="0 0 512 512" version="1.1" xmlns:xlink="http://www.w3.org/1999/xlink" xmlns="http://www.w3.org/2000/svg">
  <defs>
    <rect width="512" height="512" id="artboard_1" />
    <clipPath id="clip_1">
      <use xlink:href="#artboard_1" clip-rule="evenodd" />
    </clipPath>
  </defs>
  <g id="Artboard" clip-path="url(#clip_1)">
    <path d="M255.999 0L256.001 0Q262.285 0 268.562 0.308362Q274.839 0.616724 281.093 1.2327Q287.347 1.84869 293.564 2.7708Q299.78 3.69292 305.944 4.91895Q312.108 6.14498 318.204 7.67197Q324.3 9.19896 330.314 11.0232Q336.327 12.8475 342.244 14.9647Q348.161 17.0818 353.968 19.4868Q359.774 21.8917 365.455 24.5786Q371.136 27.2656 376.678 30.228Q382.22 33.1905 387.611 36.4213Q393.001 39.6522 398.226 43.1436Q403.452 46.635 408.499 50.3787Q413.547 54.1223 418.405 58.1091Q423.263 62.0959 427.919 66.3162Q432.576 70.5366 437.02 74.9804Q441.463 79.4241 445.684 84.0806Q449.904 88.737 453.891 93.5949Q457.878 98.4529 461.621 103.501Q465.365 108.548 468.856 113.774Q472.348 118.999 475.579 124.389Q478.809 129.78 481.772 135.322Q484.734 140.864 487.421 146.545Q490.108 152.226 492.513 158.032Q494.918 163.838 497.035 169.756Q499.152 175.673 500.977 181.686Q502.801 187.7 504.328 193.796Q505.855 199.892 507.081 206.056Q508.307 212.22 509.229 218.436Q510.151 224.653 510.767 230.907Q511.383 237.161 511.692 243.438Q512 249.715 512 255.999L512 256.001Q512 262.285 511.692 268.562Q511.383 274.839 510.767 281.093Q510.151 287.347 509.229 293.564Q508.307 299.78 507.081 305.944Q505.855 312.108 504.328 318.204Q502.801 324.3 500.977 330.314Q499.152 336.327 497.035 342.244Q494.918 348.161 492.513 353.968Q490.108 359.774 487.421 365.455Q484.734 371.136 481.772 376.678Q478.809 382.22 475.579 387.611Q472.348 393.001 468.856 398.226Q465.365 403.452 461.621 408.499Q457.878 413.547 453.891 418.405Q449.904 423.263 445.684 427.919Q441.463 432.576 437.02 437.02Q432.576 441.463 427.919 445.684Q423.263 449.904 418.405 453.891Q413.547 457.878 408.499 461.621Q403.452 465.365 398.226 468.856Q393.001 472.348 387.611 475.579Q382.22 478.809 376.678 481.772Q371.136 484.734 365.455 487.421Q359.774 490.108 353.968 492.513Q348.161 494.918 342.244 497.035Q336.327 499.152 330.314 500.977Q324.3 502.801 318.204 504.328Q312.108 505.855 305.944 507.081Q299.78 508.307 293.564 509.229Q287.347 510.151 281.093 510.767Q274.839 511.383 268.562 511.692Q262.285 512 256.001 512L255.999 512Q249.715 512 243.438 511.692Q237.161 511.383 230.907 510.767Q224.653 510.151 218.436 509.229Q212.22 508.307 206.056 507.081Q199.892 505.855 193.796 504.328Q187.7 502.801 181.686 500.977Q175.673 499.152 169.756 497.035Q163.838 494.918 158.032 492.513Q152.226 490.108 146.545 487.421Q140.864 484.734 135.322 481.772Q129.78 478.809 124.389 475.579Q118.999 472.348 113.774 468.856Q108.548 465.365 103.501 461.621Q98.4529 457.878 93.5949 453.891Q88.737 449.904 84.0806 445.684Q79.4241 441.463 74.9804 437.02Q70.5366 432.576 66.3162 427.919Q62.0959 423.263 58.1091 418.405Q54.1223 413.547 50.3787 408.499Q46.635 403.452 43.1436 398.226Q39.6522 393.001 36.4213 387.611Q33.1905 382.22 30.228 376.678Q27.2656 371.136 24.5786 365.455Q21.8917 359.774 19.4868 353.968Q17.0818 348.161 14.9647 342.244Q12.8475 336.327 11.0232 330.314Q9.19896 324.3 7.67197 318.204Q6.14498 312.108 4.91895 305.944Q3.69292 299.78 2.7708 293.564Q1.84869 287.347 1.2327 281.093Q0.616724 274.839 0.308362 268.562Q0 262.285 0 256.001L0 255.999Q0 249.715 0.308362 243.438Q0.616724 237.161 1.2327 230.907Q1.84869 224.653 2.7708 218.436Q3.69292 212.22 4.91895 206.056Q6.14498 199.892 7.67197 193.796Q9.19896 187.7 11.0232 181.686Q12.8475 175.673 14.9647 169.756Q17.0818 163.838 19.4868 158.032Q21.8917 152.226 24.5786 146.545Q27.2656 140.864 30.228 135.322Q33.1905 129.78 36.4213 124.389Q39.6522 118.999 43.1436 113.774Q46.635 108.548 50.3787 103.501Q54.1223 98.4529 58.1091 93.5949Q62.0959 88.737 66.3162 84.0806Q70.5366 79.4241 74.9804 74.9804Q79.4241 70.5366 84.0806 66.3162Q88.737 62.0959 93.5949 58.1091Q98.4529 54.1223 103.501 50.3787Q108.548 46.635 113.774 43.1436Q118.999 39.6522 124.389 36.4213Q129.78 33.1905 135.322 30.228Q140.864 27.2656 146.545 24.5786Q152.226 21.8917 158.032 19.4868Q163.838 17.0818 169.756 14.9647Q175.673 12.8475 181.686 11.0232Q187.7 9.19896 193.796 7.67197Q199.892 6.14498 206.056 4.91895Q212.22 3.69292 218.436 2.7708Q224.653 1.84869 230.907 1.2327Q237.161 0.616724 243.438 0.308362Q249.715 0 255.999 0Z" id="Rectangle-2" fill="#263238" fill-rule="evenodd" stroke="none" />
    <g id="" fill="#CDDC39" transform="translate(106.5 -103.1)">
      <path d="M101.66 442.617Q101.66 401.56 111.621 377.221Q121.582 352.882 148.096 329.275Q174.609 305.668 183.398 290.848Q192.188 276.028 192.188 259.594Q192.188 210 146.484 210Q124.805 210 111.768 223.36Q98.7305 236.72 98.1445 260.212L13.1836 260.212Q13.7695 204.2 49.3652 172.53Q84.9609 140.859 146.484 140.859Q208.594 140.859 242.871 170.918Q277.148 200.978 277.148 255.818Q277.148 280.743 266.016 302.883Q254.883 325.022 227.051 352.003L203.32 374.584Q181.055 395.989 177.832 424.728L176.66 442.617L101.66 442.617ZM93.1641 532.412Q93.1641 512.847 106.494 500.144Q119.824 487.441 140.625 487.441Q161.426 487.441 174.756 500.144Q188.086 512.847 188.086 532.412Q188.086 551.684 175.049 564.24Q162.012 576.797 140.625 576.797Q119.238 576.797 106.201 564.24Q93.1641 551.684 93.1641 532.412Z" />
    </g>
  </g>
</svg>