<?xml version="1.0" encoding="utf-8"?>
<svg viewBox="0 0 24 24" width="24" height="24" xmlns="http://www.w3.org/2000/svg">
  <path fill="none" d="M0 0h24v24H0z"/>
  <path d="M 12 22 C 6.477 22 2 17.523 2 12 C 2 6.477 6.477 2 12 2 C 17.523 2 22 6.477 22 12 C 22 17.523 17.523 22 12 22 Z" style="fill: rgb(255, 255, 255);"/>
  <path d="M 12 20 C 18.158402871356007 20 22.007404665953512 13.333333333333336 18.92820323027551 8.000000000000002 C 17.499140870642858 5.524791385931977 14.858124719265309 4 12 4 C 5.841597128643993 4.000000000000002 1.992595334046487 10.666666666666668 5.07179676972449 16 C 6.500859129357145 18.475208614068023 9.141875280734691 20 12 20 Z" style="fill: rgb(76, 175, 80);"/>
  <path d="M 11.003 16 L 6.76 11.757 L 8.174 10.343 L 11.003 13.172 L 16.659 7.515000000000001 L 18.073999999999998 8.929 L 11.003 16 Z" style="fill: rgb(255, 255, 255);"/>
</svg>