<?xml version="1.0" encoding="utf-8"?>
<svg viewBox="0 0 860 600" xmlns="http://www.w3.org/2000/svg">
  <g transform="matrix(1, 0, 0, 1, -2, -132.928131)">
    <path d="M834.0057,325.2298c-26.9236-51.4417-90.6458-71.3873-142.0882-44.463c-24.1343,12.6308-61.9349,43.6384-93.6725,78.5184 c-5.235-14.8704-11.5953-29.168-19.5299-42.3758c-20.3756-33.9167-50.739-60.8178-92.9725-73.4732 c0.0857-0.2218,0.1919-0.43,0.2619-0.6626c4.7541-15.6542,22.3635-58.7905,46.4264-70.2607 c7.508-3.5785,15.0309-3.7431,22.9989-0.5007c21.7756,8.8591,25.1378,24.5228,21.4001,35.246 c-4.1615,11.9423-18.0822,22.0369-38.8102,15.9753c-5.0242-1.4668-10.2837,1.4137-11.7525,6.4358 c-1.4681,5.0221,1.4137,10.2837,6.4351,11.7518c6.0814,1.7784,11.8716,2.5893,17.3121,2.5879 c22.4369-0.0014,38.8823-13.7982,44.7086-30.5151c6.7562-19.3837-0.4232-46.1257-32.1526-59.0341 c-12.9968-5.2861-25.8801-4.9677-38.2925,0.9484c-36.4617,17.3781-55.6073,79.2341-56.4046,81.8588 c-0.1755,0.5796-0.2871,1.162-0.3504,1.743c-12.0335-2.2628-24.9126-3.4642-38.6755-3.4642 c-11.0729,0-21.5655,0.7878-31.5138,2.2682c-0.0442-0.1823-0.0816-0.3646-0.1367-0.547 c-0.7973-2.6233-19.9429-64.4793-56.4046-81.8588c-12.4124-5.9161-25.2963-6.2345-38.2918-0.947 c-31.7301,12.907-38.9095,39.649-32.1533,59.0341c7.24,20.7702,30.8661,37.0339,62.0207,27.9271 c5.0221-1.4695,7.9033-6.7311,6.4352-11.7532c-1.4674-5.0208-6.729-7.8999-11.7525-6.4358 c-20.7293,6.0603-34.6487-4.0343-38.8102-15.9753c-3.7377-10.7218-0.3755-26.3869,21.4008-35.2446 c7.9618-3.2397,15.4786-3.0778,22.9805,0.4912c23.4078,11.1396,40.7811,52.4703,46.0611,69.0484 c-45.7644,11.7246-78.2599,39.6626-99.7029,75.3563c-8.7462,14.5602-15.5514,30.4525-21.0416,46.9856 c-29.9477-31.3586-63.6902-58.4435-85.855-70.0443c-51.4431-26.923-115.1652-6.9774-142.0889,44.4643 s-6.9876,115.1604,44.4548,142.0848c7.8951,4.1309,18.2468,8.3543,30.23,12.3818c-1.2416,0.5905-2.4342,1.1783-3.5533,1.7648 c-40.2123,21.045-55.7957,70.8525-34.75,111.0649s70.8567,55.8026,111.069,34.7576c20.1055-10.5232,52.4193-37.3156,78.115-66.753 c3.6819-4.218,7.1597-8.4877,10.4953-12.7696c17.8353,29.217,42.7452,56.189,67.4013,79.0654 c45.8842,42.5731,91.7017,71.0771,91.7017,71.0771l3.6894,2.2913l3.6805-2.2913c0,0,45.8257-28.504,91.7098-71.0771 c28.0564-26.0304,56.4747-57.3495,74.3658-91.2689c3.1321,3.9866,6.4072,7.9597,9.8367,11.8879 c25.6957,29.4374,58.0095,56.2298,78.1157,66.753c40.2117,21.0463,90.0233,5.4561,111.069-34.7562 c21.0457-40.2123,5.4616-90.0199-34.7501-111.0663c-1.1198-0.5851-2.3117-1.1743-3.554-1.7634 c11.9832-4.0289,22.3349-8.2509,30.23-12.3832C840.9932,440.3916,860.9293,376.6728,834.0057,325.2298z"/>
    <g>
      <path fill="#FFFFFF" d="M492.1375,313.9229c-4.3996,0-7.9666,3.5676-7.9666,7.9679c0,4.3976,3.5669,7.9652,7.9666,7.9652 s7.9659-3.5676,7.9659-7.9652C500.1034,317.4904,496.5372,313.9229,492.1375,313.9229z"/>
      <path fill="#FFFFFF" d="M394.4491,313.9229c-4.3996,0-7.9665,3.5676-7.9665,7.9679c0,4.3976,3.5669,7.9652,7.9665,7.9652 c4.399,0,7.9659-3.5676,7.9659-7.9652C402.4149,317.4904,398.848,313.9229,394.4491,313.9229z"/>
      <path fill="#FFFFFF" d="M81.2809,436.9002c-1.9614,3.3145-6.2392,4.4112-9.5544,2.4492 c-29.4987-17.4298-35.2562-43.5486-30.5845-64.5923c2.3362-10.5205,6.8814-19.9415,11.6586-27.4604 c4.7772-7.5216,9.4762-12.9914,13.7785-16.2487c1.2389-0.9674,2.7689-1.4886,4.3404-1.4763 c2.2042,0.015,4.271,1.0695,5.5759,2.8451c2.2804,3.1049,1.6124,7.4699-1.4919,9.749c-1.7457,1.3225-6.3549,6.1923-10.432,12.6118 c-4.0772,6.4182-7.9339,14.5371-9.8143,23.0084c-3.7615,16.9427-1.2232,34.6119,24.0643,49.5531 c0.0027,0.0014,0.0061,0.0041,0.0095,0.0054C82.1463,429.3064,83.243,433.5843,81.2809,436.9002z"/>
      <path fill="#FFFFFF" d="M156.3828,620.2708c-23.0023,12.8608-42.5907,6.5801-54.7691-4.6697 c-6.0895-5.6249-10.5912-12.292-13.7411-18.3768c-3.1492-6.0861-4.9663-11.326-5.4677-15.446 c-0.1633-1.1987,0.0837-2.4165,0.6994-3.456c0.8626-1.46,2.3634-2.426,4.0493-2.6057c2.9451-0.3143,5.5882,1.8192,5.9025,4.7636 c0.2027,1.6736,1.6566,6.6208,4.3445,11.8158c2.6886,5.1949,6.593,10.8987,11.4954,15.4283 c9.8048,9.0564,22.5315,14.2064,42.2492,3.1826c2.5859-1.4464,5.8548-0.5225,7.3012,2.0627 C159.8919,615.5562,158.9687,618.8245,156.3828,620.2708z"/>
      <path fill="#FFFFFF" d="M766.5996,579.2122c2.6879-5.1949,4.1418-10.1436,4.3452-11.8158 c0.3137-2.9444,2.9567-5.0779,5.9018-4.765c1.6859,0.1796,3.1873,1.1456,4.0493,2.6057c0.6164,1.0408,0.8627,2.2573,0.6994,3.456 c-0.5007,4.1214-2.3185,9.3599-5.4678,15.4473c-3.1498,6.0848-7.6516,12.752-13.7411,18.3768 c-12.1784,11.2498-31.7668,17.5305-54.7691,4.6697c-2.5852-1.4477-3.5091-4.7159-2.0634-7.3011 c1.4464-2.5853,4.7153-3.5105,7.3012-2.0627c19.7177,11.0239,32.4444,5.8725,42.2492-3.1839 C760.0066,590.1109,763.9109,584.4044,766.5996,579.2122z"/>
      <path fill="#FFFFFF" d="M782.7191,423.8149c-1.962-3.3159-0.8654-7.5938,2.4498-9.5558c0.0034-0.0013,0.0068-0.0027,0.0103-0.0054 c25.2868-14.9425,27.8251-32.6104,24.0643-49.5518c-1.8811-8.4713-5.7372-16.5916-9.815-23.0098 c-4.0771-6.4181-8.6863-11.2892-10.432-12.6118c-3.1043-2.2791-3.7717-6.644-1.4919-9.7476 c1.3049-1.777,3.3716-2.8315,5.5759-2.8465c1.5716-0.0109,3.1016,0.5089,4.3405,1.4763 c4.3024,3.2588,9.0013,8.7285,13.7785,16.2488c4.7772,7.5202,9.3231,16.9413,11.6587,27.4618 c4.6718,21.0437-1.0858,47.1611-30.5845,64.5923C788.9583,428.2274,784.6812,427.1308,782.7191,423.8149z"/>
    </g>
    <g>
      <path fill="#FFCB03" d="M315.7783,602.4301c8.7578,9.5599,17.9332,18.6965,27.1584,27.2549 c7.725,7.1678,15.3446,13.8527,22.6696,20.0164h126.4742c7.325-6.1637,14.9439-12.8485,22.6689-20.0164 c9.2244-8.5584,18.4013-17.6951,27.1591-27.2549H315.7783z"/>
      <path fill="#FFCB03" d="M566.7557,325.442c-26.5807-44.2466-69.0252-74.5957-137.9083-74.5957 c-68.8837,0-111.3282,30.3491-137.909,74.5957c-9.2354,15.3725-16.3331,32.5533-21.8158,50.6266 c-6.3304,20.8695-10.4633,42.9554-12.6227,65.1923h344.6942c-2.3049-23.7364-6.8943-47.2768-13.986-69.364 C581.9016,355.3734,575.2726,339.6185,566.7557,325.442z M381.3393,367.0395c-18.6081,0-33.6928-15.0868-33.6928-33.6949 c0-18.6081,15.0847-33.6922,33.6928-33.6922c18.6081,0,33.6928,15.084,33.6928,33.6922 C415.0321,351.9527,399.9474,367.0395,381.3393,367.0395z M475.8446,367.0395c-18.6088,0-33.6935-15.0868-33.6935-33.6949 c0-18.6081,15.0847-33.6922,33.6935-33.6922c18.6081,0,33.6928,15.084,33.6928,33.6922 C509.5374,351.9527,494.4527,367.0395,475.8446,367.0395z"/>
      <path fill="#FFCB03" d="M601.7139,498.2079H255.9802c2.6859,15.7589,8.9462,31.6757,17.6053,47.2754h310.5204 C592.7657,529.8835,599.0273,513.9668,601.7139,498.2079z"/>
    </g>
  </g>
</svg>