<?xml version="1.0" encoding="utf-8"?>
<svg viewBox="0 0 400 400" width="400" height="400" style="enable-background:new 0 0 511.999 511.999;" xmlns="http://www.w3.org/2000/svg">
  <ellipse style="fill: rgb(58, 58, 58);" cx="199.999" cy="54.686" rx="36.328" ry="24.219"/>
  <ellipse style="fill: rgb(255, 67, 54);" cx="199.999" cy="224.218" rx="115.039" ry="145.313"/>
  <g style="" transform="matrix(0.756843, 0, 0, 0.756843, 6.249806, 6.24857)">
    <circle style="fill:#F0EBE1;" cx="223.998" cy="152" r="16"/>
    <circle style="fill:#F0EBE1;" cx="287.997" cy="152" r="16"/>
  </g>
  <g style="" transform="matrix(0.756843, 0, 0, 0.756843, 6.249806, 6.24857)">
    <circle style="fill: rgb(57, 57, 57);" cx="191.998" cy="295.999" r="24"/>
    <path style="fill: rgb(57, 57, 57);" d="M151.999,384.001c-9.229,0-17.147,5.269-21.163,12.908c6.996,12.805,15.191,24.474,24.382,34.768 c11.717-1.587,20.781-11.523,20.781-23.676C175.999,394.746,165.254,384.001,151.999,384.001z"/>
    <path style="fill: rgb(57, 57, 57);" d="M119.999,264.002c8.837,0,16-7.164,16-16c0-8.837-7.163-16-16-16c-3.933,0-7.487,1.474-10.272,3.828 c-1.463,6.553-2.661,13.242-3.569,20.059C108.914,260.713,114.046,264.002,119.999,264.002z"/>
    <circle style="fill: rgb(53, 53, 53);" cx="255.997" cy="168" r="24"/>
    <circle style="fill: rgb(57, 57, 57);" cx="319.997" cy="295.999" r="24"/>
    <path style="fill: rgb(57, 57, 57);" d="M359.998,384.001c9.229,0,17.148,5.269,21.164,12.908c-6.996,12.805-15.191,24.474-24.382,34.768 c-11.717-1.587-20.782-11.523-20.782-23.676C335.998,394.746,346.744,384.001,359.998,384.001z"/>
    <path style="fill: rgb(57, 57, 57);" d="M391.998,264.002c-8.836,0-16-7.164-16-16c0-8.837,7.164-16,16-16c3.933,0,7.487,1.474,10.273,3.828 c1.462,6.553,2.66,13.242,3.569,20.059C403.085,260.713,397.952,264.002,391.998,264.002z"/>
  </g>
  <path style="fill: rgb(58, 58, 58);" d="M 272.657 97.071 C 256.511 63.77 252.474 54.688 200.001 54.688 C 147.527 54.688 143.49 63.77 127.345 97.071 C 124.621 102.687 132.895 107.162 140.639 112.693 C 180.535 122.791 220.131 123.503 259.362 112.693 C 267.107 107.162 275.38 102.687 272.657 97.071 Z"/>
  <g style="" transform="matrix(0.756843, 0, 0, 0.756843, 6.249806, 6.24857)">
    <path style="fill:#F0EBE1;" d="M177.455,87.958c3.293,9.324,12.093,16.045,22.544,16.045c13.255,0,24-10.745,24-24 c0-5.275-1.753-10.111-4.638-14.072C197.704,68.848,186.54,75.452,177.455,87.958z"/>
    <path style="fill:#F0EBE1;" d="M292.636,65.931c-2.885,3.961-4.638,8.797-4.638,14.072c0,13.255,10.745,24,24,24 c10.451,0,19.251-6.721,22.544-16.045C325.458,75.452,314.294,68.848,292.636,65.931z"/>
  </g>
  <path d="M 375.587 187.892 C 359.773 187.892 348.364 194.943 341.592 200.835 C 338.724 192.804 334.779 181.341 333.023 174.314 C 329.378 159.735 316.736 156.353 308.829 157.552 C 302.528 141.513 293.891 126.834 283.124 114.131 C 280.934 111.548 278.233 109.506 275.221 108.087 C 278.73 104.335 280.732 99.851 278.105 94.43 L 277.77 93.741 C 276.785 91.709 275.842 89.765 274.922 87.894 C 283.166 84.35 296.875 77.317 296.875 60.743 L 296.875 21.156 C 307.451 24.38 326.334 27.335 347.766 17.841 C 350.824 16.487 352.203 12.91 350.849 9.853 C 349.495 6.795 345.918 5.414 342.861 6.77 C 316.218 18.573 294.578 7.443 293.692 6.975 C 291.816 5.964 289.547 6.016 287.716 7.108 C 285.886 8.201 284.766 10.175 284.766 12.306 L 284.766 60.744 C 284.766 69.54 277.588 73.594 269.329 77.113 C 264.718 68.928 259.997 62.772 253.089 58.208 C 249.888 56.092 246.331 54.383 242.15 53.022 C 240.656 46.697 237.598 41.216 233.135 36.778 C 239.979 30.061 246.091 21.017 248.182 14.045 C 249.143 10.842 247.325 7.467 244.122 6.505 C 240.919 5.548 237.544 7.363 236.583 10.565 C 234.932 16.07 228.962 24.351 223.033 29.659 C 223.007 29.647 222.984 29.633 222.957 29.62 C 213.371 24.921 203.709 24.414 199.999 24.414 C 196.29 24.414 186.627 24.921 177.041 29.62 C 177.015 29.633 176.992 29.647 176.965 29.659 C 171.036 24.35 165.066 16.07 163.415 10.565 C 162.454 7.362 159.081 5.544 155.876 6.505 C 152.673 7.467 150.856 10.841 151.816 14.045 C 153.908 21.017 160.02 30.061 166.864 36.778 C 162.4 41.216 159.342 46.696 157.848 53.022 C 153.668 54.383 150.11 56.092 146.909 58.208 C 140.001 62.771 135.28 68.928 130.669 77.113 C 122.41 73.595 115.232 69.54 115.232 60.744 L 115.232 12.306 C 115.232 10.175 114.112 8.201 112.283 7.108 C 110.453 6.014 108.183 5.965 106.307 6.975 C 106.086 7.093 84.009 18.676 57.138 6.77 C 54.08 5.416 50.504 6.796 49.149 9.853 C 47.794 12.91 49.175 16.487 52.233 17.841 C 73.666 27.337 92.546 24.381 103.123 21.156 L 103.123 60.744 C 103.123 77.318 116.832 84.351 125.076 87.895 C 124.157 89.766 123.214 91.71 122.228 93.742 L 121.895 94.431 C 119.266 99.851 121.269 104.335 124.778 108.087 C 121.767 109.506 119.065 111.548 116.875 114.131 C 106.108 126.835 97.471 141.515 91.169 157.553 C 83.26 156.356 70.621 159.737 66.976 174.315 C 65.219 181.341 61.275 192.805 58.406 200.835 C 51.635 194.945 40.225 187.893 24.412 187.893 C 21.068 187.893 18.357 190.604 18.357 193.947 C 18.357 197.291 21.068 200.002 24.412 200.002 C 44.51 200.002 55.332 214.952 55.767 215.565 C 56.907 217.207 58.772 218.166 60.739 218.166 C 60.988 218.166 61.238 218.15 61.489 218.119 C 63.724 217.841 65.619 216.345 66.409 214.237 C 66.785 213.235 75.648 189.554 78.724 177.251 C 80.236 171.201 84.263 169.747 86.996 169.488 C 81.686 186.668 78.906 205.133 78.906 224.219 C 78.906 241.566 81.229 258.473 85.68 274.384 C 81.186 276.246 75.03 279.104 72.491 285.392 C 70.823 289.522 71.117 294.206 73.364 299.314 C 77.556 308.84 89.35 335.329 94.788 347.533 C 81.668 351.97 54.688 363.98 54.688 387.696 C 54.688 391.04 57.399 393.751 60.742 393.751 C 64.086 393.751 66.797 391.04 66.797 387.696 C 66.797 366.903 104.156 357.347 104.528 357.257 C 106.281 356.84 107.757 355.665 108.554 354.049 C 109.352 352.434 109.39 350.548 108.656 348.903 C 108.469 348.483 89.93 306.893 84.449 294.436 C 83.843 293.057 83.224 291.156 83.721 289.926 C 84.354 288.358 86.983 287.008 89.365 285.974 C 95.238 302.419 103.49 317.568 113.909 330.728 C 136.81 359.656 167.385 375.586 200.001 375.586 C 232.617 375.586 263.193 359.656 286.092 330.728 C 296.511 317.568 304.764 302.42 310.636 285.974 C 313.019 287.007 315.648 288.357 316.281 289.926 C 316.777 291.156 316.159 293.057 315.552 294.436 C 310.071 306.893 291.532 348.483 291.346 348.903 C 290.613 350.546 290.652 352.43 291.448 354.044 C 292.243 355.659 293.718 356.836 295.467 357.256 C 295.845 357.347 333.204 366.903 333.204 387.696 C 333.204 391.04 335.915 393.751 339.259 393.751 C 342.603 393.751 345.314 391.04 345.314 387.696 C 345.314 363.98 318.334 351.97 305.214 347.533 C 310.651 335.329 322.446 308.839 326.637 299.313 C 328.885 294.206 329.179 289.521 327.511 285.391 C 324.971 279.103 318.815 276.245 314.322 274.383 C 318.773 258.473 321.096 241.565 321.096 224.218 C 321.096 205.131 318.315 186.667 313.004 169.486 C 315.737 169.745 319.764 171.199 321.276 177.249 C 324.352 189.552 333.215 213.233 333.591 214.234 C 334.381 216.343 336.276 217.839 338.51 218.117 C 338.762 218.148 339.012 218.164 339.261 218.164 C 341.228 218.164 343.093 217.204 344.233 215.563 C 344.341 215.407 355.275 200 375.588 200 C 378.932 200 381.643 197.289 381.643 193.945 C 381.643 190.601 378.931 187.892 375.587 187.892 Z M 305.27 188.359 C 305.964 191.658 306.56 194.995 307.062 198.358 C 305.953 199.392 304.483 200.001 302.931 200.001 C 299.593 200.001 296.877 197.285 296.877 193.947 C 296.877 190.608 299.593 187.892 302.931 187.892 C 303.752 187.892 304.535 188.048 305.27 188.359 Z M 246.414 68.311 C 249.227 70.169 251.615 72.526 253.852 75.438 C 248.735 77.3 242.018 77.584 237.115 74.866 C 233.004 72.588 230.735 68.47 230.342 62.621 C 237.355 63.835 242.442 65.686 246.414 68.311 Z M 200 36.524 C 202.346 36.524 220.852 36.957 228.147 50.037 C 220.59 49.061 211.429 48.634 200 48.634 C 188.571 48.634 179.41 49.061 171.853 50.037 C 179.148 36.957 197.654 36.524 200 36.524 Z M 153.587 68.311 C 157.56 65.686 162.646 63.835 169.66 62.621 C 169.267 68.47 166.998 72.588 162.887 74.866 C 157.983 77.583 151.267 77.299 146.15 75.438 C 148.387 72.525 150.774 70.169 153.587 68.311 Z M 133.127 99.023 C 135.02 95.119 136.726 91.6 138.348 88.43 C 138.454 88.278 138.563 88.13 138.656 87.966 C 138.843 87.64 138.99 87.304 139.11 86.962 C 139.3 86.598 139.493 86.224 139.681 85.87 C 143.889 87.78 149.024 89.03 154.337 89.03 C 159.193 89.03 164.194 87.988 168.758 85.458 C 177.063 80.855 181.684 72.267 181.824 61.253 C 187.066 60.907 193.07 60.744 200.002 60.744 C 206.934 60.744 212.938 60.907 218.18 61.253 C 218.32 72.268 222.941 80.855 231.247 85.458 C 235.811 87.988 240.81 89.03 245.668 89.03 C 250.98 89.03 256.116 87.78 260.323 85.87 C 260.512 86.225 260.704 86.598 260.894 86.962 C 261.014 87.304 261.162 87.64 261.348 87.966 C 261.442 88.13 261.551 88.278 261.657 88.43 C 263.279 91.6 264.985 95.12 266.878 99.023 L 266.984 99.244 C 265.913 100.806 261.907 103.564 259.186 105.438 C 258.365 106.003 257.53 106.587 256.698 107.172 C 239.407 112.446 219.83 115.236 200.003 115.236 C 180.176 115.236 160.598 112.445 143.308 107.172 C 142.476 106.587 141.641 106.003 140.82 105.438 C 138.098 103.564 134.093 100.806 133.022 99.244 L 133.127 99.023 Z M 94.732 188.359 C 95.466 188.048 96.25 187.892 97.07 187.892 C 100.409 187.892 103.125 190.608 103.125 193.947 C 103.125 197.285 100.409 200.001 97.07 200.001 C 95.519 200.001 94.048 199.392 92.939 198.358 C 93.443 194.995 94.038 191.658 94.732 188.359 Z M 125.899 326.234 C 120.93 320.337 116.391 313.859 112.349 306.882 C 114.642 304.373 117.89 302.931 121.29 302.931 C 127.967 302.931 133.399 308.364 133.399 315.041 C 133.399 319.959 130.407 324.377 125.899 326.234 Z M 274.102 326.234 C 269.594 324.377 266.602 319.959 266.602 315.041 C 266.602 308.364 272.035 302.931 278.712 302.931 C 282.111 302.931 285.359 304.372 287.652 306.882 C 283.611 313.859 279.071 320.337 274.102 326.234 Z M 293.439 295.827 C 289.242 292.613 284.071 290.822 278.712 290.822 C 265.357 290.822 254.493 301.686 254.493 315.041 C 254.493 323.368 258.778 330.989 265.566 335.385 C 248.817 351.554 228.316 361.695 206.055 363.26 L 206.055 145.509 C 206.055 142.166 203.344 139.455 200 139.455 C 196.656 139.455 193.945 142.166 193.945 145.509 L 193.945 363.26 C 171.683 361.695 151.184 351.554 134.434 335.385 C 141.222 330.989 145.507 323.368 145.507 315.041 C 145.507 301.686 134.643 290.822 121.288 290.822 C 115.929 290.822 110.758 292.613 106.561 295.827 C 96.696 274.889 91.015 250.387 91.015 224.22 C 91.015 219.865 91.186 215.53 91.505 211.224 C 93.282 211.799 95.155 212.111 97.069 212.111 C 107.085 212.111 115.234 203.962 115.234 193.947 C 115.234 184.201 107.519 176.227 97.876 175.803 C 103.804 155.48 113.413 136.943 126.113 121.959 C 128.3 119.379 131.569 117.899 135.08 117.899 C 136.35 117.899 137.615 118.092 138.839 118.473 C 157.489 124.277 178.638 127.344 199.999 127.344 C 221.36 127.344 242.508 124.277 261.159 118.474 C 261.168 118.471 261.177 118.469 261.186 118.467 C 262.402 118.09 263.657 117.899 264.919 117.899 C 268.431 117.899 271.699 119.379 273.886 121.959 C 286.586 136.943 296.196 155.481 302.123 175.803 C 292.48 176.227 284.766 184.201 284.766 193.947 C 284.766 203.962 292.914 212.111 302.93 212.111 C 304.844 212.111 306.717 211.799 308.494 211.224 C 308.814 215.529 308.985 219.865 308.985 224.22 C 308.985 250.388 303.304 274.89 293.439 295.827 Z" style=""/>
  <path d="M 151.563 206.056 C 138.208 206.056 127.344 216.921 127.344 230.275 C 127.344 243.629 138.208 254.494 151.563 254.494 C 164.917 254.494 175.782 243.629 175.782 230.275 C 175.782 216.921 164.917 206.056 151.563 206.056 Z M 151.563 242.384 C 144.886 242.384 139.453 236.952 139.453 230.275 C 139.453 223.598 144.886 218.166 151.563 218.166 C 158.24 218.166 163.672 223.598 163.672 230.275 C 163.672 236.952 158.24 242.384 151.563 242.384 Z" style=""/>
  <path d="M 248.438 206.056 C 235.083 206.056 224.219 216.921 224.219 230.275 C 224.219 243.629 235.083 254.494 248.438 254.494 C 261.792 254.494 272.657 243.629 272.657 230.275 C 272.657 216.921 261.792 206.056 248.438 206.056 Z M 248.438 242.384 C 241.761 242.384 236.328 236.952 236.328 230.275 C 236.328 223.598 241.761 218.166 248.438 218.166 C 255.115 218.166 260.547 223.598 260.547 230.275 C 260.547 236.952 255.116 242.384 248.438 242.384 Z" style=""/>
</svg>