<?xml version="1.0" encoding="utf-8"?>
<svg viewBox="0 0 400 400" style="enable-background:new 0 0 431.5 431.5;" xmlns="http://www.w3.org/2000/svg">
  <g transform="matrix(0.853539, 0, 0, 0.853539, 15.84981, 2.074464)" style="">
    <path style="fill:#E0974F;" d="M 322.504 283.709 C 316.914 294.999 309.414 305.589 300.024 314.979 C 290.634 324.369 280.054 331.859 268.764 337.449 C 261.234 322.249 264.044 303.689 276.394 291.349 C 288.754 278.989 307.314 276.179 322.504 283.709 Z"/>
    <path style="fill:#E0974F;" d="M 155.104 291.349 C 167.454 303.699 170.274 322.259 162.744 337.459 C 151.454 331.859 140.874 324.369 131.474 314.979 C 122.194 305.699 114.644 295.149 108.954 283.739 C 124.154 276.169 142.734 278.989 155.104 291.349 Z"/>
    <path style="fill:#E0974F;" d="M 244.124 202.329 C 259.774 217.979 259.774 243.429 244.124 259.079 C 228.484 274.719 203.024 274.719 187.384 259.079 C 171.734 243.429 171.734 217.979 187.384 202.329 C 195.204 194.509 205.474 190.599 215.754 190.599 C 226.024 190.599 236.304 194.509 244.124 202.329 Z"/>
    <path style="fill:#E0974F;" d="M 300.024 146.429 C 309.414 155.819 316.914 166.399 322.504 177.689 C 307.304 185.229 288.744 182.409 276.394 170.059 C 264.044 157.709 261.224 139.149 268.764 123.949 C 280.054 129.549 290.634 137.039 300.024 146.429 Z"/>
    <path style="fill:#E0974F;" d="M 162.744 123.949 C 170.284 139.139 167.464 157.699 155.104 170.059 C 142.744 182.419 124.164 185.229 108.954 177.669 C 114.644 166.249 122.194 155.709 131.474 146.429 C 140.874 137.039 151.454 129.539 162.744 123.949 Z"/>
    <path style="fill:#AD723D;" d="M 328.304 191.549 C 337.064 216.859 337.064 244.549 328.314 269.849 C 307.584 260.009 282.534 263.989 265.794 280.739 C 249.054 297.479 245.064 322.529 254.904 343.259 C 229.604 352.019 201.914 352.019 176.604 343.259 C 186.444 322.529 182.454 297.489 165.714 280.749 C 148.954 263.979 123.874 259.999 103.134 269.879 C 98.824 257.449 96.574 244.249 96.574 230.699 C 96.574 217.149 98.824 203.949 103.134 191.519 C 110.634 195.089 118.694 196.859 126.724 196.859 C 140.914 196.859 155.014 191.359 165.714 180.659 C 182.464 163.919 186.454 138.869 176.604 118.149 C 189.254 113.769 202.504 111.579 215.754 111.579 C 229.004 111.579 242.254 113.769 254.904 118.149 C 245.054 138.869 249.044 163.919 265.794 180.669 C 276.494 191.369 290.584 196.859 304.774 196.859 C 312.784 196.859 320.824 195.099 328.304 191.549 Z M 254.734 269.679 C 276.224 248.189 276.224 213.219 254.734 191.719 C 233.244 170.229 198.264 170.229 176.774 191.719 C 155.284 213.219 155.284 248.189 176.774 269.679 C 187.524 280.429 201.634 285.799 215.754 285.799 C 229.874 285.799 243.984 280.429 254.734 269.679 Z"/>
    <path style="fill: rgb(98, 173, 66);" d="M 136.184 338.759 C 132.154 355.589 120.554 369.539 104.724 376.509 C 99.694 357.529 105.144 337.369 118.854 323.519 C 119.524 324.209 120.194 324.899 120.874 325.579 C 125.714 330.429 130.834 334.819 136.184 338.759 Z"/>
    <path style="fill: rgb(98, 173, 66);" d="M 227.004 364.349 L 215.754 401.119 L 204.504 364.349 C 208.244 364.659 211.994 364.819 215.754 364.819 C 219.504 364.819 223.264 364.659 227.004 364.349 Z"/>
    <path style="fill: rgb(98, 173, 66);" d="M 312.654 323.519 C 326.354 337.379 331.804 357.539 326.794 376.509 C 310.954 369.549 299.344 355.599 295.324 338.759 C 300.674 334.819 305.794 330.429 310.634 325.579 C 311.314 324.899 311.984 324.209 312.654 323.519 Z"/>
    <path style="fill: rgb(98, 173, 66);" d="M 369.534 164.839 C 387.494 177.849 399.954 196.789 404.794 218.369 C 385.484 221.679 365.624 218.639 348.234 209.739 C 344.754 187.609 335.754 166.189 321.214 147.739 C 338.504 148.649 355.244 154.499 369.534 164.839 Z"/>
    <path style="fill: rgb(98, 173, 66);" d="M 110.274 147.739 C 95.984 165.829 86.724 187.089 83.184 209.789 C 65.814 218.649 45.984 221.669 26.704 218.369 C 31.554 196.789 44.014 177.849 61.974 164.839 C 76.254 154.499 92.994 148.649 110.274 147.739 Z"/>
    <path style="fill: rgb(98, 173, 66);" d="M 252.664 56.849 C 253.194 60.099 253.484 63.469 253.484 66.929 C 253.484 78.969 249.964 90.599 243.724 99.509 C 225.294 95.619 206.214 95.619 187.794 99.509 C 181.554 90.599 178.034 78.969 178.034 66.929 C 178.034 63.469 178.314 60.099 178.854 56.849 L 197.254 49.749 C 201.124 48.259 203.044 43.919 201.554 40.049 C 200.064 36.189 195.734 34.259 191.864 35.749 L 185.274 38.289 C 192.144 26.159 203.244 18.249 215.754 18.249 C 228.264 18.249 239.364 26.159 246.234 38.289 L 239.654 35.749 C 235.784 34.259 231.444 36.189 229.954 40.049 C 228.464 43.919 230.394 48.259 234.254 49.749 L 252.664 56.849 Z"/>
    <path style="" d="M 420.994 222.849 C 421.794 226.909 419.154 230.849 415.094 231.649 L 409.994 232.659 C 403.194 234.009 396.324 234.669 389.474 234.669 C 375.904 234.669 362.424 232.059 349.814 226.949 C 350.644 256.919 341.514 287.119 322.434 312.099 C 341.814 330.999 348.764 359.629 339.674 385.619 L 338.574 388.759 C 337.494 391.849 334.594 393.779 331.494 393.779 C 330.674 393.779 329.844 393.649 329.024 393.359 L 325.874 392.259 C 304.814 384.889 288.784 368.159 282.134 347.319 C 269.924 354.269 256.854 359.149 243.424 361.949 L 222.924 428.939 C 221.964 432.099 219.054 434.249 215.754 434.249 C 212.464 434.249 209.554 432.099 208.584 428.949 L 188.084 361.949 C 174.654 359.149 161.584 354.269 149.374 347.319 C 142.714 368.169 126.684 384.889 105.634 392.259 L 102.494 393.359 C 101.694 393.639 100.854 393.779 100.014 393.779 C 98.904 393.779 97.794 393.529 96.764 393.039 C 94.974 392.179 93.594 390.639 92.944 388.759 L 91.844 385.619 C 82.734 359.619 89.684 330.999 109.064 312.099 C 91.234 288.829 81.574 260.509 81.574 230.699 C 81.574 229.459 81.594 228.219 81.624 226.979 C 69.034 232.069 55.574 234.669 42.024 234.669 C 35.174 234.669 28.304 234.009 21.504 232.659 L 16.404 231.649 C 12.344 230.849 9.704 226.909 10.504 222.839 L 11.514 217.729 C 16.714 191.479 31.514 168.379 53.174 152.689 C 73.744 137.799 98.704 130.859 123.824 132.959 C 138.234 119.399 154.934 109.629 172.644 103.659 C 166.404 93.009 163.034 80.319 163.034 66.929 C 163.034 31.819 186.684 3.249 215.754 3.249 C 244.834 3.249 268.484 31.819 268.484 66.929 C 268.484 80.319 265.114 93.009 258.874 103.659 C 276.574 109.639 293.274 119.399 307.674 132.959 C 332.804 130.859 357.764 137.799 378.324 152.689 C 399.994 168.379 414.784 191.479 419.984 217.729 L 420.994 222.849 Z M 404.794 218.369 C 399.954 196.789 387.494 177.849 369.534 164.839 C 355.244 154.499 338.504 148.649 321.214 147.739 C 335.754 166.189 344.754 187.609 348.234 209.739 C 365.624 218.639 385.484 221.679 404.794 218.369 Z M 328.314 269.849 C 337.064 244.549 337.064 216.859 328.304 191.549 C 320.824 195.099 312.784 196.859 304.774 196.859 C 290.584 196.859 276.494 191.369 265.794 180.669 C 249.044 163.919 245.054 138.869 254.904 118.149 C 242.254 113.769 229.004 111.579 215.754 111.579 C 202.504 111.579 189.254 113.769 176.604 118.149 C 186.454 138.869 182.464 163.919 165.714 180.659 C 155.014 191.359 140.914 196.859 126.724 196.859 C 118.694 196.859 110.634 195.089 103.134 191.519 C 98.824 203.949 96.574 217.149 96.574 230.699 C 96.574 244.249 98.824 257.449 103.134 269.879 C 123.874 259.999 148.954 263.979 165.714 280.749 C 182.454 297.489 186.444 322.529 176.604 343.259 C 201.914 352.019 229.604 352.019 254.904 343.259 C 245.064 322.529 249.054 297.479 265.794 280.739 C 282.534 263.989 307.584 260.009 328.314 269.849 Z M 326.794 376.509 C 331.804 357.539 326.354 337.379 312.654 323.519 C 311.984 324.209 311.314 324.899 310.634 325.579 C 305.794 330.429 300.674 334.819 295.324 338.759 C 299.344 355.599 310.954 369.549 326.794 376.509 Z M 322.504 177.689 C 316.914 166.399 309.414 155.819 300.024 146.429 C 290.634 137.039 280.054 129.549 268.764 123.949 C 261.224 139.149 264.044 157.709 276.394 170.059 C 288.744 182.409 307.304 185.229 322.504 177.689 Z M 300.024 314.979 C 309.414 305.589 316.914 294.999 322.504 283.709 C 307.314 276.179 288.754 278.989 276.394 291.349 C 264.044 303.689 261.234 322.249 268.764 337.449 C 280.054 331.859 290.634 324.369 300.024 314.979 Z M 253.484 66.929 C 253.484 63.469 253.194 60.099 252.664 56.849 L 234.254 49.749 C 230.394 48.259 228.464 43.919 229.954 40.049 C 231.444 36.189 235.784 34.259 239.654 35.749 L 246.234 38.289 C 239.364 26.159 228.264 18.249 215.754 18.249 C 203.244 18.249 192.144 26.159 185.274 38.289 L 191.864 35.749 C 195.734 34.259 200.064 36.189 201.554 40.049 C 203.044 43.919 201.124 48.259 197.254 49.749 L 178.854 56.849 C 178.314 60.099 178.034 63.469 178.034 66.929 C 178.034 78.969 181.554 90.599 187.794 99.509 C 206.214 95.619 225.294 95.619 243.724 99.509 C 249.964 90.599 253.484 78.969 253.484 66.929 Z M 215.754 401.119 L 227.004 364.349 C 223.264 364.659 219.504 364.819 215.754 364.819 C 211.994 364.819 208.244 364.659 204.504 364.349 L 215.754 401.119 Z M 155.104 170.059 C 167.464 157.699 170.284 139.139 162.744 123.949 C 151.454 129.539 140.874 137.039 131.474 146.429 C 122.194 155.709 114.644 166.249 108.954 177.669 C 124.164 185.229 142.744 182.419 155.104 170.059 Z M 162.744 337.459 C 170.274 322.259 167.454 303.699 155.104 291.349 C 142.734 278.989 124.154 276.169 108.954 283.739 C 114.644 295.149 122.194 305.699 131.474 314.979 C 140.874 324.369 151.454 331.859 162.744 337.459 Z M 104.724 376.509 C 120.554 369.539 132.154 355.589 136.184 338.759 C 130.834 334.819 125.714 330.429 120.874 325.579 C 120.194 324.899 119.524 324.209 118.854 323.519 C 105.144 337.369 99.694 357.529 104.724 376.509 Z M 83.184 209.789 C 86.724 187.089 95.984 165.829 110.274 147.739 C 92.994 148.649 76.254 154.499 61.974 164.839 C 44.014 177.849 31.554 196.789 26.704 218.369 C 45.984 221.669 65.814 218.649 83.184 209.789 Z"/>
    <path style="" d="M 254.734 191.719 C 276.224 213.219 276.224 248.189 254.734 269.679 C 243.984 280.429 229.874 285.799 215.754 285.799 C 201.634 285.799 187.524 280.429 176.774 269.679 C 155.284 248.189 155.284 213.219 176.774 191.719 C 198.264 170.229 233.244 170.229 254.734 191.719 Z M 244.124 259.079 C 259.774 243.429 259.774 217.979 244.124 202.329 C 236.304 194.509 226.024 190.599 215.754 190.599 C 205.474 190.599 195.204 194.509 187.384 202.329 C 171.734 217.979 171.734 243.429 187.384 259.079 C 203.024 274.719 228.484 274.719 244.124 259.079 Z"/>
  </g>
</svg>