<?xml version="1.0" encoding="utf-8"?>
<svg viewBox="0 0 24 24" width="24" height="24" xmlns="http://www.w3.org/2000/svg">
  <path d="M0 0h24v24H0z" fill="none"/>
  <path d="M 12 22 C 6.477 22 2 17.523 2 12 C 2 6.477 6.477 2 12 2 C 17.523 2 22 6.477 22 12 C 22 17.523 17.523 22 12 22 Z" style="fill: rgb(255, 255, 255);"/>
  <path d="M 12 20 C 18.158402871356007 20 22.007404665953512 13.333333333333336 18.92820323027551 8.000000000000002 C 17.499140870642858 5.524791385931977 14.858124719265309 4 12 4 C 5.841597128643993 4.000000000000002 1.992595334046487 10.666666666666668 5.07179676972449 16 C 6.500859129357145 18.475208614068023 9.141875280734691 20 12 20 Z" style="fill: rgb(244, 67, 54);"/>
  <path d="M 12 10.586 L 14.828 7.757 L 16.243 9.172 L 13.414 12 L 16.243 14.828 L 14.828 16.243 L 12 13.414 L 9.172 16.243 L 7.757000000000001 14.828 L 10.586 12 L 7.757 9.172 L 9.172 7.757000000000001 L 12 10.586 Z" style="fill: rgb(255, 255, 255);"/>
</svg>