<?xml version="1.0" encoding="utf-8"?>
<svg version="1.1" id="Layer_1" x="0px" y="0px" viewBox="0 0 400 400" style="enable-background:new 0 0 512 512;" xmlns="http://www.w3.org/2000/svg">
  <path style="fill: rgb(74, 125, 186);" d="M 199.998 353.544 C 152.886 353.544 114.696 315.354 114.696 268.242 L 114.696 97.637 C 114.696 50.526 152.886 12.334 199.998 12.334 C 247.108 12.334 285.3 50.525 285.3 97.636 L 285.3 268.241 C 285.3 315.354 247.109 353.544 199.998 353.544 Z"/>
  <circle style="fill: rgb(200, 244, 222);" cx="199.998" cy="114.698" r="34.121"/>
  <path style="fill: rgb(135, 223, 214);" d="M 217.343 217.06 L 182.653 217.06 C 173.388 217.06 165.877 209.55 165.877 200.284 L 165.877 192.18 C 165.877 187.077 170.014 182.939 175.118 182.939 L 224.878 182.939 C 229.981 182.939 234.119 187.076 234.119 192.18 L 234.119 200.284 C 234.119 209.55 226.608 217.06 217.343 217.06 Z"/>
  <path d="M 345.668 75.731 C 345.882 76.252 346.146 76.747 346.453 77.207 C 346.761 77.676 347.118 78.112 347.511 78.504 C 347.903 78.896 348.339 79.254 348.808 79.562 C 349.268 79.869 349.763 80.133 350.274 80.346 C 350.795 80.559 351.332 80.73 351.879 80.832 C 352.424 80.943 352.987 81.003 353.542 81.003 C 354.096 81.003 354.659 80.943 355.205 80.832 C 355.75 80.73 356.288 80.559 356.799 80.346 C 357.32 80.133 357.815 79.869 358.276 79.562 C 358.745 79.254 359.18 78.896 359.572 78.504 C 359.965 78.112 360.323 77.676 360.63 77.207 C 360.937 76.747 361.202 76.252 361.415 75.731 C 361.628 75.219 361.799 74.682 361.91 74.136 C 362.021 73.591 362.071 73.027 362.071 72.473 C 362.071 71.919 362.02 71.356 361.91 70.81 C 361.799 70.265 361.629 69.727 361.415 69.215 C 361.202 68.695 360.937 68.2 360.63 67.739 C 360.323 67.27 359.965 66.835 359.572 66.443 C 359.18 66.05 358.745 65.692 358.276 65.385 C 357.815 65.078 357.32 64.813 356.799 64.6 C 356.288 64.387 355.75 64.216 355.205 64.114 C 354.104 63.893 352.978 63.893 351.878 64.114 C 351.332 64.217 350.794 64.387 350.274 64.6 C 349.762 64.813 349.267 65.078 348.807 65.385 C 348.338 65.692 347.902 66.05 347.51 66.443 C 347.118 66.835 346.76 67.27 346.452 67.739 C 346.145 68.2 345.881 68.695 345.668 69.215 C 345.455 69.727 345.284 70.265 345.182 70.81 C 345.071 71.356 345.011 71.919 345.011 72.473 C 345.011 73.027 345.071 73.591 345.182 74.136 C 345.285 74.682 345.455 75.219 345.668 75.731 Z" style=""/>
  <path d="M 38.58 75.731 C 38.793 76.252 39.057 76.747 39.365 77.207 C 39.672 77.676 40.03 78.112 40.422 78.504 C 40.815 78.896 41.25 79.254 41.719 79.562 C 42.18 79.869 42.675 80.133 43.186 80.346 C 43.706 80.559 44.244 80.73 44.79 80.832 C 45.336 80.943 45.899 81.003 46.453 81.003 C 47.007 81.003 47.571 80.943 48.116 80.832 C 48.662 80.73 49.2 80.559 49.711 80.346 C 50.231 80.133 50.726 79.869 51.187 79.562 C 51.656 79.254 52.091 78.896 52.484 78.504 C 52.876 78.112 53.234 77.676 53.541 77.207 C 53.849 76.747 54.113 76.252 54.326 75.731 C 54.539 75.219 54.71 74.682 54.812 74.136 C 54.923 73.591 54.983 73.027 54.983 72.473 C 54.983 71.919 54.923 71.356 54.812 70.81 C 54.709 70.265 54.539 69.727 54.326 69.215 C 54.113 68.695 53.849 68.2 53.541 67.739 C 53.234 67.27 52.876 66.835 52.484 66.443 C 50.505 64.464 47.562 63.551 44.789 64.113 C 44.244 64.225 43.706 64.386 43.185 64.599 C 42.673 64.812 42.179 65.077 41.718 65.384 C 41.249 65.691 40.814 66.049 40.422 66.442 C 40.029 66.834 39.671 67.269 39.364 67.739 C 39.057 68.199 38.792 68.694 38.579 69.215 C 38.366 69.727 38.195 70.264 38.093 70.809 C 37.982 71.355 37.922 71.918 37.922 72.473 C 37.922 73.027 37.982 73.59 38.093 74.136 C 38.196 74.682 38.367 75.219 38.58 75.731 Z" style=""/>
  <path d="M 319.421 140.288 C 342.939 140.288 362.072 121.154 362.072 97.637 C 362.072 92.926 358.253 89.107 353.542 89.107 C 348.831 89.107 345.012 92.926 345.012 97.637 C 345.012 111.748 333.533 123.227 319.422 123.227 C 305.311 123.227 293.831 111.748 293.831 97.637 C 293.831 45.897 251.737 3.804 199.998 3.804 C 148.258 3.804 106.165 45.897 106.165 97.637 C 106.165 111.748 94.685 123.227 80.574 123.227 C 66.464 123.227 54.984 111.748 54.984 97.637 C 54.984 92.926 51.165 89.107 46.454 89.107 C 41.743 89.107 37.924 92.926 37.924 97.637 C 37.924 121.155 57.058 140.288 80.575 140.288 C 90.169 140.288 99.032 137.102 106.166 131.735 L 106.166 148.819 C 106.166 172.337 87.032 191.47 63.514 191.47 C 58.811 191.47 54.985 187.643 54.985 182.94 C 54.985 178.229 51.166 174.41 46.455 174.41 C 41.744 174.41 37.925 178.229 37.925 182.94 C 37.925 197.051 49.404 208.53 63.515 208.53 C 80.21 208.53 95.32 201.634 106.166 190.551 L 106.166 200 C 106.166 223.518 87.033 242.651 63.515 242.651 C 58.812 242.651 54.985 238.824 54.985 234.121 C 54.985 229.41 51.166 225.591 46.455 225.591 C 41.744 225.591 37.925 229.41 37.925 234.121 C 37.925 248.232 49.405 259.711 63.516 259.711 C 80.211 259.711 95.32 252.815 106.167 241.732 L 106.167 268.241 C 106.167 282.113 86.636 293.832 63.516 293.832 C 58.813 293.832 54.986 290.005 54.986 285.302 C 54.986 280.591 51.167 276.772 46.456 276.772 C 41.745 276.772 37.926 280.591 37.926 285.302 C 37.926 299.413 49.406 310.892 63.517 310.892 C 82.566 310.892 99.26 304.823 110.119 295.191 C 113.007 304.807 117.399 313.777 123.022 321.83 C 120.924 334.622 102.344 345.013 80.577 345.013 C 75.874 345.013 72.047 341.186 72.047 336.483 C 72.047 331.772 68.229 327.953 63.518 327.953 C 58.807 327.953 54.988 331.772 54.988 336.483 C 54.988 350.594 66.467 362.073 80.578 362.073 C 105.584 362.073 126.536 351.621 135.545 336.367 C 142.014 342.491 149.349 347.708 157.35 351.808 L 157.35 370.603 C 157.35 375.307 153.524 379.133 148.821 379.133 C 144.11 379.133 140.291 382.952 140.291 387.663 C 140.291 392.374 144.11 396.193 148.821 396.193 C 162.931 396.193 174.411 384.713 174.411 370.603 L 174.411 358.527 C 182.549 360.837 191.134 362.074 200.002 362.074 C 208.869 362.074 217.455 360.837 225.592 358.527 L 225.592 370.604 C 225.592 384.715 237.072 396.195 251.183 396.195 C 255.894 396.195 259.712 392.376 259.712 387.665 C 259.712 382.954 255.894 379.135 251.183 379.135 C 246.479 379.135 242.653 375.308 242.653 370.605 L 242.653 351.808 C 250.652 347.709 257.988 342.491 264.458 336.368 C 273.467 351.623 294.42 362.075 319.425 362.075 C 333.536 362.075 345.015 350.595 345.015 336.485 C 345.015 331.774 341.197 327.955 336.486 327.955 C 331.775 327.955 327.956 331.774 327.956 336.485 C 327.956 341.188 324.129 345.014 319.426 345.014 C 297.66 345.014 279.079 334.624 276.982 321.831 C 282.604 313.779 286.996 304.808 289.884 295.192 C 300.743 304.825 317.436 310.894 336.486 310.894 C 350.597 310.894 362.077 299.414 362.077 285.303 C 362.077 280.592 358.258 276.774 353.547 276.774 C 348.836 276.774 345.017 280.592 345.017 285.303 C 345.017 290.007 341.19 293.833 336.487 293.833 C 313.367 293.833 293.836 282.115 293.836 268.243 L 293.836 241.733 C 304.683 252.817 319.792 259.713 336.487 259.713 C 350.598 259.713 362.078 248.233 362.078 234.122 C 362.078 229.411 358.259 225.593 353.548 225.593 C 348.837 225.593 345.018 229.411 345.018 234.122 C 345.018 238.826 341.191 242.652 336.488 242.652 C 312.97 242.652 293.837 223.519 293.837 200.001 L 293.837 190.552 C 304.683 201.636 319.793 208.532 336.488 208.532 C 350.599 208.532 362.078 197.052 362.078 182.941 C 362.078 178.23 358.259 174.412 353.548 174.412 C 348.837 174.412 345.019 178.23 345.019 182.941 C 345.019 187.645 341.192 191.471 336.489 191.471 C 312.97 191.471 293.838 172.338 293.838 148.82 L 293.838 131.737 C 300.964 137.102 309.827 140.288 319.421 140.288 Z M 276.77 268.241 C 276.77 310.574 242.33 345.014 199.998 345.014 C 157.665 345.014 123.225 310.574 123.225 268.241 L 123.225 97.637 C 123.225 55.305 157.665 20.865 199.998 20.865 C 242.33 20.865 276.77 55.305 276.77 97.637 L 276.77 268.241 Z" style=""/>
  <path d="M 199.998 72.046 C 176.48 72.046 157.347 91.179 157.347 114.697 C 157.347 138.214 176.48 157.348 199.998 157.348 C 223.515 157.348 242.649 138.214 242.649 114.697 C 242.649 91.179 223.516 72.046 199.998 72.046 Z M 199.998 140.288 C 185.887 140.288 174.407 128.808 174.407 114.698 C 174.407 100.587 185.887 89.107 199.998 89.107 C 214.108 89.107 225.588 100.587 225.588 114.698 C 225.588 128.808 214.108 140.288 199.998 140.288 Z" style=""/>
  <path d="M 224.878 174.409 L 175.118 174.409 C 165.319 174.409 157.347 182.381 157.347 192.18 L 157.347 200.284 C 157.347 214.238 168.698 225.591 182.654 225.591 L 217.343 225.591 C 231.297 225.591 242.65 214.239 242.65 200.284 L 242.65 192.18 C 242.649 182.381 234.677 174.409 224.878 174.409 Z M 225.588 200.284 C 225.588 204.831 221.89 208.53 217.342 208.53 L 182.652 208.53 C 178.105 208.53 174.406 204.832 174.406 200.284 L 174.406 192.18 C 174.406 191.789 174.724 191.47 175.116 191.47 L 224.875 191.47 C 225.267 191.47 225.586 191.789 225.586 192.18 L 225.586 200.284 L 225.588 200.284 Z" style=""/>
  <path d="M 191.879 118.327 C 192.092 118.848 192.356 119.343 192.663 119.803 C 192.971 120.272 193.329 120.708 193.721 121.1 C 194.113 121.492 194.549 121.85 195.018 122.158 C 195.478 122.465 195.973 122.729 196.485 122.942 C 197.005 123.155 197.542 123.326 198.089 123.428 C 198.634 123.539 199.198 123.599 199.752 123.599 C 200.306 123.599 200.869 123.539 201.415 123.428 C 201.96 123.326 202.498 123.155 203.01 122.942 C 203.53 122.729 204.025 122.465 204.486 122.158 C 204.955 121.85 205.39 121.492 205.782 121.1 C 206.175 120.708 206.533 120.272 206.84 119.803 C 207.147 119.343 207.412 118.848 207.625 118.327 C 207.838 117.815 208.009 117.278 208.12 116.732 C 208.231 116.187 208.282 115.623 208.282 115.069 C 208.282 114.515 208.23 113.952 208.12 113.406 C 208.009 112.86 207.839 112.322 207.625 111.811 C 207.412 111.291 207.147 110.796 206.84 110.335 C 206.533 109.866 206.175 109.431 205.782 109.038 C 205.39 108.646 204.955 108.288 204.486 107.981 C 204.025 107.674 203.53 107.409 203.01 107.196 C 202.498 106.983 201.96 106.812 201.415 106.71 C 200.314 106.489 199.188 106.489 198.088 106.71 C 197.542 106.813 197.004 106.983 196.484 107.196 C 195.972 107.409 195.478 107.674 195.017 107.981 C 194.548 108.288 194.113 108.646 193.72 109.038 C 193.328 109.431 192.97 109.866 192.663 110.335 C 192.355 110.796 192.091 111.291 191.878 111.811 C 191.665 112.323 191.494 112.86 191.392 113.406 C 191.281 113.952 191.221 114.515 191.221 115.069 C 191.221 115.623 191.281 116.187 191.392 116.732 C 191.495 117.278 191.666 117.815 191.879 118.327 Z" style=""/>
</svg>