<?xml version="1.0" encoding="utf-8"?>
<svg version="1.1" id="Layer_1" x="0px" y="0px" viewBox="0 0 400 400" style="enable-background:new 0 0 512 512;" xmlns="http://www.w3.org/2000/svg">
  <path style="fill: rgb(89, 195, 132);" d="M 283.762 180.539 L 283.762 155.423 C 283.762 110.789 247.581 74.603 202.942 74.603 C 158.303 74.603 122.122 110.789 122.122 155.423 L 122.122 356.863 L 109.519 356.863 C 77.785 356.863 51.967 331.046 51.967 299.312 C 51.967 279.28 62.138 260.995 79.175 250.398 C 87.027 245.515 89.431 235.189 84.549 227.338 C 79.665 219.486 69.341 217.078 61.487 221.965 C 34.559 238.715 18.481 267.631 18.481 299.313 C 18.481 349.512 59.321 390.351 109.519 390.351 L 138.196 390.351 L 150.448 390.351 L 255.436 390.351 L 267.688 390.351 L 296.366 390.351 C 346.564 390.351 387.404 349.512 387.404 299.313 C 387.404 267.631 371.328 238.716 344.397 221.965 C 336.545 217.079 326.219 219.486 321.335 227.338 C 316.453 235.19 318.858 245.515 326.711 250.398 C 343.746 260.995 353.917 279.281 353.917 299.312 C 353.917 331.046 328.101 356.863 296.366 356.863 L 283.761 356.863 L 283.761 200.465"/>
  <circle style="fill: rgb(255, 217, 96);" cx="202.944" cy="162.993" r="42.157"/>
  <path style="fill: rgb(87, 140, 173);" d="M 167.205 245.244 C 171.584 263.272 185.92 276.5 202.943 276.5 C 219.967 276.5 234.303 263.273 238.682 245.244 L 167.205 245.244 Z"/>
  <path style="fill: rgb(89, 195, 132);" d="M 284.078 29.142 C 284.078 39.904 275.353 48.632 264.587 48.632 C 253.825 48.632 245.1 39.904 245.1 29.142 C 245.1 18.377 253.825 9.651 264.587 9.651 C 275.354 9.651 284.078 18.377 284.078 29.142 Z"/>
  <g style="opacity: 0.2;" transform="matrix(0.76788, 0, 0, 0.76788, 6.366391, 3.422714)">
    <path style="fill:#231F20;" d="M255.999,92.698c-58.133,0-105.252,47.125-105.252,105.251v269.319c2.444,0.3,4.92,0.49,7.428,0.553 c6.468-0.572,18.163-3.948,18.163-20.898V197.948c0-53.794,40.36-98.16,92.456-104.475C264.6,92.966,260.33,92.698,255.999,92.698z "/>
  </g>
  <g style="opacity: 0.2;" transform="matrix(0.76788, 0, 0, 0.76788, 6.366391, 3.422714)">
    <path style="fill:#231F20;" d="M226.688,207.803c0-25.914,17.96-47.619,42.106-53.387c-4.107-0.981-8.388-1.515-12.795-1.515 c-30.321,0-54.901,24.579-54.901,54.9c0,30.322,24.58,54.903,54.901,54.903c4.407,0,8.688-0.534,12.795-1.515 C244.649,255.423,226.688,233.718,226.688,207.803z"/>
  </g>
  <g style="opacity: 0.2;" transform="matrix(0.76788, 0, 0, 0.76788, 6.366391, 3.422714)">
    <path style="fill:#231F20;" d="M235.048,314.921h-25.59c5.703,23.477,24.373,40.704,46.542,40.704c4.432,0,8.72-0.7,12.795-1.987 C252.48,348.478,239.611,333.706,235.048,314.921z"/>
  </g>
  <g style="opacity: 0.2;" transform="matrix(0.76788, 0, 0, 0.76788, 6.366391, 3.422714)">
    <path style="fill:#231F20;" d="M336.492,33.493c0-9.35,5.058-17.514,12.584-21.918c-3.759-2.198-8.128-3.465-12.797-3.465 c-14.015,0-25.378,11.365-25.378,25.383c0,14.016,11.364,25.382,25.378,25.382c4.669,0,9.039-1.266,12.797-3.465 C341.551,51.005,336.492,42.842,336.492,33.493z"/>
  </g>
  <g style="" transform="matrix(0.76788, 0, 0, 0.76788, 6.366391, 3.422714)">
    <path style="fill:#231F20;" d="M256.001,144.792c-34.745,0-63.011,28.267-63.011,63.01c0,34.745,28.268,63.012,63.011,63.012 s63.01-28.268,63.01-63.012C319.011,173.059,290.744,144.792,256.001,144.792z M256.001,254.596 c-25.801,0-46.792-20.992-46.792-46.793c0-25.8,20.99-46.791,46.792-46.791c25.8,0,46.791,20.99,46.791,46.791 C302.791,233.604,281.801,254.596,256.001,254.596z"/>
    <circle style="fill:#231F20;" cx="256.001" cy="207.806" r="15.496"/>
    <path style="fill:#231F20;" d="M302.541,306.811h-93.084c-2.488,0-4.839,1.142-6.375,3.098c-1.537,1.956-2.092,4.509-1.505,6.927 c6.708,27.613,29.087,46.899,54.422,46.899c25.336,0,47.716-19.285,54.422-46.9c0.587-2.417,0.032-4.971-1.505-6.926 C307.378,307.953,305.028,306.811,302.541,306.811z M255.999,347.514c-14.72,0-28.124-9.673-35.129-24.484h70.258 C284.123,337.841,270.719,347.514,255.999,347.514z"/>
    <path style="fill:#231F20;" d="M444.5,277.717c-6.786-4.223-14.81-5.548-22.592-3.735s-14.392,6.549-18.615,13.336 c-4.218,6.784-5.544,14.806-3.729,22.589c1.813,7.782,6.55,14.392,13.334,18.612c19.79,12.311,31.605,33.549,31.605,56.814 c0,36.854-29.984,66.839-66.838,66.839h-8.306V256.606c0-4.479-3.63-8.11-8.11-8.11s-8.11,3.631-8.11,8.11v203.675 c0,4.479,3.63,8.11,8.11,8.11h16.415c45.798,0,83.058-37.26,83.058-83.059c0-28.908-14.674-55.295-39.257-70.587 c-3.107-1.932-5.275-4.958-6.105-8.521c-0.832-3.562-0.224-7.235,1.706-10.34c1.933-3.108,4.96-5.275,8.523-6.106 c3.561-0.83,7.233-0.224,10.342,1.711c32.674,20.322,52.181,55.404,52.181,93.843c0,60.902-49.547,110.448-110.448,110.448H134.336 c-60.901,0-110.448-49.547-110.448-110.448c0-38.437,19.507-73.519,52.181-93.844c3.106-1.932,6.778-2.54,10.342-1.71 c3.563,0.83,6.59,2.999,8.521,6.105c3.988,6.413,2.017,14.875-4.394,18.861c-24.583,15.292-39.259,41.678-39.259,70.587 c0,45.799,37.26,83.059,83.059,83.059h16.412c4.48,0,8.11-3.631,8.11-8.11V197.948c0-53.557,43.567-97.13,97.122-97.14 c0.01,0,0.019,0.001,0.029,0.001c0.009,0,0.017-0.001,0.026-0.001c53.548,0.019,97.105,43.589,97.105,97.14v32.708 c0,4.479,3.63,8.11,8.11,8.11s8.11-3.631,8.11-8.11v-32.708c0-58.944-45.225-107.518-102.797-112.864 c4.313-12.444,14.835-34.204,37.382-42.891c3.841,14.261,16.878,24.791,32.334,24.791c18.468,0,33.493-15.025,33.493-33.491 C369.771,15.025,354.747,0,336.279,0c-15.676,0-28.866,10.83-32.493,25.401c-0.695,0.035-1.396,0.151-2.09,0.376 c-34.75,11.242-47.943,44.761-52.072,58.994c-59.553,3.319-106.986,52.81-106.986,113.178v254.223h-8.302 c-36.855,0-66.839-29.984-66.839-66.839c0-23.264,11.815-44.504,31.606-56.814c14.005-8.71,18.314-27.192,9.602-41.201 c-4.22-6.785-10.831-11.52-18.613-13.335c-7.782-1.814-15.806-0.488-22.591,3.734C30.036,301.021,7.668,341.251,7.668,385.332 C7.668,455.177,64.49,512,134.336,512h243.329c69.845,0,126.668-56.823,126.668-126.668 C504.332,341.25,481.964,301.02,444.5,277.717z M336.279,16.22c9.524,0,17.273,7.749,17.273,17.273s-7.749,17.272-17.273,17.272 c-9.522,0-17.269-7.749-17.269-17.272C319.011,23.968,326.757,16.22,336.279,16.22z"/>
  </g>
</svg>