<?xml version="1.0" encoding="utf-8"?>
<svg version="1.1" id="Layer_1" x="0px" y="0px" viewBox="0 0 400 400" style="enable-background:new 0 0 511.999 511.999;" xmlns="http://www.w3.org/2000/svg">
  <path style="fill: rgb(210, 75, 75);" d="M 284.298 177.884 L 284.298 162.58 C 280.136 116.349 241.304 80.112 193.988 80.112 C 143.902 80.112 103.306 120.706 103.291 170.783 L 103.291 180.396 L 103.291 183.419 L 103.291 269.185 C 103.291 279.147 111.366 287.223 121.33 287.223 L 266.259 287.223 C 276.222 287.223 284.299 279.148 284.299 269.185 L 284.299 198.052"/>
  <circle style="fill: rgb(96, 255, 210);" cx="193.798" cy="176.954" r="41.191"/>
  <circle style="fill: rgb(210, 75, 75);" cx="193.798" cy="28.621" r="20.818"/>
  <g style="opacity: 0.2;" transform="matrix(0.775304, 0, 0, 0.775304, 1.522281, 1.522577)">
    <path style="fill:#231F20;" d="M155.955,345.236V234.613v-3.898v-12.4c0.019-60.414,45.83-110.123,104.62-116.298 c-4.054-0.424-8.165-0.65-12.33-0.65c-64.601,0-116.962,52.358-116.982,116.948v12.4v3.898v110.623 c0,12.849,10.415,23.266,23.267,23.266h24.691C166.369,368.502,155.955,358.086,155.955,345.236z"/>
  </g>
  <g style="opacity: 0.2;" transform="matrix(0.775304, 0, 0, 0.775304, 1.522281, 1.522577)">
    <path style="fill:#231F20;" d="M219.561,226.275c0-25.089,17.395-46.101,40.781-51.67c-3.964-0.944-8.094-1.458-12.346-1.458 c-29.341,0-53.127,23.785-53.127,53.127c0,29.341,23.786,53.126,53.127,53.126c4.253,0,8.382-0.514,12.346-1.458 C236.956,272.376,219.561,251.364,219.561,226.275z"/>
  </g>
  <g style="opacity: 0.2;" transform="matrix(0.775304, 0, 0, 0.775304, 1.522281, 1.522577)">
    <path style="fill:#231F20;" d="M245.834,34.951c0-10.377,5.891-19.373,14.507-23.843c-3.696-1.918-7.893-3.008-12.345-3.008 c-14.831,0-26.853,12.022-26.853,26.852c0,14.829,12.022,26.852,26.853,26.852c4.452,0,8.649-1.091,12.345-3.008 C251.725,54.323,245.834,45.328,245.834,34.951z"/>
  </g>
  <g style="" transform="matrix(0.775304, 0, 0, 0.775304, 1.522281, 1.522577)">
    <path style="fill: rgb(165, 62, 62);" d="M197.261,368.502c-13.751,15.334-34.439,23.541-55.836,20.885 c-11.288-1.402-22.006-5.758-30.99-12.597c-7.629-5.81-18.523-4.332-24.33,3.297c-5.809,7.629-4.332,18.523,3.298,24.33 c13.863,10.552,30.373,17.272,47.745,19.429c34.949,4.339,68.671-10.15,89.716-36.607c0.139-2.703,0.338-5.413,0.677-8.139 l1.315-10.598L197.261,368.502L197.261,368.502z"/>
    <path style="fill: rgb(165, 62, 62);" d="M413.047,451.361c-6.364-7.171-17.337-7.827-24.509-1.461c-16.435,14.586-38.358,21.4-60.142,18.696 c-41.803-5.19-71.587-43.418-66.399-85.219l1.856-14.875h-35.077l-1.238,10.598c-7.548,60.803,35.777,116.408,96.578,123.956 c31.689,3.934,63.568-5.974,87.47-27.184C418.757,469.509,419.411,458.534,413.047,451.361z"/>
    <path style="fill: rgb(165, 62, 62);" d="M421.212,351.347c-8.153-5.045-18.854-2.527-23.901,5.628 c-13.198,21.328-37.802,33.114-62.679,30.027c-14.466-1.796-27.663-8.42-37.687-18.5h-33.092l-1.58,12.648l0,0v0.001 c15.997,22.144,40.552,36.891,68.082,40.309c38.299,4.755,76.171-13.386,96.486-46.214 C431.886,367.092,429.365,356.392,421.212,351.347z"/>
  </g>
  <g style="" transform="matrix(0.775304, 0, 0, 0.775304, 1.522281, 1.522577)">
    <path style="fill:#231F20;" d="M342.483,430.31C342.485,430.31,342.481,430.31,342.483,430.31c36.89,0,71.856-19.468,91.245-50.801 c3.578-5.783,4.691-12.614,3.13-19.234c-1.558-6.62-5.602-12.236-11.385-15.814c-4.03-2.494-8.657-3.813-13.382-3.813 c-8.892,0-16.993,4.511-21.667,12.066c-10.181,16.454-28.543,26.675-47.918,26.676c-2.289,0-4.603-0.143-6.877-0.425 c-3.574-0.444-7.086-1.247-10.491-2.364h16.322c17.296,0,31.367-14.07,31.367-31.365v-91.749c0-4.473-3.625-8.099-8.099-8.099 s-8.099,3.626-8.099,8.099v91.749c0,8.362-6.805,15.167-15.169,15.167h-44.516h-33.092h-34.999h-0.078H197.26h-42.731 c-8.364,0-15.168-6.804-15.168-15.167v-126.92c0.021-60.021,48.865-108.851,108.883-108.851c56.611,0,103.143,42.378,108.385,98.64 v19.371c0,4.473,3.625,8.099,8.099,8.099c4.474,0,8.099-3.626,8.099-8.099v-19.74c0-0.243-0.011-0.485-0.032-0.726 c-2.788-30.974-16.978-59.662-39.954-80.781c-21.19-19.477-48.192-30.928-76.746-32.709V68.945 c15.377-3.664,26.851-17.51,26.851-33.993C282.945,15.68,267.268,0,247.996,0c-19.273,0-34.952,15.68-34.952,34.951 c0,16.484,11.474,30.329,26.853,33.993v24.608c-65.071,4.311-116.712,58.615-116.734,124.762v126.923 c0,17.295,14.071,31.365,31.366,31.365h18.375c-7.3,3.366-15.308,5.18-23.504,5.18c-2.317,0-4.665-0.145-6.978-0.432 c-9.871-1.226-19.236-5.031-27.081-11.003c-4.473-3.405-9.801-5.204-15.411-5.204c-8.026,0-15.413,3.659-20.27,10.038 c-4.119,5.411-5.885,12.103-4.972,18.842c0.915,6.739,4.397,12.72,9.808,16.838c15.004,11.421,32.864,18.689,51.653,21.022 c4.395,0.545,8.861,0.823,13.273,0.823h0.001c26.06,0,50.685-9.308,69.957-26.013c2.491,21.428,10.808,41.85,24.43,59.332 c19.592,25.145,47.758,41.15,79.311,45.067c4.851,0.603,9.787,0.907,14.674,0.907h0.001c29.198,0,57.317-10.681,79.168-30.071 c5.086-4.513,8.111-10.737,8.515-17.527c0.405-6.789-1.858-13.329-6.372-18.415c-4.828-5.44-11.77-8.561-19.049-8.561 c-6.232,0-12.23,2.28-16.894,6.419c-12.524,11.114-28.635,17.235-45.365,17.235c-2.798,0-5.625-0.175-8.403-0.519 c-31.339-3.891-55.113-28.558-59.238-58.455c16.301,14.924,37.017,24.638,59.202,27.393 C333.696,430.035,338.111,430.308,342.483,430.31z M229.242,34.951c0-10.341,8.413-18.753,18.754-18.753 c10.34,0,18.752,8.413,18.752,18.753s-8.412,18.753-18.752,18.753C237.655,53.704,229.242,45.292,229.242,34.951z M149.421,416.508 c-3.747,0-7.541-0.235-11.277-0.699c-15.951-1.98-31.11-8.148-43.837-17.836c-1.969-1.499-3.236-3.674-3.569-6.125 c-0.333-2.451,0.31-4.886,1.81-6.855c1.767-2.321,4.458-3.652,7.382-3.652c2.036,0,3.971,0.654,5.599,1.894 c10.122,7.705,22.189,12.612,34.898,14.189c2.973,0.369,5.992,0.556,8.975,0.556c19.293,0,37.804-7.75,51.348-21.378h18.928 l-0.174,1.491l-0.001,0.009c-0.085,0.686-0.162,1.389-0.235,2.102c-0.141,1.325-0.266,2.649-0.363,3.971 C201.588,404.755,176.409,416.508,149.421,416.508z M327.398,476.633c3.438,0.427,6.937,0.644,10.399,0.644 c20.697,0,40.627-7.571,56.117-21.319c1.696-1.506,3.878-2.335,6.142-2.335c2.65,0,5.177,1.135,6.934,3.114 c1.642,1.851,2.465,4.231,2.317,6.702c-0.147,2.47-1.246,4.733-3.096,6.374c-18.885,16.759-43.183,25.989-68.417,25.989 c-4.221,0-8.488-0.263-12.679-0.784c-53.7-6.667-92.695-53.768-90.213-106.999c0.012-0.122,0.041-0.241,0.048-0.364 c0.11-2.132,0.246-3.978,0.418-5.683c0.063-0.593,0.125-1.186,0.198-1.78c0.004-0.031,0.008-0.064,0.011-0.095l0.434-3.496h18.67 l-0.443,3.547c-0.001,0.01-0.001,0.018-0.002,0.027l-0.275,2.205C248.221,428.612,281.166,470.894,327.398,476.633z M270.716,378.913l0.288-2.312h22.69c11.046,10.086,25.099,16.596,39.94,18.439c2.934,0.364,5.918,0.549,8.872,0.549 c24.943,0,48.582-13.162,61.692-34.35c1.701-2.749,4.652-4.391,7.894-4.391c1.711,0,3.391,0.481,4.858,1.389 c2.104,1.301,3.575,3.345,4.142,5.753c0.566,2.408,0.162,4.893-1.14,6.996c-16.46,26.601-46.146,43.128-77.47,43.126 c-3.707,0-7.45-0.232-11.13-0.689C307.414,410.451,285.487,397.933,270.716,378.913z"/>
    <path style="fill:#231F20;" d="M309.22,226.275c0-33.761-27.465-61.226-61.224-61.226c-33.761,0-61.226,27.466-61.226,61.226 s27.466,61.225,61.226,61.225S309.22,260.035,309.22,226.275z M247.996,271.302c-24.828,0-45.028-20.199-45.028-45.027 c0-24.829,20.2-45.028,45.028-45.028c24.827,0,45.026,20.2,45.026,45.028S272.823,271.302,247.996,271.302z"/>
    <circle style="fill:#231F20;" cx="248" cy="226.274" r="17.014"/>
    <path style="fill:#231F20;" d="M264.194,316.895c-10.607,9.449-21.795,9.444-32.396,0c-3.341-2.976-8.46-2.678-11.436,0.66 c-2.975,3.34-2.679,8.459,0.66,11.435c8.242,7.341,17.568,11.221,26.974,11.221c9.403,0,18.73-3.88,26.972-11.221 c3.34-2.975,3.636-8.095,0.661-11.435C272.654,314.217,267.535,313.919,264.194,316.895z"/>
  </g>
</svg>