<?xml version="1.0" encoding="utf-8"?>
<svg version="1.1" id="Layer_1" x="0px" y="0px" viewBox="0 0 400 400" style="enable-background:new 0 0 401.66 401.66;" width="512" height="512" xmlns="http://www.w3.org/2000/svg">
  <g style="" transform="matrix(1.042213, 0, 0, 1.042213, -9.307652, 1.460514)">
    <path style="fill: rgb(154, 209, 75);" d="M 200.383 85.99 C 154.463 85.99 117.233 50.675 117.233 7.117 C 140.193 7.117 160.983 15.948 176.033 30.224 C 191.073 44.49 200.383 64.21 200.383 85.99 Z"/>
    <path style="fill: rgb(249, 84, 40);" d="M 229.153 105.748 C 311.773 105.748 369.343 183.539 341.273 257.252 L 315.753 324.229 C 313.643 329.769 310.913 334.986 307.653 339.804 C 303.193 346.378 297.733 352.231 291.523 357.182 L 291.513 357.182 C 285.893 361.669 279.653 365.415 272.963 368.337 C 257.343 375.129 239.473 375.556 223.293 370.12 C 219.463 368.84 215.553 367.901 211.593 367.284 C 208.033 366.734 204.423 366.468 200.833 366.468 C 193.233 366.468 185.643 367.683 178.373 370.12 C 172.983 371.923 167.423 373.089 161.813 373.583 C 150.553 374.569 139.123 372.871 128.703 368.337 C 109.193 359.847 93.523 344.215 85.903 324.229 L 60.393 257.252 C 32.313 183.539 89.883 105.748 172.503 105.748 L 200.833 105.748 L 229.153 105.748 L 229.153 105.748 Z"/>
    <g style="" transform="matrix(1, 0, 0, 0.948557, 0, 0)">
      <path style="fill:#E54728;" d="M153.903,341.813l-25.51-70.61c-27.432-75.917,26.883-155.922,106.435-159.576    c-1.879-0.086-3.768-0.145-5.675-0.145h-28.32h-28.33c-82.62,0-140.19,82.01-112.11,159.72l25.51,70.61    c7.62,21.07,23.29,37.55,42.8,46.5c10.42,4.78,21.85,6.57,33.11,5.53c5.61-0.52,11.17-1.75,16.56-3.65    c4.932-1.743,10.013-2.878,15.143-3.438C175.494,377.522,161.103,361.721,153.903,341.813z"/>
    </g>
    <path style="fill: rgb(255, 255, 255);" d="M 288.305 335.112 C 286.918 335.112 285.515 334.748 284.262 333.984 C 280.776 331.862 279.763 327.462 282 324.155 C 284.052 321.122 285.757 317.839 287.068 314.397 L 312.589 247.417 C 322.545 221.274 318.596 193.231 301.757 170.478 C 294.489 160.657 285.465 152.621 274.934 146.59 C 271.388 144.559 270.249 140.187 272.39 136.823 C 274.531 133.459 279.141 132.378 282.687 134.41 C 295.013 141.468 305.56 150.852 314.033 162.301 C 333.72 188.901 338.335 221.686 326.696 252.252 L 301.175 319.233 C 299.485 323.67 297.28 327.912 294.624 331.838 C 293.192 333.957 290.774 335.112 288.305 335.112 Z M 252.306 137.275 C 248.164 137.275 244.801 134.09 244.801 130.161 C 244.801 126.232 248.154 123.047 252.296 123.047 L 252.306 123.047 C 256.449 123.047 259.806 126.232 259.806 130.161 C 259.806 134.09 256.448 137.275 252.306 137.275 Z"/>
    <path style="fill: rgb(144, 188, 66);" d="M 200.383 85.99 C 154.463 85.99 117.233 50.675 117.233 7.117 L 200.383 85.99 Z"/>
    <path style="" d="M 332.862 149.773 C 308.812 117.275 271.009 98.637 229.149 98.637 L 208.33 98.637 L 208.33 98.131 C 208.33 77.619 219.044 58.508 236.989 47.008 C 240.422 44.808 241.324 40.386 239.006 37.13 C 236.688 33.875 232.026 33.019 228.592 35.217 C 218.231 41.857 209.83 50.559 203.83 60.535 C 192.364 25.509 157.88 0 117.232 0 C 113.09 0 109.732 3.185 109.732 7.114 C 109.732 52.341 146.733 89.524 193.529 92.859 C 193.401 94.607 193.33 96.364 193.33 98.132 L 193.33 98.638 L 172.501 98.638 C 130.646 98.638 92.848 117.275 68.799 149.771 C 44.749 182.269 39.113 222.325 53.336 259.668 L 78.853 326.648 C 87.049 348.16 103.641 365.262 125.572 374.801 C 136.974 379.761 149.745 381.785 162.501 380.661 C 168.717 380.115 174.896 378.825 180.867 376.827 C 187.301 374.672 194.017 373.58 200.83 373.58 C 204.047 373.58 207.262 373.823 210.381 374.304 C 213.952 374.857 217.453 375.705 220.786 376.824 C 229.078 379.609 237.614 380.996 246.066 380.996 C 256.401 380.996 266.611 378.922 276.093 374.797 C 283.325 371.643 290.056 367.611 296.105 362.81 C 296.187 362.75 296.268 362.688 296.347 362.625 C 303.206 357.155 309.132 350.768 313.958 343.645 C 317.562 338.327 320.54 332.607 322.807 326.647 L 348.324 259.667 C 362.547 222.325 356.911 182.271 332.862 149.773 Z M 146.89 57.857 C 134.482 46.088 126.915 30.95 125.138 14.618 C 160.555 18.121 188.782 44.895 192.474 78.491 C 175.256 76.805 159.297 69.626 146.89 57.857 Z M 334.217 254.833 L 308.699 321.816 C 306.812 326.775 304.336 331.532 301.34 335.953 C 297.379 341.799 292.526 347.05 286.912 351.561 C 286.832 351.62 286.753 351.679 286.676 351.742 C 281.598 355.803 275.929 359.211 269.834 361.869 C 256.168 367.814 240.526 368.364 225.791 363.413 C 221.618 362.013 217.246 360.953 212.792 360.264 C 208.875 359.66 204.85 359.354 200.83 359.354 C 192.312 359.354 183.915 360.719 175.875 363.412 C 171.069 365.02 166.104 366.058 161.114 366.495 C 150.968 367.39 140.84 365.792 131.824 361.87 C 113.579 353.934 99.777 339.709 92.959 321.814 L 67.442 254.834 C 54.902 221.911 59.872 186.597 81.074 157.946 C 102.276 129.297 135.599 112.866 172.499 112.866 L 229.147 112.866 C 266.053 112.866 299.38 129.298 320.583 157.949 C 341.787 186.598 346.756 221.911 334.217 254.833 Z"/>
  </g>
</svg>