<?xml version="1.0" encoding="utf-8"?>
<svg version="1.1" id="Layer_1" x="0px" y="0px" viewBox="0 0 400 400" style="enable-background:new 0 0 402.373 402.373;" width="512" height="512" xmlns="http://www.w3.org/2000/svg">
  <g style="" transform="matrix(1.036869, 0, 0, 0.982229, -8.604046, 2.389273)">
    <path style="fill:#D64394;" d="M201.19,101.666c0,0,28.82,82.72,80.04,108.33c0,0,28.87-52.47,17-115.67   c1.78-0.25,3.6-0.37,5.46-0.37c22.85,0,41.37,18.52,41.37,41.37c0,8.02-2.27,15.49-6.23,21.84c18.77,3.92,32.87,20.56,32.87,40.49   c0,15.44-8.47,28.91-21.01,36.01c8.11,7.55,13.18,18.32,13.18,30.28c0,22.85-18.53,41.38-41.38,41.38c-0.72,0-1.45-0.03-2.16-0.06   c1.39,4.15,2.16,8.6,2.16,13.22c0,22.85-18.52,41.38-41.37,41.38c-5.37,0-10.5-1.04-15.2-2.89c-1.77,21.22-19.54,37.9-41.22,37.9   c-8.73,0-16.84-2.72-23.52-7.33c-6.67,4.61-14.77,7.33-23.51,7.33c-21.67,0-39.45-16.68-41.22-37.9c-4.7,1.85-9.82,2.89-15.19,2.89   c-22.85,0-41.38-18.53-41.38-41.38c0-4.62,0.77-9.07,2.17-13.22c-0.72,0.03-1.44,0.06-2.17,0.06c-22.86,0-41.38-18.53-41.38-41.38   c0-11.96,5.07-22.73,13.18-30.28c-12.54-7.1-21-20.57-21-36.01c0-19.93,14.09-36.57,32.86-40.49c-3.95-6.35-6.23-13.82-6.23-21.84   c0-22.85,18.53-41.37,41.38-41.37c1.85,0,3.66,0.12,5.45,0.37c-11.87,63.2,17,115.67,17,115.67   C172.37,184.386,201.19,101.666,201.19,101.666z"/>
    <g>
      <path style="fill:#BC3987;" d="M208.45,356.976c-4.7,1.85-9.82,2.89-15.19,2.89c-22.85,0-41.38-18.53-41.38-41.38    c0-4.62,0.77-9.07,2.17-13.22c-0.72,0.03-1.44,0.06-2.17,0.06c-22.86,0-41.38-18.53-41.38-41.38c0-11.96,5.07-22.73,13.18-30.28    c-12.54-7.1-21-20.57-21-36.01c0-7.669,2.093-14.846,5.729-21.003c-5.843-21.08-10.279-50.325-4.269-82.326    c-1.79-0.25-3.6-0.37-5.45-0.37c-22.85,0-41.38,18.52-41.38,41.37c0,8.02,2.28,15.49,6.23,21.84    c-18.77,3.92-32.86,20.56-32.86,40.49c0,15.44,8.46,28.91,21,36.01c-8.11,7.55-13.18,18.32-13.18,30.28    c0,22.85,18.52,41.38,41.38,41.38c0.73,0,1.45-0.03,2.17-0.06c-1.4,4.15-2.17,8.6-2.17,13.22c0,22.85,18.53,41.38,41.38,41.38    c5.37,0,10.49-1.04,15.19-2.89c1.77,21.22,19.55,37.9,41.22,37.9c8.74,0,16.84-2.72,23.51-7.33c6.68,4.61,14.79,7.33,23.52,7.33    c4.354,0,8.546-0.683,12.487-1.93C221.508,387.982,209.864,373.934,208.45,356.976z"/>
    </g>
    <path style="fill:#BC3987;" d="M170.237,112.72c5.005-44.121,62.786-56.894,86.373-19.262c0.6,0.962,1.187,1.918,1.756,2.88   c33.015,55.183,24.095,114.403,24.095,114.403c-56.919-6.295-112.593-73.923-112.593-73.923   C169.257,127.77,169.43,119.775,170.237,112.72z"/>
    <path style="fill:#FFFFFF;" d="M319.306,152.496c-1.355,0-2.727-0.367-3.961-1.137c-3.515-2.192-4.587-6.818-2.395-10.333   c1.083-1.737,1.61-3.602,1.61-5.701c0-2.656-0.974-5.215-2.743-7.206c-2.751-3.097-2.47-7.837,0.627-10.588   s7.838-2.469,10.588,0.627c4.209,4.739,6.528,10.836,6.528,17.167c0,4.919-1.306,9.508-3.882,13.638   C324.256,151.244,321.809,152.496,319.306,152.496z"/>
    <path style="fill:#FFFFFF;" d="M339.365,221.152c-2.614,0-5.153-1.369-6.533-3.806c-2.041-3.604-0.773-8.181,2.831-10.222   c3.416-1.934,5.537-5.562,5.537-9.469c0-5.121-3.619-9.593-8.604-10.634c-4.055-0.847-6.655-4.82-5.809-8.875   c0.847-4.055,4.824-6.653,8.875-5.809c11.9,2.485,20.538,13.133,20.538,25.318c0,9.3-5.038,17.93-13.146,22.521   C341.886,220.838,340.616,221.152,339.365,221.152z"/>
    <path style="fill:#FFFFFF;" d="M322.49,289.826c-4.142,0-7.5-3.358-7.5-7.5s3.358-7.5,7.5-7.5c6,0,10.88-4.881,10.88-10.88   c0-3.097-1.197-5.848-3.462-7.956c-3.032-2.822-3.202-7.568-0.38-10.6c2.823-3.032,7.569-3.202,10.6-0.38   c5.315,4.947,8.242,11.672,8.242,18.936C348.37,278.216,336.76,289.826,322.49,289.826z"/>
    <path style="fill:#FFFFFF;" d="M284.968,343.96c-3.46,0-6.571-2.408-7.326-5.928c-0.869-4.05,1.71-8.038,5.76-8.906   c4.976-1.068,8.587-5.542,8.587-10.64c0-1.194-0.196-2.383-0.581-3.536l-1.573-4.696c-1.315-3.928,0.802-8.178,4.73-9.494   c3.929-1.315,8.178,0.802,9.494,4.73l1.573,4.697c0.901,2.691,1.357,5.482,1.357,8.298c0,12.122-8.597,22.765-20.441,25.306   C286.018,343.905,285.489,343.96,284.968,343.96z"/>
    <path style="fill:#FFFFFF;" d="M224.699,379.375c-4.142,0-7.5-3.358-7.5-7.5s3.358-7.5,7.5-7.5c5.606,0,10.361-4.364,10.826-9.935   c0.344-4.128,3.971-7.198,8.097-6.851c4.128,0.344,7.195,3.97,6.851,8.097C249.365,368.97,238.044,379.375,224.699,379.375z"/>
    <path style="fill:#90BC42;" d="M201.19,101.666c0,0-28.82,82.72-80.05,108.33c0,0-28.87-52.47-17-115.67   c0.2-1.1,0.42-2.2,0.65-3.31c8.42-40.21,59.22-50.09,82.58-19.95c1.91,2.44,3.62,5.15,5.12,8.12   C195.69,85.526,198.62,92.966,201.19,101.666z"/>
    <path style="fill:#9AD14B;" d="M201.19,101.666c0,0-28.82,82.72-80.05,108.33c0,0,6.05-53.54,18.05-101.54s40-35,40-35l8.18-2.39   c1.91,2.44,3.62,5.15,5.12,8.12C195.69,85.526,198.62,92.966,201.19,101.666z"/>
    <path style="fill:#9AD14B;" d="M209.88,79.186c19.97-39.66,78.6-31.64,87.7,11.83c0.23,1.11,0.45,2.21,0.65,3.31   c11.87,63.2-17,115.67-17,115.67c-51.22-25.61-80.04-108.33-80.04-108.33C203.75,92.966,206.68,85.526,209.88,79.186z"/>
    <path style="fill:#FFFFFF;" d="M139.188,173.956c-1.826,0-3.657-0.663-5.102-2.004c-3.035-2.819-3.211-7.564-0.393-10.6   c5.564-5.992,14.669-20.243,25.64-40.128c2.001-3.626,6.563-4.946,10.19-2.944c3.626,2.001,4.945,6.563,2.944,10.19   c-11.878,21.531-21.225,36.028-27.781,43.089C143.208,173.15,141.2,173.956,139.188,173.956z"/>
    <path style="fill:#FFFFFF;" d="M281.258,118.842c-3.786,0-7.039-2.858-7.449-6.708c-1.181-11.104-4.57-19.858-4.604-19.946   c-1.509-3.857,0.394-8.208,4.251-9.717c3.859-1.508,8.208,0.395,9.717,4.251c0.169,0.432,4.159,10.739,5.551,23.826   c0.438,4.119-2.546,7.813-6.665,8.251C281.791,118.828,281.523,118.842,281.258,118.842z"/>
    <circle style="fill:#FFFFFF;" cx="175.58" cy="107.458" r="7.5"/>
    <circle style="fill:#FFFFFF;" cx="244.726" cy="333.544" r="7.5"/>
    <path style="" d="M379.198,197.655c0-19.807-12.092-37.466-29.802-45.001c2.086-5.502,3.168-11.366,3.168-17.324   c0-26.78-21.652-48.588-48.369-48.863c-5.726-21.525-23.331-37.088-45.64-40.008c-19.639-2.57-38.261,5.346-49.869,20.552V7.5   c0-4.142-3.358-7.5-7.5-7.5s-7.5,3.358-7.5,7.5v59.51c-11.609-15.206-30.235-23.12-49.869-20.551   c-22.309,2.92-39.913,18.483-45.64,40.008c-26.716,0.275-48.368,22.083-48.368,48.863c0,5.958,1.082,11.822,3.168,17.324   c-17.71,7.536-29.802,25.194-29.802,45.001c0,14.504,6.475,28.14,17.34,37.334c-6.117,8.333-9.512,18.5-9.512,28.956   c0,24.537,18.173,44.909,41.768,48.36c-0.261,2.046-0.392,4.11-0.392,6.182c0,26.95,21.925,48.875,48.875,48.875   c3.143,0,6.254-0.299,9.31-0.892c5.751,20.718,24.952,35.902,47.108,35.902c8.297,0,16.333-2.068,23.51-6.018   c7.186,3.95,15.223,6.018,23.517,6.018c22.156,0,41.357-15.185,47.108-35.902c3.056,0.593,6.167,0.892,9.31,0.892   c26.95,0,48.875-21.925,48.875-48.875c0-2.072-0.131-4.136-0.392-6.182c23.594-3.451,41.768-23.823,41.768-48.36   c0-10.456-3.395-20.624-9.512-28.956C372.723,225.795,379.198,212.159,379.198,197.655z M256.608,61.332   c13.469,1.763,29.376,10.889,33.629,31.215c10.07,48.131-5.258,90.833-12.324,106.981c-39.435-24.777-64.102-85.653-68.819-98.093   c1.966-6.313,4.208-12.088,6.68-17.232c3.455-2.271,13.429-7.94,22.306-4.444c9.758,3.841,16.812,18.061,20.399,41.122   c0.576,3.703,3.768,6.348,7.401,6.348c0.383,0,0.771-0.029,1.162-0.09c4.093-0.636,6.895-4.471,6.258-8.563   c-4.516-29.031-14.517-46.787-29.726-52.773c-2.463-0.97-4.918-1.565-7.33-1.878C243.092,61.121,250.32,60.51,256.608,61.332z    M112.135,92.547c4.252-20.327,20.16-29.453,33.629-31.216c1.689-0.221,3.444-0.339,5.243-0.339c4.9,0,10.112,0.88,15.12,2.93   c-2.411,0.313-4.866,0.909-7.329,1.879c-15.209,5.986-25.21,23.742-29.727,52.773c-0.637,4.093,2.165,7.927,6.258,8.563   c0.391,0.061,0.779,0.09,1.162,0.09c3.633,0,6.826-2.646,7.401-6.348c3.58-23.011,10.613-37.222,20.339-41.098   c8.901-3.545,18.884,2.128,22.367,4.421c2.472,5.146,4.714,10.922,6.679,17.234c-4.707,12.436-29.326,73.305-68.833,98.099   C117.368,183.428,102.032,140.838,112.135,92.547z M345.581,239.16c6.957,6.478,10.789,15.28,10.789,24.786   c0,18.679-15.197,33.875-33.876,33.875c-0.609,0-1.219-0.02-1.818-0.047c-2.474-0.121-4.843,0.998-6.334,2.974   s-1.912,4.561-1.123,6.907c1.178,3.506,1.776,7.151,1.776,10.833c0,18.679-15.196,33.875-33.875,33.875   c-4.272,0-8.46-0.797-12.448-2.369c-2.206-0.871-4.695-0.644-6.71,0.607c-2.015,1.252-3.318,3.384-3.515,5.749   c-1.446,17.396-16.269,31.023-33.745,31.023c-6.917,0-13.577-2.074-19.257-5.997c-2.567-1.772-5.963-1.771-8.529,0.003   c-5.667,3.921-12.321,5.994-19.241,5.994c-17.477,0-32.299-13.627-33.745-31.023c-0.196-2.364-1.5-4.496-3.515-5.749   c-2.015-1.252-4.502-1.479-6.71-0.607c-3.988,1.572-8.176,2.369-12.448,2.369c-18.679,0-33.875-15.196-33.875-33.875   c0-3.682,0.598-7.327,1.776-10.833c0.789-2.347,0.368-4.931-1.123-6.907c-1.492-1.976-3.864-3.095-6.334-2.974   c-0.6,0.028-1.209,0.047-1.818,0.047c-18.679,0-33.876-15.196-33.876-33.875c0-9.505,3.832-18.308,10.789-24.786   c1.749-1.628,2.617-3.993,2.338-6.366c-0.28-2.374-1.673-4.472-3.753-5.649c-10.61-6.009-17.202-17.309-17.202-29.49   c0-15.955,11.313-29.897,26.899-33.151c2.398-0.501,4.401-2.142,5.364-4.395c0.962-2.253,0.764-4.834-0.532-6.914   c-3.334-5.35-5.097-11.528-5.097-17.866c0-17.558,13.428-32.036,30.554-33.711c-8.295,61.062,18.008,109.821,19.204,111.995   c1.362,2.476,3.925,3.887,6.577,3.887c1.128,0,2.273-0.256,3.349-0.793c38.888-19.444,64.951-68.509,76.692-95.025   c11.742,26.516,37.804,75.58,76.692,95.025c1.075,0.538,2.22,0.793,3.349,0.793c2.652,0,5.215-1.412,6.577-3.887   c1.196-2.175,27.499-50.933,19.204-111.995c17.126,1.674,30.555,16.152,30.555,33.711c0,6.338-1.762,12.516-5.097,17.866   c-1.296,2.08-1.494,4.661-0.532,6.914c0.963,2.253,2.965,3.894,5.364,4.395c15.586,3.254,26.899,17.197,26.899,33.151   c0,12.181-6.591,23.48-17.202,29.49c-2.08,1.177-3.473,3.275-3.753,5.649C342.964,235.167,343.832,237.531,345.581,239.16z"/>
  </g>
</svg>