<?xml version="1.0" encoding="utf-8"?>
<svg viewBox="0 0 400 400" width="400" height="400" style="enable-background:new 0 0 512.134 512.134;" xmlns="http://www.w3.org/2000/svg">
  <g transform="matrix(0.775704, 0, 0, 0.775704, 5.509292, 2.143864)" style="">
    <path style="fill: rgb(255, 225, 0);" d="M 251.188 262.23 C 251.188 262.23 177.744 288.853 177.744 344.854 C 177.744 344.854 188.761 473.381 251.188 473.381 C 313.615 473.381 324.632 344.854 324.632 344.854 C 324.632 288.853 251.188 262.23 251.188 262.23"/>
    <path style="fill: rgb(255, 168, 0);" d="M 251.188 262.23 C 251.188 262.23 245.679 264.067 237.417 268.657 C 258.532 279.674 297.09 304.461 297.09 344.854 C 297.09 344.854 287.91 454.102 237.417 470.627 C 242.007 472.463 246.597 473.38 251.188 473.38 C 313.615 473.38 324.632 344.853 324.632 344.853 C 324.632 288.853 251.188 262.23 251.188 262.23"/>
    <path d="M 235.921 142.619 C 232.218 142.619 228.517 139.46 228.517 135.512 C 228.517 134.722 224.814 87.338 198.9 87.338 C 160.399 87.338 148.553 17.844 147.071 9.946 C 146.33 5.208 149.293 1.259 152.994 0.469 C 156.697 -0.321 161.139 2.838 161.879 6.786 C 164.842 24.95 176.688 71.543 198.9 71.543 C 238.142 71.543 243.324 131.562 243.324 133.931 C 243.324 138.67 240.363 142.619 235.921 142.619 C 236.662 142.619 235.921 142.619 235.921 142.619 Z" style=""/>
    <path d="M 265.537 142.619 C 261.094 142.619 258.133 138.67 258.133 133.932 C 258.133 131.563 263.317 71.544 302.557 71.544 C 324.77 71.544 337.356 24.16 339.578 6.788 C 340.318 2.838 344.021 -0.319 348.463 0.47 C 352.166 1.26 355.127 5.208 354.386 9.947 C 352.905 17.845 341.059 87.339 302.557 87.339 C 276.643 87.339 272.941 134.723 272.941 135.513 C 272.941 139.46 269.239 142.619 265.537 142.619 Z" style=""/>
    <g transform="matrix(1.057904, 0, 0, 1.057904, -14.518047, -48.993492)" style="">
      <polygon style="fill:#FFE100;" points="268.518,294.185 233.806,294.185 216.45,198.727 285.874,198.727 &#9;&#9;"/>
      <path style="fill:#FFE100;" d="M285.874,198.727H216.45v-17.356c0-19.092,15.62-34.712,34.712-34.712s34.712,15.62,34.712,34.712 V198.727z"/>
    </g>
    <g transform="matrix(1.057904, 0, 0, 1.057904, -14.518047, -48.993492)" style="">
      <polygon style="fill:#FFA800;" points="268.518,198.727 251.162,294.185 268.518,294.185 285.874,198.727 &#9;&#9;"/>
      <path style="fill:#FFA800;" d="M251.162,146.659c-2.603,0-6.075,0.868-8.678,0.868c14.753,3.471,26.034,17.356,26.034,33.844 v17.356h17.356v-17.356C285.874,162.28,270.253,146.659,251.162,146.659"/>
    </g>
    <path d="M 251.188 482.561 C 181.416 482.561 169.482 351.28 168.563 345.772 C 168.563 283.345 244.761 254.885 248.433 253.967 C 250.269 253.049 253.023 253.049 254.86 253.967 C 258.532 254.885 334.729 283.345 334.729 344.853 C 332.894 351.28 320.959 482.561 251.188 482.561 Z M 251.188 272.328 C 238.335 277.836 186.924 302.623 186.924 344.853 C 189.678 377.903 207.122 464.2 251.188 464.2 C 295.254 464.2 312.696 377.903 315.451 343.936 C 315.451 301.706 264.04 277.836 251.188 272.328 Z" style=""/>
    <path d="M 268.861 271.411 L 232.596 271.411 C 228.063 271.411 224.438 268.657 223.53 264.067 L 205.397 163.081 C 204.49 160.327 205.397 157.573 207.212 155.737 C 209.024 153.902 211.745 152.065 214.464 152.065 L 286.994 152.065 C 289.713 152.065 292.434 152.983 294.247 155.737 C 296.061 157.574 296.966 160.327 296.061 163.081 L 277.927 264.067 C 277.021 268.656 273.394 271.411 268.861 271.411 Z M 239.849 253.05 L 260.7 253.05 L 275.207 170.425 L 224.436 170.425 L 239.849 253.05 Z" style=""/>
    <path d="M 287.91 170.425 L 214.466 170.425 C 208.957 170.425 205.285 166.753 205.285 161.245 L 205.285 142.884 C 205.285 117.179 225.483 96.981 251.188 96.981 C 276.893 96.981 297.09 117.179 297.09 142.884 L 297.09 161.245 C 297.09 166.753 293.418 170.425 287.91 170.425 Z M 223.646 152.064 L 278.729 152.064 L 278.729 142.884 C 278.729 127.276 266.795 115.342 251.188 115.342 C 235.58 115.342 223.646 127.276 223.646 142.884 L 223.646 152.064 Z" style=""/>
    <path d="M 40.037 491.741 C 37.284 491.741 33.611 489.905 31.775 487.151 C 29.939 482.561 30.857 477.052 35.447 474.299 L 96.039 439.413 L 122.662 324.657 C 123.58 321.903 124.498 320.067 126.334 319.148 L 227.319 254.885 C 231.91 252.131 237.418 253.049 240.172 257.639 C 242.925 262.229 242.008 267.737 237.418 270.491 L 139.187 332.918 L 113.48 447.675 C 112.562 450.429 111.644 452.266 108.89 453.184 L 44.627 489.906 C 42.791 491.741 41.873 491.741 40.037 491.741 Z" style=""/>
    <path d="M 223.646 262.23 L 222.728 262.23 L 140.104 253.05 C 137.35 253.05 134.595 251.213 133.677 249.378 L 99.71 197.967 L 40.037 197.967 C 34.529 197.967 30.857 194.295 30.857 188.786 C 30.857 183.278 34.529 179.606 40.037 179.606 L 104.301 179.606 C 107.055 179.606 109.809 181.442 111.645 183.278 L 145.612 234.689 L 223.646 242.951 C 228.236 243.869 231.908 248.459 231.908 253.05 C 231.908 258.558 228.236 262.23 223.646 262.23 Z" style=""/>
    <path d="M 223.646 234.689 C 221.81 234.689 219.974 233.77 218.138 232.852 L 126.333 168.589 C 124.496 166.752 122.661 163.998 122.661 161.245 L 122.661 93.309 L 81.349 68.523 C 76.758 65.769 75.84 60.26 77.677 55.67 C 80.43 51.08 85.939 50.162 90.529 51.998 L 136.432 79.54 C 139.185 81.376 141.022 84.13 141.022 87.802 L 141.022 156.655 L 229.154 218.164 C 233.744 220.918 234.662 226.426 230.99 231.017 C 229.155 233.77 226.4 234.689 223.646 234.689 Z" style=""/>
    <path d="M 462.338 491.741 C 460.501 491.741 459.584 491.741 457.748 490.823 L 393.484 454.101 C 391.648 453.183 389.812 450.429 388.894 448.593 L 362.271 332.919 L 264.04 270.492 C 259.45 267.739 258.532 262.23 261.286 257.64 C 264.041 253.05 269.549 252.131 274.139 254.886 L 375.124 319.15 C 376.961 320.068 378.796 322.821 378.796 324.658 L 405.42 440.331 L 466.011 475.217 C 470.601 477.971 471.519 483.479 469.683 488.069 C 468.765 489.905 465.092 491.741 462.338 491.741 Z" style=""/>
    <path d="M 278.729 262.23 C 274.139 262.23 270.467 258.558 269.549 253.968 C 268.63 249.378 272.302 244.787 277.811 243.869 L 355.845 235.607 L 389.812 184.196 C 391.649 181.442 394.402 180.524 397.156 180.524 L 461.42 180.524 C 466.928 180.524 470.6 184.196 470.6 189.704 C 470.6 195.213 466.928 198.885 461.42 198.885 L 401.746 198.885 L 367.779 250.296 C 365.943 252.132 364.107 253.968 361.353 253.968 L 278.728 263.148 C 279.647 262.23 278.729 262.23 278.729 262.23 Z" style=""/>
    <path d="M 278.729 234.689 C 275.975 234.689 273.221 233.77 271.385 231.017 C 268.631 226.426 269.549 220.918 273.222 218.164 L 361.354 156.655 L 361.354 87.802 C 361.354 84.13 363.19 81.375 365.944 79.54 L 411.846 51.998 C 416.437 49.244 421.945 51.08 424.699 54.752 C 427.452 59.342 425.617 64.851 421.945 67.604 L 379.715 93.309 L 379.715 161.245 C 379.715 163.998 377.878 166.753 376.043 168.589 L 284.238 232.852 C 282.401 233.77 280.565 234.689 278.729 234.689 Z" style=""/>
  </g>
</svg>