<?xml version="1.0" encoding="utf-8"?>
<svg viewBox="0 0 400 400" width="400" height="400" style="enable-background:new 0 0 512.002 512.002;" xmlns="http://www.w3.org/2000/svg">
  <g style="" transform="matrix(0.765324, 0, 0, 0.765324, 4.076818, -0.976501)">
    <polygon style="fill:#1F544A;" points="207.958,100.44 207.958,22.432 231.372,58.956 231.372,101.289 &#9;"/>
    <polyline style="fill:#1F544A;" points="304.513,100.44 304.513,22.432 281.099,58.956 281.099,100.44 304.513,100.44 &#9;"/>
  </g>
  <path style="fill: rgb(50, 135, 119);" d="M 163.232 102.918 L 163.232 75.892 C 163.232 55.486 179.774 38.944 200.18 38.944 C 220.587 38.944 237.129 55.486 237.129 75.892 L 237.129 101.374 L 163.232 102.918 Z"/>
  <path style="opacity: 0.42; fill: rgb(31, 84, 74);" d="M 217.466 42.711 C 220.742 48.226 222.629 54.664 222.629 61.546 L 222.629 68.641 C 222.629 78.857 214.461 87.197 204.247 87.412 L 164.259 88.247 L 164.259 102.919 L 238.155 101.375 L 238.155 75.892 C 238.156 61.322 229.718 48.726 217.466 42.711 Z"/>
  <path style="fill: rgb(62, 172, 146);" d="M 139.575 176.905 L 139.575 143.623 C 139.575 109.725 167.31 81.991 201.208 81.991 C 235.106 81.991 262.84 109.726 262.84 143.623 L 262.84 176.905 L 139.575 176.905 Z"/>
  <path style="opacity: 0.29; fill: rgb(31, 84, 74);" d="M 226.423 87.438 C 234.631 97.91 239.55 111.065 239.55 125.322 L 239.55 133.052 C 239.55 147.164 228.11 158.604 213.998 158.604 L 139.574 158.604 L 139.574 176.905 L 262.84 176.905 L 262.84 143.623 C 262.84 118.7 247.837 97.123 226.423 87.438 Z"/>
  <path style="fill: rgb(50, 135, 119);" d="M 219.024 360.366 L 180.31 360.366 C 147.45 360.366 120.813 333.728 120.813 300.87 L 120.813 179.315 C 120.813 173.704 125.362 169.154 130.974 169.154 L 268.36 169.154 C 273.971 169.154 278.521 173.704 278.521 179.315 L 278.521 300.87 C 278.52 333.728 251.883 360.366 219.024 360.366 Z"/>
  <polygon style="fill: rgb(87, 238, 207);" points="239.974 169.154 199.667 209.464 159.359 169.154"/>
  <path style="opacity: 0.29; fill: rgb(31, 84, 74);" d="M 268.36 169.154 L 199.667 169.154 L 199.667 360.365 L 219.024 360.365 C 251.883 360.365 278.521 333.727 278.521 300.869 L 278.521 179.315 C 278.52 173.703 273.971 169.154 268.36 169.154 Z"/>
  <path d="M 391.821 365.606 L 357.484 355.017 C 350.101 352.741 344.263 347.305 341.468 340.103 L 328.277 306.127 C 323.71 294.362 313.595 285.862 301.218 283.391 L 284.982 280.148 L 284.982 190.942 L 298.942 193.731 C 307.402 195.421 314.317 201.231 317.44 209.273 L 330.63 243.249 C 334.72 253.784 343.258 261.736 354.058 265.066 L 388.396 275.655 C 388.966 275.831 389.543 275.914 390.11 275.914 C 392.594 275.914 394.893 274.31 395.663 271.813 C 396.61 268.745 394.889 265.491 391.821 264.545 L 357.484 253.956 C 350.101 251.68 344.263 246.244 341.468 239.042 L 328.277 205.066 C 323.71 193.301 313.595 184.802 301.218 182.33 L 284.717 179.034 C 283.396 171.664 277.014 166.038 269.302 165.897 L 269.302 146.164 C 269.302 140.462 268.587 134.925 267.25 129.632 L 283.996 126.054 C 295.289 123.641 304.384 115.72 308.324 104.864 L 319.315 74.58 C 324.145 61.269 334.628 51.09 348.076 46.654 L 372.878 38.473 C 375.927 37.468 377.582 34.18 376.578 31.132 C 375.572 28.083 372.285 26.427 369.237 27.433 L 344.435 35.614 C 327.581 41.173 314.441 53.93 308.386 70.614 L 297.396 100.899 C 294.833 107.962 288.915 113.117 281.568 114.686 L 263.395 118.569 C 258.908 108.604 252.07 99.916 243.591 93.218 L 243.591 78.433 L 243.591 18.732 C 243.591 16.151 241.89 13.879 239.413 13.154 C 236.937 12.428 234.279 13.423 232.885 15.595 L 217.767 39.177 C 212.57 36.926 206.845 35.673 200.83 35.673 C 194.816 35.673 189.091 36.927 183.894 39.177 L 168.775 15.595 C 167.382 13.422 164.724 12.428 162.247 13.154 C 159.77 13.879 158.069 16.151 158.069 18.732 L 158.069 78.433 L 158.069 94.91 C 150.339 101.523 144.12 109.849 140.002 119.294 L 118.432 114.686 C 111.085 113.116 105.168 107.961 102.605 100.898 L 91.615 70.613 C 85.56 53.93 72.42 41.173 55.566 35.613 L 30.765 27.432 C 27.717 26.428 24.429 28.082 23.424 31.131 C 22.419 34.18 24.074 37.467 27.123 38.472 L 51.925 46.654 C 65.372 51.09 75.856 61.268 80.687 74.579 L 91.678 104.864 C 95.618 115.72 104.712 123.642 116.006 126.054 L 136.281 130.386 C 135.063 135.45 134.413 140.733 134.413 146.164 L 134.413 165.882 L 131.624 165.882 C 123.826 165.882 117.326 171.502 115.936 178.903 L 98.782 182.33 C 86.407 184.802 76.291 193.3 71.723 205.065 L 58.532 239.041 C 55.736 246.242 49.898 251.679 42.516 253.955 L 8.178 264.544 C 5.111 265.491 3.39 268.745 4.336 271.812 C 5.107 274.309 7.405 275.913 9.89 275.913 C 10.457 275.913 11.035 275.83 11.604 275.654 L 45.942 265.065 C 56.74 261.735 65.28 253.783 69.37 243.249 L 82.56 209.273 C 85.682 201.23 92.598 195.42 101.057 193.73 L 115.65 190.815 L 115.65 280.022 L 98.78 283.391 C 86.404 285.862 76.288 294.362 71.721 306.127 L 58.531 340.102 C 55.735 347.303 49.897 352.74 42.515 355.016 L 8.178 365.606 C 5.111 366.553 3.39 369.806 4.336 372.874 C 5.107 375.371 7.405 376.975 9.89 376.975 C 10.457 376.975 11.035 376.892 11.604 376.716 L 45.942 366.127 C 56.74 362.797 65.28 354.845 69.37 344.31 L 82.56 310.334 C 85.682 302.292 92.598 296.481 101.057 294.792 L 115.65 291.877 L 115.65 303.409 C 115.65 339.421 144.947 368.719 180.959 368.719 L 219.674 368.719 C 255.686 368.719 284.984 339.421 284.984 303.409 L 284.984 292.004 L 298.943 294.792 C 307.404 296.483 314.319 302.292 317.441 310.335 L 330.631 344.311 C 334.721 354.846 343.26 362.797 354.059 366.127 L 388.397 376.716 C 388.967 376.892 389.544 376.976 390.112 376.976 C 392.595 376.976 394.894 375.372 395.665 372.874 C 396.609 369.805 394.89 366.551 391.821 365.606 Z M 231.965 38.57 L 231.965 49.168 C 230.636 47.755 229.217 46.431 227.709 45.209 L 231.965 38.57 Z M 169.695 38.57 L 173.951 45.209 C 172.443 46.431 171.023 47.756 169.695 49.168 L 169.695 38.57 Z M 169.695 78.433 C 169.695 61.265 183.662 47.298 200.829 47.298 C 217.997 47.298 231.964 61.265 231.964 78.433 L 231.964 85.824 C 222.896 81.282 212.671 78.719 201.856 78.719 C 190.217 78.719 179.26 81.683 169.694 86.894 L 169.695 78.433 Z M 146.037 146.164 C 146.037 128.553 154.244 112.832 167.024 102.593 C 167.329 102.397 167.614 102.172 167.877 101.922 C 177.296 94.671 189.078 90.344 201.856 90.344 C 213.806 90.344 224.881 94.131 233.971 100.55 C 234.254 100.796 234.561 101.015 234.888 101.203 C 248.696 111.375 257.676 127.737 257.676 146.164 L 257.676 165.882 L 146.037 165.882 L 146.037 146.164 Z M 200.316 205.313 L 172.511 177.509 L 228.12 177.509 L 200.316 205.313 Z M 127.276 303.41 L 127.276 181.855 C 127.276 179.458 129.226 177.508 131.623 177.508 L 156.071 177.508 L 194.503 215.94 L 194.503 357.093 L 180.959 357.093 C 151.358 357.093 127.276 333.011 127.276 303.41 Z M 219.674 357.093 L 206.129 357.093 L 206.129 215.941 L 244.562 177.509 L 269.009 177.509 C 271.406 177.509 273.356 179.459 273.356 181.856 L 273.356 183.867 C 273.356 183.879 273.356 183.892 273.356 183.905 L 273.356 284.929 C 273.356 284.941 273.356 284.954 273.356 284.967 L 273.356 303.411 C 273.358 333.011 249.275 357.093 219.674 357.093 Z" style=""/>
  <path d="M 201.857 97.742 C 179.502 97.742 161.314 115.929 161.314 138.286 L 161.314 152.672 C 161.314 155.883 163.917 158.485 167.127 158.485 C 170.337 158.485 172.94 155.882 172.94 152.672 L 172.94 138.286 C 172.94 122.341 185.912 109.368 201.856 109.368 C 205.067 109.368 207.669 106.765 207.669 103.556 C 207.669 100.346 205.067 97.742 201.857 97.742 Z" style=""/>
  <path d="M 153.723 291.169 L 153.723 219.951 C 153.723 216.741 151.12 214.139 147.91 214.139 C 144.701 214.139 142.098 216.742 142.098 219.951 L 142.098 291.169 C 142.098 309.379 149.785 326.898 163.191 339.235 C 164.307 340.262 165.719 340.77 167.126 340.77 C 168.695 340.77 170.259 340.139 171.405 338.893 C 173.579 336.531 173.426 332.854 171.064 330.679 C 160.043 320.538 153.723 306.137 153.723 291.169 Z" style=""/>
</svg>