<?xml version="1.0" encoding="utf-8"?>
<svg viewBox="0 0 400 400" width="400" height="400" style="enable-background:new 0 0 512.002 512.002;" xmlns="http://www.w3.org/2000/svg">
  <path style="fill: rgb(54, 117, 150);" d="M 201.722 33.818 C 179.26 33.818 161.05 52.028 161.05 74.49 L 201.724 100.451 L 242.395 74.489 C 242.393 52.028 224.185 33.818 201.722 33.818 Z"/>
  <path style="fill: rgb(148, 0, 68);" d="M 263.044 151.712 L 201.742 381.08 C 203.083 380.596 289.006 349.287 289.006 272.077 L 289.006 151.712 L 263.044 151.712 Z"/>
  <path style="fill: rgb(194, 0, 53);" d="M 201.724 381.09 L 184.416 151.712 L 263.044 151.712 L 263.044 272.077 C 263.044 349.132 202.919 380.476 201.724 381.09 Z"/>
  <path style="fill: rgb(255, 15, 71);" d="M 201.724 151.713 L 140.404 151.713 L 114.442 151.713 L 114.442 272.078 C 114.442 349.288 200.366 380.597 201.707 381.081 C 201.724 381.091 201.724 151.713 201.724 151.713 Z"/>
  <path style="fill: rgb(17, 20, 73);" d="M 250.956 74.486 L 236.313 74.486 L 236.313 189.755 L 250.956 189.755 C 271.967 189.755 289.005 172.723 289.005 151.712 L 289.005 112.537 C 289.006 91.526 271.967 74.486 250.956 74.486 Z"/>
  <path style="fill: rgb(39, 70, 122);" d="M 236.313 74.487 L 167.135 74.487 L 152.483 74.487 C 131.472 74.487 114.441 91.527 114.441 112.537 L 114.441 151.712 C 114.441 172.724 131.473 189.755 152.483 189.755 L 175.615 189.755 C 187.722 189.755 198.003 197.56 201.723 208.412 C 205.435 197.56 215.726 189.755 227.832 189.755 L 236.313 189.755 C 251.077 189.755 263.044 172.723 263.044 151.712 L 263.044 112.537 C 263.044 91.526 251.077 74.487 236.313 74.487 Z"/>
  <path d="M 349.376 184.554 C 347.621 183.343 345.385 183.066 343.391 183.821 L 295.494 201.919 L 295.494 158.203 L 345.685 158.203 C 348.088 158.203 350.293 156.877 351.418 154.755 C 352.544 152.633 352.406 150.062 351.059 148.073 L 334.429 99.571 L 334.429 68.191 C 334.429 64.606 331.522 61.701 327.938 61.701 C 324.354 61.701 321.448 64.606 321.448 68.191 L 321.448 101.562 C 321.448 102.86 321.838 104.128 322.564 105.201 L 335.85 145.221 L 295.493 145.221 L 295.493 112.534 C 295.493 87.976 275.515 67.997 250.958 67.997 L 248.428 67.997 C 246.775 56.051 240.641 45.518 231.772 38.167 L 247.769 14.556 C 249.78 11.587 249.003 7.553 246.036 5.541 C 243.067 3.531 239.033 4.308 237.022 7.274 L 220.721 31.336 C 214.904 28.766 208.481 27.327 201.723 27.327 C 201.723 27.327 201.723 27.327 201.722 27.327 C 195.066 27.327 188.626 28.71 182.712 31.316 L 166.425 7.275 C 164.413 4.309 160.378 3.533 157.411 5.542 C 154.444 7.553 153.667 11.588 155.677 14.556 L 171.663 38.149 C 170.529 39.091 169.429 40.086 168.375 41.14 C 161.017 48.5 156.398 57.863 155.011 67.998 L 152.489 67.998 C 127.932 67.998 107.954 87.977 107.954 112.535 L 107.954 145.222 L 67.594 145.222 L 81.361 104.241 C 82.088 103.167 82.478 101.9 82.478 100.601 L 82.478 67.23 C 82.478 63.645 79.572 60.74 75.988 60.74 C 72.404 60.74 69.497 63.645 69.497 67.23 L 69.497 98.61 L 52.387 148.073 C 51.04 150.061 50.902 152.632 52.028 154.754 C 53.153 156.876 55.359 158.203 57.761 158.203 L 107.953 158.203 L 107.953 201.918 L 60.055 183.82 C 58.06 183.065 55.824 183.34 54.07 184.553 C 52.317 185.765 5.087 240.512 5.087 240.512 C 1.723 244.096 5.109 248.923 8.694 250.365 C 12.278 251.806 15.184 248.42 17.106 245.797 L 59.445 198.323 L 107.95 215.796 L 107.95 243.854 L 57.759 243.854 C 55.756 243.854 53.865 244.778 52.637 246.361 C 51.407 247.941 50.977 250.002 51.469 251.942 L 82.951 344.715 L 82.951 377.274 C 82.951 380.858 85.856 383.763 89.441 383.763 C 93.025 383.763 95.931 380.858 95.931 377.274 L 95.931 343.902 C 95.931 343.363 95.863 342.826 95.73 342.303 L 66.104 256.834 L 107.95 256.834 L 107.95 272.075 C 107.95 305.927 123.881 336.616 154.017 360.822 C 176.431 378.825 198.603 386.865 199.537 387.199 C 200.244 387.452 200.983 387.577 201.722 387.577 C 202.461 387.577 203.201 387.452 203.907 387.199 C 204.84 386.864 227.013 378.824 249.428 360.822 C 279.565 336.616 295.494 305.926 295.494 272.075 L 295.494 256.834 L 337.34 256.834 L 309.636 342.305 C 309.503 342.827 309.435 343.364 309.435 343.903 L 309.435 377.275 C 309.435 380.859 312.341 383.765 315.926 383.765 C 319.509 383.765 322.416 380.859 322.416 377.275 L 322.416 344.715 L 351.976 251.942 C 352.469 250.002 352.038 247.941 350.808 246.361 C 349.578 244.779 347.688 243.854 345.685 243.854 L 295.494 243.854 L 295.494 215.796 L 344.48 198.323 L 381.479 242.996 C 384.361 246.581 386.786 249.967 391.332 248.045 C 395.877 246.123 397.822 243.217 394.939 238.672 C 394.939 238.672 351.129 185.765 349.376 184.554 Z M 120.931 112.535 C 120.931 95.135 135.087 80.978 152.487 80.978 L 169.704 80.978 C 173.288 80.978 176.195 78.074 176.195 74.488 C 176.195 70.904 173.288 67.998 169.704 67.998 L 168.156 67.998 C 169.429 61.342 172.653 55.217 177.552 50.319 C 184.008 43.863 192.591 40.307 201.722 40.307 C 218.35 40.307 232.236 52.246 235.278 67.997 L 195.664 67.997 C 192.081 67.997 189.175 70.903 189.175 74.487 C 189.175 78.073 192.081 80.978 195.664 80.978 L 250.957 80.978 C 268.357 80.978 282.511 95.134 282.511 112.534 L 282.511 151.712 C 282.511 169.112 268.356 183.268 250.957 183.268 L 227.831 183.268 C 217.551 183.268 208.07 187.879 201.722 195.437 C 195.372 187.88 185.893 183.268 175.612 183.268 L 152.487 183.268 C 135.087 183.268 120.931 169.112 120.931 151.712 L 120.931 112.535 Z M 282.512 272.075 C 282.512 302.168 268.744 328.542 241.59 350.466 C 224.753 364.061 207.656 371.693 201.721 374.118 C 195.782 371.69 178.687 364.058 161.853 350.466 C 134.698 328.542 120.93 302.168 120.93 272.075 L 120.93 183.107 C 129.001 191.219 140.166 196.249 152.485 196.249 L 175.611 196.249 C 184.306 196.249 192.062 201.583 195.23 209.61 L 195.23 352.783 C 195.23 356.367 198.136 359.273 201.72 359.273 C 205.305 359.273 208.21 356.367 208.21 352.783 L 208.21 209.61 C 211.379 201.583 219.135 196.249 227.829 196.249 L 250.956 196.249 C 263.275 196.249 274.44 191.219 282.51 183.107 L 282.51 272.075 L 282.512 272.075 Z" style=""/>
</svg>