<?xml version="1.0" encoding="utf-8"?>
<svg version="1.1" id="Layer_1" x="0px" y="0px" viewBox="0 0 400 400" style="enable-background:new 0 0 511.999 511.999;" xmlns="http://www.w3.org/2000/svg">
  <polygon style="fill: rgb(117, 206, 223);" points="331.303 207.08 68.698 207.08 100.698 387.666 299.301 387.666"/>
  <g style="" transform="matrix(0.906343, 0, 0, 0.858709, -32.023792, -45.066292)">
    <polygon style="fill: rgb(23, 141, 165);" points="287.99,293.635 224.012,293.635 231.737,503.933 280.263,503.933 &#9;"/>
    <polygon style="fill: rgb(23, 141, 165);" points="400.654,293.635 368.881,293.635 341.627,503.933 365.727,503.933 &#9;"/>
    <polygon style="fill: rgb(23, 141, 165);" points="111.344,293.635 143.112,293.635 170.371,503.933 146.273,503.933 &#9;"/>
  </g>
  <path style="fill: rgb(255, 82, 255);" d="M 339.414 152.189 C 319.721 97.155 264.743 57.548 200.001 57.548 C 135.259 57.548 80.28 97.155 60.584 152.189 C 36.083 157.139 17.699 177.755 17.699 202.448 C 17.699 230.832 41.986 253.842 71.945 253.842 C 89.279 253.842 104.7 246.131 114.629 234.142 C 124.561 246.131 139.984 253.842 157.315 253.842 C 174.648 253.842 190.07 246.131 200.001 234.142 C 209.932 246.131 225.352 253.842 242.684 253.842 C 260.018 253.842 275.441 246.131 285.369 234.142 C 295.302 246.131 310.724 253.842 328.056 253.842 C 358.015 253.842 382.301 230.831 382.301 202.448 C 382.301 177.755 363.918 157.138 339.414 152.189 Z"/>
  <g style="" transform="matrix(0.906343, 0, 0, 0.858709, -32.023792, -45.066292)">
    <circle style="fill: rgb(0, 188, 69);" cx="153.691" cy="211.708" r="16.679"/>
    <circle style="fill: rgb(0, 188, 69);" cx="319.772" cy="303.025" r="16.68"/>
    <circle style="fill: rgb(0, 188, 69);" cx="337.433" cy="168.147" r="16.679"/>
    <circle style="fill: rgb(0, 188, 69);" cx="243.244" cy="257.431" r="16.678"/>
  </g>
  <g style="" transform="matrix(0.906343, 0, 0, 0.858709, -32.023792, -45.066292)">
    <circle style="fill: rgb(247, 255, 25);" cx="92.146" cy="266.842" r="16.679"/>
    <circle style="fill: rgb(247, 255, 25);" cx="200.909" cy="165.199" r="16.679"/>
    <circle style="fill: rgb(247, 255, 25);" cx="349.716" cy="235.65" r="16.68"/>
  </g>
  <g style="" transform="matrix(0.906343, 0, 0, 0.858709, -32.023792, -45.066292)">
    <circle style="fill: rgb(164, 60, 255);" cx="174.568" cy="288.236" r="16.679"/>
    <circle style="fill: rgb(164, 60, 255);" cx="418.382" cy="265.423" r="16.679"/>
    <circle style="fill: rgb(164, 60, 255);" cx="279.201" cy="200.694" r="16.678"/>
  </g>
  <path style="" d="M 188.441 154.738 C 176.074 154.738 166.013 164.271 166.013 175.988 C 166.013 187.705 176.074 197.238 188.441 197.238 C 200.807 197.238 210.868 187.705 210.868 175.988 C 210.868 164.271 200.807 154.738 188.441 154.738 Z M 188.441 183.384 C 184.137 183.384 180.635 180.066 180.635 175.988 C 180.635 171.91 184.138 168.593 188.441 168.593 C 192.745 168.593 196.245 171.91 196.245 175.988 C 196.245 180.065 192.745 183.384 188.441 183.384 Z M 284.945 136.042 C 272.576 136.042 262.515 145.575 262.515 157.291 C 262.515 169.009 272.576 178.541 284.945 178.541 C 297.314 178.541 307.375 169.009 307.375 157.291 C 307.374 145.575 297.313 136.042 284.945 136.042 Z M 284.945 164.687 C 280.64 164.687 277.139 161.37 277.139 157.291 C 277.139 153.213 280.641 149.896 284.945 149.896 C 289.25 149.896 292.752 153.214 292.752 157.291 C 292.751 161.369 289.25 164.687 284.945 164.687 Z M 257.801 193.895 C 245.434 193.895 235.372 203.427 235.372 215.144 C 235.372 226.861 245.433 236.393 257.801 236.393 C 270.17 236.393 280.232 226.861 280.232 215.144 C 280.232 203.427 270.169 193.895 257.801 193.895 Z M 257.801 222.54 C 253.497 222.54 249.996 219.222 249.996 215.146 C 249.996 211.068 253.498 207.751 257.801 207.751 C 262.107 207.751 265.609 211.069 265.609 215.146 C 265.61 219.222 262.107 222.54 257.801 222.54 Z M 129.702 136.73 C 129.702 125.013 119.642 115.48 107.276 115.48 C 94.908 115.48 84.846 125.013 84.846 136.73 C 84.846 148.448 94.908 157.981 107.276 157.981 C 119.642 157.98 129.702 148.447 129.702 136.73 Z M 99.47 136.73 C 99.47 132.653 102.973 129.335 107.277 129.335 C 111.58 129.335 115.081 132.653 115.081 136.73 C 115.081 140.809 111.58 144.127 107.277 144.127 C 102.972 144.126 99.47 140.808 99.47 136.73 Z M 344.998 146.375 C 323.528 91.105 269.228 53.544 207.311 50.791 L 192.688 50.791 C 130.772 53.545 76.472 91.106 55 146.375 C 28.914 153.453 10.388 176.427 10.388 202.448 C 10.388 234.239 37.381 260.154 70.792 260.742 L 93.487 388.812 C 94.078 392.147 97.126 394.591 100.697 394.591 L 299.301 394.591 C 302.872 394.591 305.92 392.147 306.511 388.812 L 329.207 260.742 C 362.618 260.155 389.612 234.24 389.612 202.448 C 389.613 176.427 371.086 153.451 344.998 146.375 Z M 354.982 182.854 C 354.982 186.932 351.479 190.249 347.177 190.249 C 342.873 190.249 339.371 186.932 339.371 182.854 C 339.371 178.776 342.873 175.459 347.177 175.459 C 351.48 175.457 354.982 178.775 354.982 182.854 Z M 273.812 91.926 C 278.116 91.926 281.616 95.243 281.616 99.321 C 281.616 103.399 278.115 106.716 273.812 106.716 C 269.508 106.716 266.006 103.399 266.006 99.321 C 266.006 95.243 269.508 91.926 273.812 91.926 Z M 51.493 176.676 C 55.796 176.676 59.297 179.993 59.297 184.072 C 59.297 188.15 55.796 191.467 51.493 191.467 C 47.187 191.467 43.685 188.149 43.685 184.072 C 43.684 179.994 47.187 176.676 51.493 176.676 Z M 106.882 380.738 L 85.375 259.366 C 89.376 258.525 93.258 257.314 96.971 255.749 L 114.071 380.738 L 106.882 380.738 Z M 128.816 380.738 L 110.63 247.809 C 112.006 246.75 113.346 245.641 114.63 244.463 C 126.039 254.908 141.188 260.769 157.316 260.769 C 160.164 260.769 162.98 260.576 165.752 260.217 L 170.425 380.736 L 128.816 380.736 L 128.816 380.738 Z M 214.944 380.738 L 185.059 380.738 L 180.245 256.6 C 187.544 253.826 194.249 249.73 200.002 244.463 C 205.753 249.73 212.457 253.827 219.758 256.6 L 214.944 380.738 Z M 229.576 380.738 L 234.251 260.218 C 237.022 260.577 239.836 260.77 242.684 260.77 C 258.816 260.77 273.963 254.909 285.37 244.464 C 286.655 245.64 287.992 246.748 289.368 247.807 L 271.184 380.738 L 229.576 380.738 Z M 293.115 380.738 L 285.927 380.738 L 303.025 255.747 C 306.74 257.313 310.622 258.525 314.624 259.365 L 293.115 380.738 Z M 328.056 246.915 C 313.56 246.915 300.097 240.7 291.121 229.866 C 289.735 228.193 287.614 227.215 285.369 227.215 C 283.124 227.215 281.004 228.193 279.618 229.866 C 270.646 240.701 257.182 246.915 242.684 246.915 C 228.19 246.915 214.727 240.7 205.751 229.866 C 204.366 228.193 202.245 227.215 200.001 227.215 C 197.756 227.215 195.633 228.193 194.249 229.866 C 185.274 240.701 171.81 246.915 157.315 246.915 C 142.82 246.915 129.358 240.7 120.379 229.865 C 118.993 228.193 116.871 227.215 114.628 227.215 C 112.382 227.215 110.263 228.193 108.877 229.866 C 99.904 240.701 86.443 246.915 71.945 246.915 C 46.064 246.915 25.011 226.966 25.011 202.448 C 25.011 196.107 26.46 190.007 29.072 184.461 C 29.293 195.999 39.262 205.32 51.492 205.32 C 63.858 205.32 73.918 195.788 73.918 184.071 C 73.918 172.353 63.858 162.821 51.492 162.821 C 51.199 162.821 50.912 162.831 50.624 162.841 C 54.199 161.103 58.048 159.783 62.108 158.964 C 64.628 158.455 66.68 156.727 67.507 154.413 C 85.973 102.815 135.715 67.461 192.687 64.661 L 207.31 64.659 C 227.925 65.673 247.591 70.947 265.175 79.711 C 257.083 82.923 251.383 90.502 251.383 99.321 C 251.383 111.039 261.444 120.571 273.812 120.571 C 285.68 120.571 295.418 111.791 296.185 100.728 C 312.363 115.225 325.001 133.483 332.491 154.414 C 333.318 156.727 335.37 158.457 337.89 158.965 C 340.927 159.578 343.842 160.479 346.617 161.616 C 334.509 161.9 324.749 171.314 324.749 182.853 C 324.749 194.571 334.81 204.103 347.177 204.103 C 359.545 204.103 369.607 194.571 369.607 182.853 C 369.607 182.51 369.595 182.169 369.579 181.83 C 373.04 188.051 374.991 195.087 374.991 202.447 C 374.99 226.967 353.935 246.915 328.056 246.915 Z M 126.189 181.198 C 113.823 181.198 103.763 190.73 103.763 202.448 C 103.763 214.164 113.823 223.697 126.189 223.697 C 138.556 223.697 148.619 214.164 148.619 202.448 C 148.619 190.73 138.556 181.198 126.189 181.198 Z M 126.189 209.843 C 121.887 209.843 118.385 206.525 118.385 202.448 C 118.385 198.37 121.887 195.052 126.189 195.052 C 130.494 195.052 133.996 198.371 133.996 202.448 C 133.997 206.526 130.494 209.843 126.189 209.843 Z M 243.459 127.268 C 243.459 115.552 233.399 106.018 221.032 106.018 C 208.666 106.018 198.604 115.552 198.604 127.268 C 198.604 138.985 208.665 148.518 221.032 148.518 C 233.399 148.518 243.459 138.984 243.459 127.268 Z M 221.032 134.664 C 216.728 134.664 213.227 131.346 213.227 127.269 C 213.227 123.192 216.728 119.874 221.032 119.874 C 225.335 119.874 228.837 123.192 228.837 127.269 C 228.837 131.346 225.335 134.664 221.032 134.664 Z M 150.069 75.546 C 137.701 75.546 127.64 85.078 127.64 96.795 C 127.64 108.513 137.701 118.045 150.069 118.045 C 162.436 118.045 172.497 108.513 172.497 96.795 C 172.497 85.078 162.436 75.546 150.069 75.546 Z M 150.069 104.19 C 145.765 104.19 142.263 100.872 142.263 96.795 C 142.263 92.718 145.766 89.4 150.069 89.4 C 154.373 89.4 157.874 92.718 157.874 96.795 C 157.874 100.872 154.373 104.19 150.069 104.19 Z"/>
  <path style="fill: rgb(255, 25, 25);" d="M 234.955 39.434 C 234.955 25.324 207.408 10.353 207.408 10.353 C 207.408 10.353 181.024 25.324 181.024 39.434 C 181.024 53.545 193.096 64.984 207.99 64.984 C 222.884 64.984 234.955 53.544 234.955 39.434 Z"/>
  <path style="" d="M 207.125 75.045 C 227.161 75.045 243.761 60.653 245.209 41.717 C 246.374 26.488 235.954 5.408 207.706 5.408 C 179.458 5.408 170.784 35.866 170.784 40.614 C 170.784 59.599 187.087 75.045 207.125 75.045 Z M 207.125 18.253 C 224.131 21.121 232.156 29.623 230.537 40.613 C 228.208 56.424 216.824 60.04 207.125 60.04 C 197.425 60.04 186.04 50.908 186.04 41.717 C 186.04 36.135 191.863 20.018 207.125 18.253 Z"/>
</svg>