<?xml version="1.0" encoding="utf-8"?>
<svg version="1.1" id="Layer_1" x="0px" y="0px" viewBox="0 0 400 400" style="enable-background:new 0 0 413.953 413.953;" width="512" height="512" xmlns="http://www.w3.org/2000/svg">
  <g style="" transform="matrix(0.942397, 0, 0, 0.942397, 4.947393, 4.945506)">
    <path style="fill:#9AD14B;" d="M330.81,7.5c0,30.1-12.2,57.34-31.92,77.06c-19.73,19.72-46.97,31.92-77.07,31.92   C221.82,56.29,270.62,7.5,330.81,7.5z"/>
    <path style="fill:#F95428;" d="M206.97,276.56c10.63-16.27,26.2-26.54,43.54-26.54c12.44,0,23.95,5.3,33.4,14.29   c9.44-8.99,20.95-14.29,33.39-14.29c32.04,0,58,35.02,58,78.22c0,43.19-25.96,78.21-58,78.21c-1.86,0-3.71-0.12-5.53-0.35   c-18.53-2.37-37.2-2.37-55.73,0c-1.82,0.23-3.66,0.35-5.53,0.35c-17.34,0-32.91-10.27-43.53-26.54   c-9.01-13.78-14.47-31.86-14.47-51.67C192.51,308.43,197.97,290.34,206.97,276.56z"/>
    <g>
      <path style="fill:#E54728;" d="M257.977,379.91c-9.01-13.78-14.47-31.86-14.47-51.67s5.46-37.9,14.46-51.68    c5.017-7.679,11.135-14.02,18.02-18.577c-7.692-5.09-16.331-7.963-25.478-7.963c-17.34,0-32.91,10.27-43.54,26.54    c-9,13.78-14.46,31.87-14.46,51.68s5.46,37.89,14.47,51.67c10.62,16.27,26.19,26.54,43.53,26.54c1.87,0,3.71-0.12,5.53-0.35    c10.711-1.37,21.468-1.922,32.219-1.708C276.325,400.629,265.805,391.903,257.977,379.91z"/>
    </g>
    <path style="fill:#F95428;" d="M206.98,379.91c-3.51,5.36-7.54,10.07-12,13.97c-9.08,7.96-19.9,12.57-31.53,12.57   c-1.88,0-3.72-0.11-5.53-0.35c-18.53-2.37-37.21-2.37-55.73,0c-1.82,0.24-3.67,0.35-5.53,0.35c-32.04,0-58.01-35.01-58.01-78.22   c0-43.19,25.97-78.2,58.01-78.2c12.43,0,23.95,5.29,33.39,14.28c9.45-8.99,20.95-14.28,33.4-14.28c11.63,0,22.45,4.61,31.52,12.56   c4.46,3.9,8.5,8.61,12,13.97c-9,13.78-14.46,31.87-14.46,51.68S197.97,366.13,206.98,379.91z"/>
    <g>
      <path style="fill:#E54728;" d="M104.117,379.91c-9.01-13.78-14.47-31.86-14.47-51.67s5.46-37.9,14.46-51.68    c5.017-7.679,11.135-14.02,18.02-18.577c-7.692-5.09-16.331-7.963-25.478-7.963c-17.34,0-32.91,10.27-43.54,26.54    c-9,13.78-14.46,31.87-14.46,51.68s5.46,37.89,14.47,51.67c10.62,16.27,26.19,26.54,43.53,26.54c1.87,0,3.71-0.12,5.53-0.35    c10.711-1.37,21.468-1.922,32.219-1.708C122.465,400.629,111.945,391.903,104.117,379.91z"/>
    </g>
    <path style="fill:#E54728;" d="M206.98,379.91c-3.51,5.36-7.54,10.07-12,13.97c-4.46-3.9-8.5-8.61-12-13.97   c-9.01-13.78-14.47-31.86-14.47-51.67s5.46-37.9,14.46-51.68c3.5-5.36,7.54-10.07,12-13.97c4.46,3.9,8.5,8.61,12,13.97   c-9,13.78-14.46,31.87-14.46,51.68S197.97,366.13,206.98,379.91z"/>
    <path style="fill:#FFFFFF;" d="M350.573,352.245c-0.519,0-1.045-0.055-1.573-0.167c-4.051-0.865-6.633-4.85-5.769-8.9   c1.042-4.878,1.569-9.903,1.569-14.938c0-22.068-12.013-47.721-27.5-47.721c-4.142,0-7.5-3.357-7.5-7.5s3.358-7.5,7.5-7.5   c23.038,0,42.5,28.723,42.5,62.721c0,6.085-0.639,12.164-1.899,18.068C357.148,349.832,354.035,352.245,350.573,352.245z"/>
    <path style="fill:#90BC42;" d="M330.81,7.5L221.82,116.48C221.82,56.29,270.62,7.5,330.81,7.5z"/>
    <circle style="fill:#FFFFFF;" cx="162.146" cy="271.047" r="7.5"/>
    <circle style="fill:#FFFFFF;" cx="341.928" cy="367.234" r="7.5"/>
    <path style="" d="M 364.339 268.464 C 351.934 251.735 335.229 242.523 317.301 242.523 C 307.71 242.523 298.427 245.185 289.916 250.304 C 287.394 232.935 280.73 201.072 263.455 166.688 C 255.53 150.914 246.222 136.378 235.641 123.16 C 293.38 116.304 338.306 67.054 338.306 7.5 C 338.306 3.357 334.948 0 330.806 0 C 271.841 0 222.974 44.042 215.36 100.958 C 211.914 109.777 210.441 108.947 207.296 114.026 C 179.599 133.181 156.539 163.813 140.263 203.246 C 132.255 222.647 127.57 239.967 125.067 250.948 C 116.276 245.416 106.633 242.528 96.654 242.528 C 78.725 242.528 62.019 251.74 49.613 268.466 C 37.706 284.521 31.149 305.747 31.149 328.236 C 31.149 350.729 37.707 371.959 49.613 388.015 C 62.018 404.743 78.724 413.954 96.654 413.954 C 98.836 413.954 101.02 413.815 103.135 413.542 C 120.995 411.26 139.107 411.259 156.956 413.541 C 159.081 413.815 161.265 413.954 163.447 413.954 C 179.652 413.954 195.093 406.205 206.985 392.382 C 218.948 406.323 234.218 413.953 250.509 413.953 C 252.669 413.953 254.849 413.814 256.992 413.541 C 274.849 411.256 292.958 411.256 310.819 413.541 C 312.96 413.814 315.14 413.953 317.299 413.953 C 335.227 413.953 351.932 404.74 364.337 388.012 C 376.244 371.956 382.801 350.728 382.801 328.239 C 382.801 305.75 376.246 284.52 364.339 268.464 Z M 323.01 15.297 C 319.212 65.052 279.376 104.888 229.62 108.686 C 233.418 58.931 273.254 19.095 323.01 15.297 Z M 217.707 125.093 C 230.129 139.266 240.874 155.258 249.795 172.914 C 264.932 202.872 271.549 231.287 274.382 248.353 C 266.853 244.512 258.797 242.522 250.51 242.522 C 234.218 242.522 218.947 250.153 206.984 264.096 C 195.092 250.275 179.652 242.526 163.448 242.526 C 155.809 242.526 148.367 244.221 141.353 247.493 C 143.951 237.34 148.03 223.744 154.129 208.967 C 165.109 182.369 184.918 146.872 217.707 125.093 Z M 163.448 398.953 C 161.906 398.953 160.368 398.855 158.868 398.662 C 139.746 396.219 120.356 396.22 101.225 398.663 C 99.734 398.855 98.197 398.953 96.654 398.953 C 68.805 398.953 46.149 367.228 46.149 328.234 C 46.149 289.246 68.806 257.526 96.654 257.526 C 106.721 257.526 116.482 261.751 124.881 269.744 C 127.777 272.5 132.325 272.5 135.222 269.744 C 143.621 261.751 153.382 257.526 163.448 257.526 C 176.255 257.526 188.642 264.532 198.008 276.876 C 189.585 291.61 185.008 309.479 185.008 328.237 C 185.008 346.996 189.585 364.866 198.009 379.601 C 188.644 391.946 176.256 398.953 163.448 398.953 Z M 317.301 398.952 C 315.775 398.952 314.233 398.854 312.722 398.661 C 303.16 397.437 293.534 396.826 283.905 396.826 C 274.279 396.826 264.65 397.437 255.091 398.661 C 253.578 398.854 252.037 398.952 250.51 398.952 C 235.991 398.952 222.893 390.317 213.672 376.535 C 213.417 376.029 213.108 375.546 212.737 375.102 C 204.826 362.615 200.008 346.202 200.008 328.236 C 200.008 289.244 222.663 257.521 250.51 257.521 C 260.576 257.521 270.336 261.746 278.735 269.739 C 281.631 272.495 286.179 272.494 289.076 269.738 C 297.474 261.746 307.234 257.521 317.301 257.521 C 345.148 257.521 367.803 289.244 367.803 328.236 C 367.803 367.228 345.148 398.952 317.301 398.952 Z"/>
  </g>
</svg>