<?xml version="1.0" encoding="utf-8"?>
<svg version="1.1" id="Layer_1" x="0px" y="0px" viewBox="0 0 400 400" style="enable-background:new 0 0 512 512;" xmlns="http://www.w3.org/2000/svg">
  <g style="" transform="matrix(0.759097, 0, 0, 0.759097, 5.671289, 5.670787)">
    <g>
      <path style="fill: rgb(228, 148, 37);" d="M115.527,113.921c9.246-21.881,20.548-42.62,35.725-59.62c6.139-6.879,12.719-12.927,19.766-18.163 c-4.481-2.736-9.57-4.787-15.112-6.033c-13.198-2.966-40.17-3.664-72.501,24.978c-14.81,13.12-36.75,38.129-52.366,64.418 C9.901,155.093,5.193,183.884,17.046,205.08c14.472,25.872,36.423,32.503,54.145,34.137c4.116-15.989,9.723-30.919,15.972-47.546 c4.338-11.542,8.82-23.482,13.472-37.457C105.115,140.746,109.949,127.125,115.527,113.921z"/>
      <path style="fill: rgb(228, 148, 37);" d="M256,333.579c-18.291,0-34.641-14.37-40.824-20.548c-6.203-6.199-20.637-22.627-20.637-41.194 c0-15.187,7.567-26.735,21.301-32.51c9.153-3.856,20.79-5.429,40.159-5.429c19.369,0,31.003,1.574,40.159,5.429 c13.736,5.775,21.299,17.321,21.299,32.51c0,18.567-14.43,34.994-20.635,41.194C290.642,319.21,274.29,333.579,256,333.579 L256,333.579z M171.02,36.138c-7.048,5.236-13.628,11.285-19.766,18.163c-15.178,17-26.479,37.739-35.728,59.62 c-5.576,13.205-10.409,26.827-14.89,40.293c-4.652,13.976-9.134,25.914-13.472,37.457c-6.247,16.63-11.855,31.559-15.972,47.546 c-4.356,16.916-7.04,35.014-7.04,57.56c0,25.175,4.824,47.388,14.37,66.213c1.782,3.53,3.735,6.94,5.852,10.226 c11.802,18.311,28.785,32.974,50.485,43.583c36.86,18.016,80.609,21.382,112.914,21.807L256,426.703l8.697,11.896 c32.258-0.451,75.767-3.872,112.443-21.801c21.698-10.609,38.686-25.272,50.479-43.583c2.117-3.286,4.073-6.694,5.861-10.226 c9.539-18.823,14.367-41.036,14.367-66.213c0-22.547-2.686-40.645-7.045-57.56c-4.115-15.987-9.726-30.916-15.975-47.546 c-4.331-11.542-8.82-23.482-13.47-37.457c-11.904-35.78-26.279-72.654-50.614-99.913c-6.139-6.879-12.721-12.929-19.771-18.161 C317.938,19.042,289.908,10.679,256,10.679C222.091,10.679,194.059,19.042,171.02,36.138z"/>
      <path style="fill: rgb(228, 148, 37);" d="M411.361,154.214c4.65,13.976,9.139,25.914,13.47,37.457c6.247,16.63,11.859,31.559,15.975,47.546 c17.723-1.634,39.677-8.266,54.148-34.137c11.854-21.197,7.147-49.987-13.996-85.579c-15.616-26.289-37.556-51.293-52.365-64.418 c-32.33-28.64-59.302-27.944-72.503-24.978c-5.542,1.246-10.633,3.297-15.114,6.035c7.05,5.232,13.632,11.283,19.771,18.161 C385.081,81.56,399.457,118.434,411.361,154.214z"/>
    </g>
    <g>
      <path style="fill: rgb(67, 67, 67);" d="M296.159,239.327c-9.155-3.856-20.788-5.429-40.159-5.429c-19.367,0-31.005,1.574-40.159,5.429 c-13.734,5.775-21.301,17.321-21.301,32.51c0,18.567,14.433,34.994,20.637,41.194c6.182,6.179,22.533,20.548,40.824,20.548 c18.289,0,34.641-14.37,40.824-20.548c6.204-6.199,20.635-22.627,20.635-41.194C317.458,256.648,309.895,245.102,296.159,239.327z "/>
      <path style="fill: rgb(66, 97, 125);" d="M247.772,438.606c-32.305-0.426-76.054-3.792-112.914-21.807 c-21.699-10.609-38.683-25.272-50.485-43.583c-2.117-3.286-4.07-6.694-5.852-10.226c-4.683,99.531,73.119,115.872,153.173,118.037 l-0.018-6.289l-14.908-19.535l25.258-8.289L247.772,438.606z"/>
      <path style="fill: rgb(66, 97, 125);" d="M264.697,438.598l6.993,9.565l23.54,7.04l-15.562,21.553l0.1,4.284 c80.242-2.105,158.405-18.295,153.714-118.051c-1.788,3.53-3.745,6.94-5.861,10.226c-11.795,18.311-28.782,32.974-50.479,43.583 C340.464,434.727,296.956,438.147,264.697,438.598z"/>
    </g>
    <polygon style="fill: rgb(176, 176, 176);" points="271.69,448.163 264.697,438.598 256,426.702 247.772,438.606 242.027,446.914 &#10;&#9;&#9;216.77,455.204 231.677,474.738 231.695,481.027 231.754,501.322 254.938,493.184 280.246,501.322 279.768,481.04 279.669,476.757 &#10;&#9;&#9;295.23,455.204 &#9;"/>
  </g>
  <g style="" transform="matrix(0.759097, 0, 0, 0.759097, 5.671289, 5.670787)">
    <path style="fill:#000003;" d="M57.431,158.218c-5.634-1.722-11.6,1.445-13.325,7.077l-0.141,0.456 c-1.702,5.641,1.493,11.593,7.135,13.294c1.026,0.31,2.063,0.457,3.084,0.457c4.583,0,8.82-2.978,10.21-7.592l0.114-0.368 C66.233,165.909,63.064,159.943,57.431,158.218z"/>
    <path style="fill:#000003;" d="M490.129,114.051c-16.201-27.268-39.025-53.275-54.461-66.955 c-35.885-31.786-66.727-30.81-81.917-27.401c-4.178,0.939-8.17,2.267-11.936,3.964C318.063,7.795,289.712,0.01,256,0.01 c-33.716,0-62.069,7.785-85.818,23.649c-3.765-1.696-7.757-3.024-11.936-3.963c-15.19-3.413-46.03-4.387-81.916,27.402 c-15.435,13.675-38.259,39.681-54.462,66.956c-23.223,39.098-27.978,71.478-14.131,96.238 c11.271,20.149,28.21,32.785,50.447,37.691c-2.959,14.425-4.7,30.115-4.7,48.795c0,25.773,4.799,48.737,14.275,68.501 c-1.148,35.333,7.828,63.544,26.71,83.879c30.39,32.728,82.124,40.244,126.586,42.169l0.031,10.027 c0.011,3.453,1.692,6.688,4.512,8.681c2.821,1.993,6.432,2.497,9.69,1.353l19.798-6.949l21.896,7.04 c1.069,0.344,2.17,0.512,3.265,0.512c2.273,0,4.517-0.727,6.385-2.122c2.766-2.066,4.362-5.345,4.281-8.797l-0.229-9.733 c44.604-1.913,96.421-9.436,126.824-42.152c18.902-20.34,27.888-48.566,26.738-83.92c9.475-19.76,14.273-42.72,14.273-68.489 c0-18.68-1.742-34.37-4.702-48.796c22.236-4.906,39.176-17.542,50.449-37.692C518.109,185.53,513.353,153.151,490.129,114.051z M352.789,61.406c23.046,25.816,36.906,61.481,48.449,96.176c4.658,13.998,9.127,25.905,13.447,37.419l0.162,0.433 c12.477,33.205,22.333,59.433,22.333,101.343c0,27.811-6.233,51.584-18.53,70.661c-10.723,16.649-26.265,30.031-46.195,39.776 c-26.114,12.765-59.66,19.521-102.42,20.609l-3.367-4.604v-80.204c17.507-3.959,31.741-16.488,37.698-22.438 c7.145-7.139,23.762-26.18,23.762-48.741c0-19.475-10.146-34.909-27.826-42.341c-10.562-4.451-23.397-6.267-44.301-6.267 c-20.907,0-33.742,1.816-44.293,6.262c-17.691,7.435-27.838,22.869-27.838,42.344c0,22.564,16.621,41.603,23.766,48.739 c5.951,5.949,20.18,18.481,37.696,22.44v80.357l-3.081,4.457c-42.904-1.07-76.547-7.829-102.707-20.617 c-19.926-9.742-35.471-23.126-46.204-39.777c-12.29-19.076-18.521-42.849-18.521-70.66c0-41.915,9.851-68.141,22.329-101.353 c4.145-11.026,8.841-23.523,13.609-37.841c11.55-34.701,25.414-70.371,48.456-96.179c24.054-26.955,55.713-40.056,96.789-40.056 C297.069,21.347,328.729,34.45,352.789,61.406z M256,322.911c-14.702,0-29.19-13.339-33.282-17.428 c-4.109-4.103-17.511-18.657-17.511-33.647c0-10.928,4.968-18.557,14.778-22.679c7.739-3.261,18.174-4.592,36.016-4.592 c17.843,0,28.276,1.33,36.025,4.596c9.8,4.118,14.767,11.747,14.767,22.675c0,14.988-13.401,29.544-17.505,33.646 C285.192,309.571,270.692,322.911,256,322.911z M26.358,199.876c-9.862-17.636-5.201-42.845,13.854-74.927 c15.026-25.295,36.074-49.306,50.266-61.88c26.192-23.2,47.681-24.936,59.782-23.163c-2.376,2.331-4.7,4.753-6.965,7.291 c-14.606,16.359-25.72,35.769-34.855,56.264c-18.568,2.315-36.588,17.434-48.129,32.174c-3.633,4.64-2.818,11.345,1.821,14.976 c1.952,1.529,4.269,2.27,6.571,2.27c3.167,0,6.302-1.404,8.407-4.091c6.342-8.1,13.698-14.715,20.726-18.988 c-2.572,7.009-4.996,14.047-7.324,21.042c-4.639,13.932-9.06,25.696-13.34,37.085c-5.163,13.743-9.898,26.361-13.759,39.357 C46.717,223.816,34.803,214.973,26.358,199.876z M110.104,434.639c-8.841-9.521-14.859-21.162-18.144-35.15 c10.652,10.662,23.43,19.666,38.212,26.894c21.915,10.711,48.167,17.589,79.585,20.803c-1.464,1.281-2.583,2.943-3.176,4.854 c-1.024,3.299-0.387,6.889,1.707,9.634l6.068,7.952C175.977,467.39,133.782,460.138,110.104,434.639z M258.202,483.028 c-1.063-0.341-2.165-0.512-3.266-0.512c-1.196,0-2.391,0.201-3.534,0.602l-9.026,3.168l-0.035-11.582 c-0.006-2.328-0.776-4.588-2.186-6.439l-5.803-7.603l11.002-3.61c2.21-0.727,4.124-2.155,5.448-4.07l5.441-7.869l6.833,9.349 c1.374,1.88,3.324,3.258,5.556,3.925l9.163,2.741l-6.777,9.386c-1.362,1.887-2.07,4.168-2.015,6.495l0.1,4.298 c0,0.004,0,0.01,0,0.015s0.001,0.009,0.001,0.013l0.123,5.239L258.202,483.028z M401.877,434.662 c-23.573,25.364-65.54,32.676-103.887,34.943l5.889-8.156c2.023-2.8,2.563-6.405,1.452-9.676c-0.611-1.802-1.695-3.365-3.088-4.584 c31.41-3.212,57.66-10.09,79.584-20.806c14.786-7.23,27.565-16.235,38.215-26.897C416.755,413.487,410.73,425.136,401.877,434.662z M485.643,199.874c-8.447,15.1-20.362,23.943-37.059,27.412c-3.862-12.997-8.6-25.617-13.765-39.363l-0.157-0.418 c-4.251-11.33-8.647-23.045-13.178-36.66c-12.268-36.869-27.151-74.942-52.779-103.649c-2.266-2.538-4.593-4.962-6.97-7.292 c12.106-1.773,33.595-0.036,59.783,23.161c14.193,12.578,35.24,36.592,50.267,61.882 C490.842,157.03,495.503,182.24,485.643,199.874z"/>
    <path style="fill:#000003;" d="M206.026,209.965c10.858,0,19.714-8.856,19.714-19.713c0-10.857-8.856-19.712-19.714-19.712 c-10.856,0-19.712,8.856-19.712,19.712C186.315,201.109,195.169,209.965,206.026,209.965z"/>
    <path style="fill:#000003;" d="M305.673,170.54c-10.858,0-19.713,8.856-19.713,19.712c0,10.857,8.855,19.713,19.713,19.713 c10.859,0,19.713-8.856,19.713-19.713C325.386,179.395,316.532,170.54,305.673,170.54z"/>
    <path style="fill:#000003;" d="M256,64.01h0.421c5.892,0,10.668-4.776,10.668-10.668s-4.776-10.668-10.668-10.668H256 c-5.891,0-10.668,4.776-10.668,10.668S250.109,64.01,256,64.01z"/>
    <path style="fill:#000003;" d="M285.209,67.481c0.778,0.213,1.551,0.437,2.321,0.673c13.034,3.981,23.969,11.067,33.428,21.662 c2.108,2.361,5.028,3.563,7.962,3.563c2.528,0,5.067-0.894,7.101-2.711c4.395-3.924,4.777-10.668,0.853-15.064 c-12.134-13.591-26.237-22.703-43.109-27.857c-0.962-0.293-1.931-0.575-2.906-0.843c-5.679-1.557-11.551,1.781-13.112,7.463 C276.187,60.049,279.528,65.921,285.209,67.481z"/>
    <path style="fill:#000003;" d="M188.549,354.989c5.891,0,10.668-4.776,10.668-10.668v-0.208c0-5.892-4.777-10.668-10.668-10.668 s-10.668,4.776-10.668,10.668v0.208C177.88,350.213,182.658,354.989,188.549,354.989z"/>
    <path style="fill:#000003;" d="M193.562,387.191v0.287c0,5.892,4.776,10.668,10.668,10.668c5.892,0,10.668-4.776,10.668-10.668 v-0.287c0-5.892-4.776-10.668-10.668-10.668C198.337,376.522,193.562,381.298,193.562,387.191z"/>
    <path style="fill:#000003;" d="M149.69,359.439c-5.892,0-10.668,4.776-10.668,10.668v0.287c0,5.892,4.776,10.668,10.668,10.668 c5.892,0,10.668-4.776,10.668-10.668v-0.287C160.359,364.215,155.582,359.439,149.69,359.439z"/>
    <path style="fill:#000003;" d="M323.449,333.444c-5.892,0-10.668,4.776-10.668,10.668v0.208c0,5.892,4.776,10.668,10.668,10.668 s10.668-4.776,10.668-10.668v-0.208C334.117,338.221,329.34,333.444,323.449,333.444z"/>
    <path style="fill:#000003;" d="M307.767,376.522c-5.892,0-10.668,4.776-10.668,10.668v0.287c0,5.892,4.776,10.668,10.668,10.668 s10.668-4.776,10.668-10.668v-0.287C318.435,381.298,313.66,376.522,307.767,376.522z"/>
    <path style="fill:#000003;" d="M362.306,381.063c5.892,0,10.668-4.776,10.668-10.668v-0.287c0-5.892-4.776-10.668-10.668-10.668 c-5.892,0-10.668,4.776-10.668,10.668v0.287C351.638,376.285,356.414,381.063,362.306,381.063z"/>
  </g>
</svg>