<?xml version="1.0" encoding="utf-8"?>
<svg version="1.1" id="Layer_1" x="0px" y="0px" viewBox="0 0 400 400" style="enable-background:new 0 0 432.829 432.829;" width="512" height="512" xmlns="http://www.w3.org/2000/svg">
  <g style="" transform="matrix(1.043231, 0, 0, 1.043231, 0.34754, 1.725689)">
    <path style="fill:#9AD14B;" d="M 153.766 102.592 C 125.046 102.592 99.046 90.952 80.216 72.122 C 61.396 53.302 49.756 27.302 49.756 -1.418 C 107.196 -1.419 153.766 45.141 153.766 102.592 Z" transform="matrix(0.908737, -0.417369, 0.417369, 0.908737, -11.826442, 47.088602)"/>
    <path style="fill:#564C89;" d="M 204.977 147.974 C 204.977 157.824 201.887 166.934 196.617 174.434 L 196.617 174.444 C 175.297 178.494 159.177 197.224 159.177 219.724 C 159.177 196.974 142.697 178.074 121.027 174.304 C 115.817 166.844 112.767 157.754 112.767 147.974 C 112.767 122.514 133.407 101.874 158.867 101.874 C 184.337 101.874 204.977 122.514 204.977 147.974 Z" transform="matrix(0.908737, -0.417369, 0.417369, 0.908737, -52.613396, 80.983224)"/>
    <path style="fill:#564C89;" d="M 288.762 109.49 C 288.762 119.34 285.672 128.47 280.402 135.96 C 259.082 140.01 242.972 158.74 242.972 181.24 C 242.972 158.49 226.492 139.59 204.822 135.82 C 199.622 128.36 196.562 119.27 196.562 109.49 C 196.562 84.03 217.202 63.39 242.652 63.39 C 268.122 63.39 288.762 84.03 288.762 109.49 Z" transform="matrix(0.908737, -0.417369, 0.417369, 0.908737, -28.904453, 112.442407)"/>
    <path style="fill:#564C89;" d="M 271.747 194.975 C 271.747 219.095 253.227 238.895 229.627 240.915 C 228.317 241.025 226.987 241.085 225.647 241.085 C 224.087 241.085 222.547 241.005 221.027 240.855 C 197.737 238.535 179.537 218.875 179.537 194.975 C 179.537 172.475 195.657 153.745 216.977 149.695 C 219.787 149.155 222.687 148.875 225.647 148.875 C 228.357 148.875 231.017 149.105 233.597 149.555 C 255.267 153.325 271.747 172.225 271.747 194.975 Z" transform="matrix(0.908737, -0.417369, 0.417369, 0.908737, -60.785863, 111.970409)"/>
    <path style="fill:#564C89;" d="M 309.432 110.392 C 334.892 110.392 355.532 131.032 355.532 156.492 C 355.532 181.952 334.892 202.602 309.432 202.602 C 307.872 202.602 306.332 202.522 304.812 202.372 C 281.522 200.052 263.332 180.392 263.332 156.492 C 263.332 133.992 279.442 115.262 300.762 111.212 C 303.572 110.672 306.472 110.392 309.432 110.392 Z" transform="matrix(0.908737, -0.417369, 0.417369, 0.908737, -37.077335, 143.429686)"/>
    <path style="fill:#564C89;" d="M 187.952 233.459 C 187.952 257.579 169.422 277.389 145.822 279.399 C 144.512 279.509 143.192 279.569 141.852 279.569 C 116.392 279.569 95.752 258.919 95.752 233.459 C 95.752 207.999 116.392 187.359 141.852 187.359 C 144.562 187.359 147.222 187.589 149.802 188.039 C 171.472 191.809 187.952 210.709 187.952 233.459 Z" transform="matrix(0.908737, -0.417369, 0.417369, 0.908737, -84.494805, 80.51122)"/>
    <path style="fill:#564C89;" d="M 207.036 209.259 C 207.036 233.159 225.236 252.819 248.526 255.139 L 248.526 255.149 C 251.286 261.059 252.836 267.669 252.836 274.639 C 252.836 284.329 249.846 293.319 244.736 300.729 C 237.946 310.619 227.396 317.719 215.146 319.979 C 212.426 320.479 209.596 320.749 206.726 320.749 C 181.266 320.749 160.626 300.099 160.626 274.639 C 160.626 267.689 162.156 261.099 164.906 255.199 C 188.506 253.189 207.036 233.379 207.036 209.259 Z" transform="matrix(0.908737, -0.417369, 0.417369, 0.908737, -91.737578, 110.468135)"/>
    <path style="fill:#564C89;" d="M 290.832 170.775 C 290.832 194.675 309.022 214.335 332.312 216.655 L 332.312 216.665 C 335.072 222.575 336.622 229.185 336.622 236.155 C 336.622 261.615 315.982 282.265 290.512 282.265 C 287.892 282.265 285.322 282.045 282.822 281.625 L 282.822 281.615 C 270.222 279.505 259.352 272.275 252.432 262.135 C 247.372 254.735 244.422 245.785 244.422 236.155 C 244.422 229.205 245.952 222.615 248.712 216.715 C 272.312 214.695 290.832 194.895 290.832 170.775 Z" transform="matrix(0.908737, -0.417369, 0.417369, 0.908737, -68.028544, 141.927738)"/>
    <path style="fill:#564C89;" d="M 315.549 294.494 C 320.599 301.884 323.559 310.824 323.559 320.454 C 323.559 345.924 302.919 366.554 277.459 366.554 C 251.999 366.554 231.359 345.924 231.359 320.454 C 231.359 310.764 234.339 301.774 239.459 294.364 C 251.709 292.104 262.259 285.004 269.049 275.114 C 274.159 267.704 277.149 258.714 277.149 249.024 C 277.149 258.654 280.099 267.604 285.159 275.004 C 292.079 285.144 302.949 292.374 315.549 294.484 L 315.549 294.494 Z" transform="matrix(0.908737, -0.417369, 0.417369, 0.908737, -103.139867, 143.892485)"/>
    <path style="fill:#423D72;" d="M 231.583 114.772 C 231.583 132.222 241.818 147.286 256.617 154.264 C 252.044 156.432 247.035 157.824 241.752 158.269 C 240.512 158.373 239.262 158.43 237.993 158.43 C 213.887 158.43 194.344 138.878 194.344 114.772 C 194.344 90.665 213.887 71.123 237.993 71.123 C 240.559 71.123 243.077 71.341 245.52 71.767 C 249.421 72.439 253.142 73.642 256.617 75.28 C 241.818 82.267 231.583 97.322 231.583 114.772 Z" transform="matrix(0.908737, -0.417369, 0.417369, 0.908737, -27.326147, 104.583398)"/>
    <path style="fill:#423D72;" d="M 303.153 162.783 C 303.153 180.233 313.388 195.297 328.187 202.275 C 323.614 204.443 318.605 205.835 313.322 206.28 C 312.082 206.384 310.832 206.441 309.563 206.441 C 285.457 206.441 265.914 186.889 265.914 162.783 C 265.914 138.676 285.457 119.134 309.563 119.134 C 312.129 119.134 314.647 119.352 317.09 119.778 C 320.991 120.45 324.712 121.653 328.187 123.291 C 313.388 130.278 303.153 145.333 303.153 162.783 Z" transform="matrix(0.908737, -0.417369, 0.417369, 0.908737, -40.832764, 138.836121)"/>
    <path style="fill:#423D72;" d="M 276.252 323.063 C 276.252 340.513 286.487 355.577 301.286 362.555 C 296.713 364.723 291.704 366.115 286.421 366.56 C 285.181 366.664 283.931 366.721 282.662 366.721 C 258.556 366.721 239.013 347.169 239.013 323.063 C 239.013 298.956 264.72 277.774 288.826 277.774 C 291.392 277.774 287.746 279.632 290.189 280.058 C 294.09 280.73 297.811 281.933 301.286 283.571 C 286.487 290.558 276.252 305.613 276.252 323.063 Z" transform="matrix(0.908737, -0.417369, 0.417369, 0.908737, -109.841483, 142.161257)"/>
    <path style="fill:#423D72;" d="M 290.007 243.606 C 290.007 261.056 300.242 276.12 315.041 283.098 C 310.468 285.266 305.459 286.658 300.176 287.103 C 298.936 287.207 297.686 287.264 296.417 287.264 C 272.311 287.264 252.768 267.712 252.768 243.606 C 252.768 219.499 280.081 207.317 304.081 199.317 C 306.515 198.506 301.501 200.175 303.944 200.601 C 307.845 201.273 311.566 202.476 315.041 204.114 C 300.242 211.101 290.007 226.156 290.007 243.606 Z" transform="matrix(0.908737, -0.417369, 0.417369, 0.908737, -75.586215, 140.686317)"/>
    <g transform="matrix(0.908737, -0.417369, 0.417369, 0.908737, -72.203331, 65.000343)">
      <path style="fill:#423D72;" d="M163.228,170.674c0,9.78,14.48,35.05,19.69,42.51c-2.58-0.45-10.79,8-13.5,8    c-7.03,0-19.58-23.29-25.54-20.47c-3.67-1.73-7.6-3-11.72-3.71c-5.21-7.46-8.26-16.55-8.26-26.33c0-25.46,20.64-46.1,46.1-46.1    c7.04,0,13.71,1.58,19.67,4.4C174.038,136.344,163.228,152.244,163.228,170.674z"/>
      <path style="fill:#423D72;" d="M117.438,242.424c0,18.43,10.81,34.34,26.44,41.71c-4.83,2.29-10.12,3.76-15.7,4.23    c-1.31,0.11-2.63,0.17-3.97,0.17c-25.46,0-46.1-20.65-46.1-46.11c0-25.46,20.64-46.1,46.1-46.1c2.71,0,5.37,0.23,7.95,0.68    c4.12,0.71,8.05,1.98,11.72,3.71C128.248,208.094,117.438,223.994,117.438,242.424z"/>
      <path style="fill:#423D72;" d="M189.668,349.514c-3.53,1.67-7.3,2.9-11.25,3.63c-2.72,0.5-5.55,0.77-8.42,0.77    c-25.46,0-46.1-20.65-46.1-46.11c0-6.95,1.53-13.54,4.28-19.44c5.58-0.47,10.87-1.94,15.7-4.23    c5.96,2.83,10.436-10.962,16.54-14.45c17.5-10,14.5-6,7.09,18.68c-2.75,5.9-4.28,12.49-4.28,19.44    C163.228,326.233,174.038,342.134,189.668,349.514z"/>
    </g>
    <path style="fill:#90BC42;" d="M 153.765 102.592 L 49.755 -1.419 C 107.195 -1.419 153.765 45.141 153.765 102.592 Z" transform="matrix(0.908737, -0.417369, 0.417369, 0.908737, -11.826325, 47.088136)"/>
    <path style="fill:#423D72;" d="M 220.555 200.822 C 220.555 219.252 231.365 235.162 246.995 242.532 C 242.165 244.822 236.875 246.292 231.295 246.762 C 229.985 246.872 228.665 246.932 227.325 246.932 C 201.865 246.932 181.225 226.282 181.225 200.822 C 181.225 175.362 201.865 154.722 227.325 154.722 C 230.035 154.722 232.695 154.952 235.275 155.402 C 239.395 156.112 243.325 157.382 246.995 159.112 C 231.365 166.492 220.555 182.392 220.555 200.822 Z" transform="matrix(0.908737, -0.417369, 0.417369, 0.908737, -64.278663, 107.690922)"/>
    <path style="fill:#FFFFFF;" d="M 243.204 209.113 C 241.838 209.113 240.455 208.74 239.214 207.958 C 235.709 205.75 234.657 201.12 236.865 197.615 C 238.636 194.803 239.572 191.585 239.572 188.306 C 239.572 180.948 235.168 174.499 228.352 171.879 C 224.486 170.392 222.556 166.053 224.043 162.187 C 225.527 158.321 229.868 156.39 233.734 157.878 C 246.392 162.745 254.571 174.689 254.571 188.306 C 254.571 194.418 252.837 200.402 249.555 205.61 C 248.131 207.873 245.694 209.113 243.204 209.113 Z" transform="matrix(0.908737, -0.417369, 0.417369, 0.908737, -54.66358, 116.498014)"/>
    <path style="fill:#FFFFFF;" d="M 259.405 118.727 C 258.711 118.727 258.005 118.63 257.303 118.426 C 253.326 117.267 251.042 113.104 252.201 109.127 C 252.659 107.554 252.891 105.926 252.891 104.288 C 252.891 96.93 248.487 90.481 241.671 87.861 C 237.805 86.374 235.875 82.035 237.362 78.169 C 238.847 74.304 243.187 72.373 247.053 73.86 C 259.711 78.727 267.89 90.671 267.89 104.288 C 267.89 107.347 267.456 110.386 266.6 113.323 C 265.648 116.599 262.654 118.727 259.405 118.727 Z" transform="matrix(0.908737, -0.417369, 0.417369, 0.908737, -17.052748, 114.098672)"/>
    <path style="fill:#FFFFFF;" d="M 173.524 158.242 C 172.821 158.242 172.107 158.142 171.399 157.934 C 167.426 156.762 165.155 152.592 166.327 148.619 C 166.796 147.029 167.034 145.382 167.034 143.725 C 167.034 136.367 162.63 129.918 155.814 127.298 C 151.948 125.811 150.019 121.472 151.505 117.606 C 152.992 113.739 157.331 111.812 161.197 113.297 C 173.855 118.165 182.033 130.108 182.033 143.725 C 182.033 146.819 181.589 149.892 180.714 152.862 C 179.751 156.126 176.763 158.242 173.524 158.242 Z" transform="matrix(0.908737, -0.417369, 0.417369, 0.908737, -41.364466, 81.86743)"/>
    <path style="fill:#FFFFFF;" d="M 328.625 169.88 C 327.259 169.88 325.876 169.507 324.635 168.725 C 321.13 166.517 320.078 161.887 322.286 158.382 C 324.057 155.57 324.993 152.352 324.993 149.073 C 324.993 141.715 320.589 135.266 313.773 132.646 C 309.907 131.159 307.977 126.82 309.464 122.954 C 310.949 119.088 315.288 117.157 319.155 118.645 C 331.813 123.512 339.992 135.456 339.992 149.073 C 339.992 155.185 338.258 161.169 334.976 166.377 C 333.552 168.64 331.115 169.88 328.625 169.88 Z" transform="matrix(0.908737, -0.417369, 0.417369, 0.908737, -30.493175, 148.569574)"/>
    <path style="fill:#FFFFFF;" d="M 317.132 245.619 C 315.766 245.619 314.383 245.246 313.142 244.464 C 309.637 242.256 308.585 237.626 310.793 234.121 C 312.564 231.309 313.5 228.091 313.5 224.812 C 313.5 220.67 316.857 217.312 321 217.312 C 325.143 217.312 328.5 220.67 328.5 224.812 C 328.5 230.924 326.766 236.908 323.484 242.116 C 322.059 244.379 319.622 245.619 317.132 245.619 Z" transform="matrix(0.908737, -0.417369, 0.417369, 0.908737, -67.487365, 154.293684)"/>
    <path style="fill:#FFFFFF;" d="M 305.663 328.466 C 304.297 328.466 302.914 328.093 301.673 327.311 C 298.168 325.103 297.116 320.473 299.324 316.968 C 301.095 314.156 302.031 310.938 302.031 307.659 C 302.031 303.517 305.388 300.159 309.531 300.159 C 313.674 300.159 317.031 303.517 317.031 307.659 C 317.031 313.771 315.297 319.755 312.015 324.963 C 310.59 327.226 308.153 328.466 305.663 328.466 Z" transform="matrix(0.908737, -0.417369, 0.417369, 0.908737, -103.111826, 157.067738)"/>
    <path style="fill:#FFFFFF;" d="M 230.801 285.269 C 229.435 285.269 228.052 284.896 226.81 284.114 C 223.306 281.906 222.254 277.275 224.462 273.77 C 226.233 270.959 227.17 267.74 227.17 264.461 C 227.17 260.319 230.528 256.961 234.67 256.961 C 238.812 256.961 242.17 260.319 242.17 264.461 C 242.17 270.573 240.435 276.557 237.154 281.766 C 235.728 284.029 233.292 285.269 230.801 285.269 Z" transform="matrix(0.908737, -0.417369, 0.417369, 0.908737, -91.91461, 121.880535)"/>
    <path style="fill:#FFFFFF;" d="M 161.871 246.467 C 160.505 246.467 159.122 246.094 157.88 245.312 C 154.376 243.104 153.324 238.473 155.533 234.968 C 157.304 232.157 158.24 228.938 158.24 225.659 C 158.24 218.301 153.836 211.852 147.02 209.232 C 143.154 207.745 141.225 203.406 142.711 199.54 C 144.198 195.674 148.537 193.745 152.403 195.231 C 165.061 200.099 173.239 212.042 173.239 225.659 C 173.239 231.771 171.505 237.755 168.223 242.964 C 166.798 245.227 164.362 246.467 161.871 246.467 Z" transform="matrix(0.908737, -0.417369, 0.417369, 0.908737, -77.676515, 85.961672)"/>
    <path style="" d="M 360.592 197.352 C 360.592 169.134 338.67 145.956 310.964 143.913 C 313.081 138.093 314.177 131.917 314.177 125.596 C 314.177 96.044 290.13 72.002 260.572 72.002 C 245.424 72.002 231.734 78.329 221.977 88.467 L 221.977 -1.86 C 221.977 -6.002 218.62 -9.36 214.477 -9.36 C 210.335 -9.36 206.977 -6.002 206.977 -1.86 L 206.977 10.627 C 187.661 -22.648 151.635 -45.075 110.467 -45.075 C 106.325 -45.075 102.967 -41.717 102.967 -37.575 C 102.967 -7.79 114.566 20.213 135.628 41.274 C 154.912 60.558 180.015 71.902 206.977 73.681 L 206.977 88.47 C 197.218 78.33 183.524 72.001 168.371 72.001 C 138.812 72.001 114.765 96.043 114.765 125.595 C 114.765 131.933 115.869 138.125 117.998 143.958 C 90.581 146.292 68.979 169.34 68.979 197.351 C 68.979 224.733 89.622 247.37 116.16 250.555 C 115.241 254.512 114.765 258.577 114.765 262.728 C 114.765 290.91 136.63 314.065 164.284 316.163 C 162.242 321.888 161.185 327.955 161.185 334.16 C 161.185 363.712 185.232 387.754 214.791 387.754 C 244.343 387.754 268.386 363.712 268.386 334.16 C 268.386 327.942 267.322 321.858 265.269 316.117 C 292.635 313.729 314.178 290.704 314.178 262.729 C 314.178 258.607 313.71 254.567 312.802 250.634 C 339.634 247.727 360.592 224.944 360.592 197.352 Z M 118.28 -29.765 C 141.114 -27.948 162.335 -18.182 178.71 -1.807 C 195.085 14.568 204.851 35.789 206.667 58.623 C 159.663 54.842 122.06 17.238 118.28 -29.765 Z M 260.572 87.001 C 281.859 87.001 299.177 104.314 299.177 125.595 C 299.177 132.645 297.287 139.441 293.698 145.419 C 279.789 148.981 268.049 158.002 260.887 170.049 C 253.603 157.796 241.578 148.685 227.356 145.253 C 223.831 139.319 221.976 132.581 221.976 125.596 C 221.977 104.315 239.291 87.001 260.572 87.001 Z M 214.785 235.954 C 193.5 235.954 176.183 218.637 176.183 197.352 C 176.183 176.066 193.5 158.749 214.785 158.749 C 236.071 158.749 253.387 176.066 253.387 197.352 C 253.387 218.637 236.071 235.954 214.785 235.954 Z M 168.371 87.001 C 189.659 87.001 206.977 104.314 206.977 125.595 C 206.977 132.642 205.084 139.439 201.49 145.42 C 187.583 148.983 175.845 158.003 168.683 170.049 C 161.397 157.793 149.368 148.681 135.143 145.25 C 131.619 139.317 129.765 132.58 129.765 125.595 C 129.765 104.315 147.084 87.001 168.371 87.001 Z M 83.979 197.352 C 83.979 176.066 101.296 158.749 122.582 158.749 C 143.867 158.749 161.184 176.066 161.184 197.352 C 161.184 218.637 143.867 235.954 122.582 235.954 C 101.296 235.954 83.979 218.637 83.979 197.352 Z M 129.765 262.728 C 129.765 258.376 130.474 254.156 131.866 250.132 C 147.514 247.387 160.844 237.841 168.683 224.654 C 176.41 237.652 189.471 247.114 204.83 250.011 C 206.252 254.075 206.977 258.335 206.977 262.727 C 206.977 270.585 204.634 278.135 200.192 284.576 C 194.424 292.982 185.398 298.855 175.431 300.69 C 173.105 301.117 170.73 301.334 168.371 301.334 C 147.084 301.335 129.765 284.016 129.765 262.728 Z M 214.791 372.754 C 193.503 372.754 176.185 355.441 176.185 334.16 C 176.185 327.254 177.998 320.587 181.445 314.711 C 193.985 311.55 205.193 303.801 212.55 293.079 C 213.228 292.096 213.865 291.09 214.473 290.071 C 215.049 291.04 215.651 291.997 216.291 292.933 C 223.832 303.979 235.339 311.842 248.236 314.888 C 251.613 320.724 253.386 327.329 253.386 334.16 C 253.385 355.441 236.072 372.754 214.791 372.754 Z M 260.572 301.335 C 258.543 301.335 256.499 301.175 254.491 300.859 C 254.366 300.832 254.24 300.807 254.113 300.786 C 243.856 299.073 234.587 293.128 228.675 284.47 C 224.293 278.063 221.977 270.545 221.977 262.728 C 221.977 258.375 222.686 254.154 224.079 250.13 C 239.723 247.382 253.049 237.838 260.887 224.654 C 268.614 237.651 281.673 247.112 297.03 250.011 C 298.451 254.075 299.177 258.336 299.177 262.728 C 299.177 284.016 281.859 301.335 260.572 301.335 Z M 306.99 235.954 C 285.705 235.954 268.387 218.637 268.387 197.352 C 268.387 176.066 285.704 158.749 306.99 158.749 C 328.276 158.749 345.593 176.066 345.593 197.352 C 345.592 218.637 328.275 235.954 306.99 235.954 Z" transform="matrix(0.908737, -0.417369, 0.417369, 0.908737, -51.909848, 105.28174)"/>
  </g>
</svg>