<?xml version="1.0" encoding="utf-8"?>
<svg version="1.1" id="Layer_1" x="0px" y="0px" viewBox="0 0 400 400" style="enable-background:new 0 0 512 512;" xmlns="http://www.w3.org/2000/svg">
  <polygon style="fill: rgb(245, 120, 71);" points="318.325 182.893 201.79 390.464 79.844 173.254"/>
  <polygon style="fill: rgb(255, 163, 12);" points="108.586 224.452 294.994 224.452 318.325 182.893 79.844 173.254"/>
  <path style="fill: rgb(239, 238, 238);" d="M 298.016 95.788 C 320.451 98.548 337.866 118.761 337.866 143.286 C 337.866 169.695 317.672 191.104 292.761 191.104 L 216.321 191.104 L 298.016 95.788 Z"/>
  <path style="fill: rgb(255, 255, 255);" d="M 212.255 191.085 C 259.543 191.085 297.878 150.444 297.878 100.311 C 297.878 50.177 259.543 9.537 212.255 9.537 C 171.451 9.537 137.319 39.798 128.723 80.304 C 125.404 79.611 121.976 79.238 118.465 79.238 C 89.331 79.238 65.714 104.276 65.714 135.162 C 65.714 166.048 89.331 191.085 118.465 191.085 L 212.255 191.085 Z"/>
  <path d="M 212.549 164.339 C 212.538 164.339 212.529 164.339 212.518 164.339 L 212.323 164.339 C 208.1 164.322 204.691 160.679 204.707 156.203 C 204.723 151.737 208.144 148.129 212.351 148.129 C 212.362 148.129 212.371 148.129 212.382 148.129 L 212.578 148.13 C 216.8 148.147 220.21 151.789 220.194 156.266 C 220.177 160.731 216.756 164.339 212.549 164.339 Z" style=""/>
  <path d="M 236.353 158.18 C 233.578 158.18 230.903 156.575 229.547 153.78 C 227.616 149.8 229.094 144.913 232.85 142.865 C 247.968 134.623 257.359 118.317 257.359 100.311 C 257.359 95.834 260.782 92.206 265.004 92.206 C 269.227 92.206 272.649 95.834 272.649 100.311 C 272.649 124.418 260.079 146.249 239.842 157.281 C 238.724 157.892 237.53 158.18 236.353 158.18 Z" style=""/>
  <path d="M 345.511 143.286 C 345.511 117.069 328.427 94.716 304.895 88.862 C 299.524 39.715 260.03 1.432 212.255 1.432 C 190.954 1.432 170.123 9.245 153.599 23.433 C 139.155 35.835 128.486 52.637 123.07 71.322 C 121.535 71.197 119.998 71.135 118.464 71.135 C 85.161 71.135 58.069 99.858 58.069 135.163 C 58.069 151.602 63.947 166.609 73.586 177.959 L 195.22 394.611 C 196.599 397.065 199.096 398.569 201.79 398.569 C 204.485 398.569 206.981 397.065 208.36 394.61 L 324.313 188.078 C 337.173 177.869 345.511 161.591 345.511 143.286 Z M 330.222 143.286 C 330.222 165.184 313.417 183 292.762 183 L 263.335 183 C 287.352 166.269 303.678 138.109 305.373 105.874 C 319.988 111.388 330.222 126.181 330.222 143.286 Z M 73.358 135.162 C 73.358 108.794 93.592 87.343 118.464 87.343 C 121.393 87.343 124.345 87.65 127.244 88.256 C 131.307 89.107 135.272 86.368 136.181 82.083 C 144.104 44.742 176.098 17.642 212.255 17.642 C 255.252 17.642 290.233 54.727 290.233 100.311 C 290.233 145.896 255.252 182.981 212.255 182.981 L 118.464 182.981 C 93.594 182.98 73.358 161.529 73.358 135.162 Z M 122.412 233.23 L 159.825 233.23 L 136.372 258.094 L 122.412 233.23 Z M 144.44 272.465 L 150.649 265.882 L 165.426 281.548 L 155.467 292.105 L 144.44 272.465 Z M 201.886 265.818 L 216.723 281.548 L 201.885 297.278 L 187.049 281.548 L 201.886 265.818 Z M 192.771 233.23 L 211.001 233.23 L 201.887 242.893 L 192.771 233.23 Z M 212.699 254.355 L 227.475 238.69 L 242.311 254.42 L 227.535 270.085 L 212.699 254.355 Z M 176.236 270.086 L 161.46 254.421 L 176.297 238.69 L 191.074 254.355 L 176.236 270.086 Z M 163.534 306.477 L 176.236 293.01 L 191.074 308.741 L 174.606 326.198 L 163.534 306.477 Z M 201.79 374.617 L 182.675 340.57 L 201.885 320.203 L 220.976 340.443 L 201.79 374.617 Z M 229.045 326.072 L 212.699 308.741 L 227.536 293.011 L 240.118 306.35 L 229.045 326.072 Z M 248.186 291.979 L 238.347 281.548 L 253.124 265.883 L 259.213 272.339 L 248.186 291.979 Z M 267.28 257.968 L 243.947 233.23 L 281.168 233.23 L 267.28 257.968 Z M 290.269 217.021 L 113.312 217.021 L 101.919 196.727 C 107.181 198.319 112.728 199.19 118.465 199.19 L 292.762 199.209 C 295.431 199.209 298.054 198.994 300.618 198.586 L 290.269 217.021 Z" style=""/>
</svg>