<?xml version="1.0" encoding="utf-8"?>
<svg version="1.1" id="Layer_1" x="0px" y="0px" viewBox="0 0 400 400" style="enable-background:new 0 0 453.207 453.207;" width="512" height="512" xmlns="http://www.w3.org/2000/svg">
  <g style="" transform="matrix(1, 0, 0, 0.95212, -26.604004, 2.112793)">
    <path style="fill: rgb(247, 178, 57);" d="M 315.317 228.044 C 338.977 249.359 354.647 279.204 354.647 312.251 C 354.647 377.05 297.067 408.794 226.427 408.794 C 155.777 408.794 98.557 377.05 98.557 312.251 C 98.557 279.012 113.027 249.011 137.507 227.668 C 154.187 213.121 163.517 193.154 163.517 172.04 L 163.517 171.701 C 163.517 139.287 193.247 113.138 228.877 114.303 C 262.807 115.404 289.657 141.929 289.657 173.076 C 289.657 193.851 299.157 213.488 315.317 228.044 Z"/>
    <path style="fill: rgb(224, 155, 45);" d="M 189.267 227.668 C 179.007 249.011 172.947 279.012 172.947 312.251 C 172.947 376.977 196.877 408.721 226.427 408.794 C 155.777 408.794 98.557 377.05 98.557 312.251 C 98.557 279.012 113.027 249.011 137.507 227.668 C 154.187 213.121 163.517 193.154 163.517 172.04 L 163.517 171.701 C 163.517 139.984 191.987 114.266 226.587 114.266 C 212.087 114.275 200.167 139.993 200.167 171.701 L 200.167 172.04 C 200.167 193.153 196.257 213.121 189.267 227.668 Z"/>
    <path style="fill: rgb(154, 209, 75);" d="M 232.137 92.179 C 180.767 92.179 139.127 53.988 139.127 6.881 C 164.807 6.881 188.067 16.429 204.897 31.865 C 221.727 47.302 232.137 68.627 232.137 92.179 Z"/>
    <path style="fill: rgb(144, 188, 66);" d="M 232.137 92.179 L 139.127 6.881 C 164.807 6.881 188.067 16.429 204.897 31.865 C 221.727 47.302 232.137 68.627 232.137 92.179 Z"/>
    <path style="fill: rgb(255, 255, 255);" d="M 320.783 357.365 C 319.436 357.365 318.072 357.032 316.842 356.333 C 313.321 354.333 312.233 350.093 314.414 346.863 C 320.872 337.296 324.146 325.651 324.146 312.25 C 324.146 288.71 313.138 265.293 293.945 248.002 C 278.652 234.227 267.838 217.182 262.673 198.71 C 261.644 195.029 264.063 191.282 268.075 190.338 C 272.086 189.398 276.174 191.613 277.203 195.293 C 281.688 211.336 291.112 226.169 304.455 238.187 C 326.501 258.049 339.145 285.044 339.145 312.251 C 339.145 328.249 335.115 342.331 327.166 354.107 C 325.748 356.208 323.295 357.365 320.783 357.365 Z"/>
    <path style="fill: rgb(255, 255, 255);" d="M 266.656 179.955 C 262.514 179.955 259.156 176.875 259.156 173.076 C 259.156 156.645 245.086 142.82 227.792 142.259 C 227.387 142.246 226.985 142.24 226.586 142.24 C 222.444 142.24 219.086 139.16 219.086 135.361 C 219.086 131.562 222.444 128.482 226.586 128.482 C 227.163 128.482 227.743 128.491 228.325 128.51 C 253.595 129.33 274.156 149.322 274.156 173.076 C 274.156 176.875 270.799 179.955 266.656 179.955 Z"/>
    <circle style="fill: rgb(255, 255, 255);" cx="303.378" cy="401.427" r="7.5" transform="matrix(1, 0, 0, 0.91719, 0, 0)"/>
    <path style="" d="M 320.569 223.138 C 305.474 209.539 297.16 191.761 297.16 173.079 C 297.16 140.85 271.25 113.333 237.84 108.245 L 237.84 106.965 C 237.84 87.846 254.569 72.291 275.133 72.291 C 279.275 72.291 282.633 69.211 282.633 65.412 C 282.633 61.613 279.275 58.533 275.133 58.533 C 261.038 58.533 247.853 63.584 238.009 72.757 C 237.834 72.92 237.671 73.092 237.499 73.256 C 227.956 31.475 187.477 0 139.129 0 C 134.987 0 131.629 3.08 131.629 6.879 C 131.629 55.07 172.16 94.737 223.597 98.724 C 223.105 101.42 222.84 104.173 222.84 106.965 L 222.84 107.486 C 205.816 108.293 189.895 114.598 177.461 125.605 C 163.635 137.844 156.02 154.214 156.02 171.702 L 156.02 172.04 C 156.02 191.378 147.608 209.363 132.334 222.683 C 105.718 245.894 91.06 277.702 91.06 312.249 C 91.06 344.988 105.036 371.981 131.477 390.31 C 155.416 406.906 188.248 415.677 226.424 415.677 C 264.624 415.677 297.515 406.907 321.54 390.318 C 348.106 371.974 362.148 344.977 362.148 312.249 C 362.147 279.42 346.992 246.94 320.569 223.138 Z M 146.987 14.086 C 187.88 17.517 220.533 47.467 224.274 84.973 C 183.382 81.542 150.728 51.592 146.987 14.086 Z M 226.423 401.919 C 168.235 401.919 106.06 378.363 106.06 312.248 C 106.06 281.508 119.062 253.241 142.67 232.652 C 160.951 216.711 171.02 195.184 171.02 172.039 L 171.02 171.701 C 171.02 157.981 177.007 145.126 187.877 135.504 C 198.388 126.2 212.058 121.139 226.565 121.139 C 227.244 121.139 227.925 121.15 228.607 121.172 C 258.136 122.135 282.16 145.419 282.16 173.077 C 282.16 195.482 292.068 216.745 310.058 232.951 C 333.628 254.184 347.147 283.086 347.147 312.247 C 347.147 378.363 284.785 401.919 226.423 401.919 Z"/>
  </g>
</svg>