<?xml version="1.0" encoding="utf-8"?>
<svg version="1.1" id="Layer_1" x="0px" y="0px" viewBox="0 0 400 400" style="enable-background:new 0 0 512 512;" xmlns="http://www.w3.org/2000/svg">
  <path style="fill: rgb(0, 151, 88);" d="M 388.953 258.516 C 383.162 223.386 359.847 175.077 350.901 157.434 C 345.561 164.49 337.188 171.542 324.826 177.929 C 324.82 177.933 324.813 177.937 324.806 177.94 C 322.384 179.281 319.789 180.577 317.032 181.83 C 316.992 181.848 316.951 181.868 316.912 181.885 C 314.163 183.131 311.253 184.333 308.19 185.484 C 308.139 185.504 308.086 185.523 308.035 185.543 C 307.049 185.913 306.049 186.278 305.032 186.638 C 304.999 186.65 304.968 186.661 304.935 186.673 C 302.817 187.42 300.636 188.146 298.391 188.847 C 298.358 188.859 298.322 188.87 298.287 188.879 C 297.236 189.207 296.171 189.529 295.093 189.847 C 294.98 189.881 294.867 189.913 294.754 189.946 C 291.377 190.936 287.87 191.872 284.245 192.753 C 284.074 192.795 283.901 192.837 283.727 192.878 C 282.651 193.137 281.565 193.392 280.469 193.641 C 280.34 193.67 280.212 193.701 280.083 193.73 C 277.627 194.285 275.121 194.814 272.566 195.319 C 272.365 195.359 272.163 195.397 271.963 195.436 C 270.895 195.644 269.819 195.848 268.736 196.048 C 268.488 196.093 268.243 196.138 267.997 196.184 C 266.754 196.409 265.501 196.631 264.236 196.844 C 264.214 196.847 264.194 196.851 264.174 196.856 C 262.843 197.08 261.5 197.297 260.147 197.507 C 259.951 197.538 259.752 197.568 259.554 197.597 C 258.447 197.767 257.332 197.934 256.211 198.096 C 255.883 198.143 255.553 198.189 255.223 198.235 C 254.136 198.389 253.044 198.536 251.947 198.681 C 251.69 198.715 251.437 198.749 251.179 198.783 C 249.809 198.959 248.431 199.13 247.044 199.293 C 246.96 199.303 246.875 199.312 246.792 199.322 C 245.529 199.469 244.257 199.609 242.98 199.745 C 242.61 199.784 242.237 199.822 241.866 199.86 C 240.826 199.967 239.781 200.071 238.731 200.169 C 238.351 200.206 237.974 200.242 237.592 200.278 C 236.281 200.399 234.964 200.512 233.638 200.622 C 233.562 200.628 233.487 200.634 233.412 200.641 C 232 200.754 230.58 200.86 229.153 200.96 C 228.777 200.985 228.4 201.01 228.025 201.035 C 226.966 201.106 225.905 201.174 224.838 201.236 C 224.391 201.263 223.945 201.288 223.497 201.314 C 222.387 201.376 221.275 201.432 220.16 201.486 C 219.82 201.502 219.484 201.521 219.143 201.535 C 217.7 201.601 216.253 201.659 214.797 201.709 C 214.498 201.72 214.197 201.727 213.9 201.736 C 212.737 201.774 211.567 201.809 210.397 201.836 C 209.927 201.848 209.456 201.858 208.985 201.867 C 207.92 201.89 206.853 201.908 205.782 201.922 C 205.342 201.929 204.905 201.935 204.464 201.939 C 202.983 201.954 201.495 201.965 200.001 201.965 C 198.508 201.965 197.021 201.954 195.537 201.939 C 195.097 201.935 194.659 201.928 194.22 201.922 C 193.149 201.908 192.081 201.889 191.016 201.867 C 190.545 201.857 190.076 201.847 189.607 201.836 C 188.433 201.809 187.264 201.774 186.096 201.736 C 185.801 201.727 185.502 201.72 185.206 201.709 C 183.749 201.659 182.299 201.6 180.855 201.535 C 180.518 201.521 180.182 201.502 179.845 201.486 C 178.729 201.433 177.616 201.377 176.507 201.315 C 176.058 201.289 175.611 201.263 175.163 201.237 C 174.096 201.174 173.033 201.105 171.974 201.036 C 171.6 201.011 171.224 200.987 170.85 200.961 C 169.422 200.861 168.002 200.756 166.591 200.642 C 166.513 200.635 166.435 200.628 166.357 200.622 C 165.034 200.513 163.717 200.399 162.406 200.279 C 162.028 200.244 161.651 200.207 161.273 200.171 C 160.221 200.072 159.174 199.969 158.13 199.86 C 157.76 199.822 157.39 199.784 157.021 199.746 C 155.747 199.61 154.481 199.471 153.222 199.324 C 153.134 199.313 153.043 199.304 152.953 199.294 C 151.566 199.131 150.187 198.961 148.819 198.783 C 148.564 198.751 148.311 198.717 148.058 198.683 C 146.958 198.538 145.862 198.389 144.775 198.236 C 144.446 198.189 144.119 198.144 143.792 198.097 C 142.67 197.936 141.556 197.771 140.448 197.599 C 140.249 197.569 140.05 197.538 139.852 197.508 C 138.499 197.297 137.157 197.081 135.827 196.856 C 135.804 196.853 135.782 196.848 135.759 196.844 C 134.495 196.631 133.244 196.409 132.001 196.184 C 131.755 196.138 131.512 196.093 131.266 196.049 C 130.183 195.849 129.107 195.645 128.04 195.437 C 127.838 195.397 127.635 195.359 127.433 195.319 C 124.879 194.814 122.372 194.285 119.915 193.73 C 119.789 193.702 119.664 193.671 119.538 193.644 C 118.44 193.394 117.352 193.138 116.274 192.879 C 116.101 192.838 115.927 192.796 115.756 192.754 C 112.13 191.873 108.624 190.936 105.246 189.947 C 105.134 189.915 105.022 189.881 104.91 189.849 C 103.832 189.531 102.767 189.209 101.716 188.881 C 101.682 188.87 101.645 188.859 101.609 188.849 C 99.364 188.147 97.183 187.421 95.065 186.674 C 95.033 186.662 95.004 186.651 94.972 186.64 C 93.954 186.279 92.952 185.914 91.965 185.544 C 91.913 185.524 91.863 185.506 91.812 185.486 C 88.75 184.334 85.84 183.133 83.089 181.886 C 83.049 181.868 83.01 181.85 82.97 181.832 C 80.213 180.578 77.617 179.281 75.194 177.94 C 75.188 177.937 75.18 177.933 75.174 177.929 C 62.813 171.542 54.439 164.488 49.098 157.433 C 40.128 175.127 16.699 223.676 10.997 258.834 C 10.291 261.77 9.921 264.751 9.921 267.772 C 9.869 268.504 9.895 269.217 9.983 269.913 C 12.557 315.252 96.652 351.656 200.016 351.656 C 303.672 351.656 387.943 315.044 390.06 269.526 C 390.096 269.12 390.106 268.708 390.096 268.291 C 390.097 268.118 390.111 267.945 390.111 267.772 C 390.11 264.642 389.708 261.555 388.953 258.516 Z"/>
  <path style="fill: rgb(0, 101, 58);" d="M 388.953 258.516 C 383.162 223.386 359.847 175.077 350.901 157.434 C 347.8 161.531 343.667 165.626 338.332 169.592 C 349.061 191.934 365.634 229.664 370.389 258.517 C 371.145 261.558 371.546 264.644 371.546 267.773 C 371.546 267.946 371.535 268.12 371.532 268.292 C 371.542 268.71 371.532 269.122 371.496 269.526 C 369.442 313.678 290.092 349.449 190.729 351.557 C 193.806 351.622 196.901 351.656 200.015 351.656 C 303.671 351.656 387.942 315.044 390.059 269.526 C 390.096 269.12 390.105 268.708 390.095 268.291 C 390.097 268.118 390.11 267.945 390.11 267.772 C 390.11 264.642 389.708 261.555 388.953 258.516 Z"/>
  <g style="" transform="matrix(0.766624, 0, 0, 0.80489, 3.744971, -8.127495)">
    <path style="fill:#FE9901;" d="M437.643,148.308c-5.391,0-10.55,0.986-15.315,2.777c-3.916-20.037-21.56-35.159-42.743-35.159 c-5.272,0-10.327,0.938-15.005,2.654c-2.808-21.346-21.06-37.828-43.173-37.828c-9.845,0-18.925,3.27-26.219,8.776 c-7.066-14.518-21.957-24.526-39.189-24.526s-32.123,10.008-39.189,24.526c-7.295-5.508-16.374-8.776-26.219-8.776 c-22.113,0-40.364,16.481-43.173,37.828c-4.678-1.716-9.731-2.654-15.005-2.654c-21.183,0-38.826,15.122-42.743,35.159 c-4.766-1.79-9.925-2.777-15.315-2.777c-24.058,0-50.048,48.949,18.818,82.849c34.025,17.941,94.224,29.865,162.824,29.865 s128.799-11.924,162.824-29.865C487.691,197.257,461.701,148.308,437.643,148.308z"/>
    <path style="fill:#FE9901;" d="M64.747,150.835c0.236,0.084,0.477,0.161,0.712,0.25c0.045-0.231,0.102-0.458,0.15-0.686 C65.32,150.537,65.034,150.684,64.747,150.835z"/>
  </g>
  <g style="" transform="matrix(0.766624, 0, 0, 0.80489, 3.744971, -8.127495)">
    <path style="fill: rgb(204, 116, 0);" d="M340.367,118.579c4.678-1.716,9.731-2.654,15.004-2.654c3.067,0,6.055,0.326,8.942,0.929 c-3.539-20.502-21.392-36.103-42.906-36.103c-4.201,0-8.26,0.6-12.103,1.71C325.686,87.198,338.093,101.292,340.367,118.579z"/>
    <path style="fill: rgb(204, 116, 0);" d="M398.114,151.085c4.766-1.79,9.924-2.777,15.315-2.777c2.947,0,5.921,0.739,8.749,2.089 c-4.182-19.692-21.653-34.472-42.592-34.472c-4.202,0-8.262,0.604-12.106,1.715C383.012,122.129,394.974,135.024,398.114,151.085z"/>
    <path style="fill: rgb(204, 116, 0);" d="M437.643,148.308c-5.125,0-10.036,0.9-14.604,2.527c19.734,10.424,31.139,51-28.429,80.323 c-32.007,16.877-87.179,28.427-150.716,29.738c4.004,0.082,8.04,0.127,12.107,0.127c68.601,0,128.799-11.924,162.824-29.865 C487.691,197.257,461.701,148.308,437.643,148.308z"/>
  </g>
  <g style="" transform="matrix(0.766624, 0, 0, 0.80489, 3.744971, -8.127495)">
    <path style="fill:#FFFFFF;" d="M256.144,357.288c-0.048,0-0.237,0-0.285,0c-21.731,0-43.366,45.518-29.385,52.044 c6.105,2.85,12.482,2.473,17.728,1.144c3.862-0.978,7.831-1.461,11.799-1.449c3.968-0.012,7.937,0.47,11.799,1.449 c5.247,1.329,11.623,1.705,17.728-1.144C299.509,402.806,277.874,357.288,256.144,357.288z"/>
    <path style="fill:#FFFFFF;" d="M210.591,325.424c4.275,9.496,17.937,17.887,27.433,13.613c9.496-4.275,11.23-19.598,6.955-29.094 c-4.275-9.496-15.438-13.728-24.934-9.453C210.548,304.766,206.316,315.928,210.591,325.424z"/>
    <path style="fill:#FFFFFF;" d="M184.537,371.541c7.429,4.932,22.831,6.424,27.763-1.005c4.932-7.429-2.472-20.966-9.901-25.898 s-17.45-2.908-22.382,4.521S177.107,366.608,184.537,371.541z"/>
    <path style="fill:#FFFFFF;" d="M301.41,325.424c-4.275,9.496-17.937,17.887-27.433,13.613c-9.496-4.275-11.23-19.598-6.955-29.094 c4.275-9.496,15.438-13.728,24.934-9.453C301.453,304.766,305.685,315.928,301.41,325.424z"/>
    <path style="fill:#FFFFFF;" d="M327.465,371.541c-7.429,4.932-22.83,6.424-27.763-1.005s2.471-20.966,9.901-25.898 c7.429-4.932,17.45-2.908,22.382,4.521S334.894,366.608,327.465,371.541z"/>
  </g>
  <path d="M 184.571 112.992 C 184.571 98.017 172.967 85.832 158.702 85.832 C 144.439 85.832 132.834 98.017 132.834 112.992 C 132.834 116.557 135.587 119.447 138.982 119.447 C 142.377 119.447 145.129 116.556 145.129 112.992 C 145.129 105.135 151.218 98.741 158.702 98.741 C 166.187 98.741 172.276 105.134 172.276 112.992 C 172.276 116.557 175.028 119.447 178.423 119.447 C 181.818 119.447 184.571 116.557 184.571 112.992 Z" style=""/>
  <path d="M 227.728 112.992 C 227.728 105.135 233.815 98.741 241.301 98.741 C 248.786 98.741 254.874 105.134 254.874 112.992 C 254.874 116.557 257.626 119.447 261.022 119.447 C 264.418 119.447 267.169 116.556 267.169 112.992 C 267.169 98.017 255.566 85.832 241.301 85.832 C 227.037 85.832 215.433 98.017 215.433 112.992 C 215.433 116.557 218.184 119.447 221.58 119.447 C 224.975 119.447 227.728 116.557 227.728 112.992 Z" style=""/>
  <path d="M 180.281 163.814 C 183.677 163.814 186.428 160.924 186.428 157.36 C 186.428 149.503 192.517 143.11 200.001 143.11 C 207.487 143.11 213.576 149.502 213.576 157.36 C 213.576 160.924 216.327 163.814 219.723 163.814 C 223.119 163.814 225.87 160.924 225.87 157.36 C 225.87 142.384 214.267 130.201 200.001 130.201 C 185.737 130.201 174.133 142.384 174.133 157.36 C 174.133 160.924 176.885 163.814 180.281 163.814 Z" style=""/>
  <path d="M 106.453 130.201 C 92.19 130.201 80.585 142.384 80.585 157.36 C 80.585 160.924 83.338 163.814 86.733 163.814 C 90.128 163.814 92.88 160.924 92.88 157.36 C 92.88 149.503 98.968 143.11 106.453 143.11 C 113.939 143.11 120.026 149.502 120.026 157.36 C 120.026 160.924 122.78 163.814 126.174 163.814 C 129.569 163.814 132.321 160.924 132.321 157.36 C 132.321 142.384 120.717 130.201 106.453 130.201 Z" style=""/>
  <path d="M 279.976 157.36 C 279.976 149.503 286.064 143.11 293.549 143.11 C 301.034 143.11 307.122 149.502 307.122 157.36 C 307.122 160.924 309.873 163.814 313.27 163.814 C 316.666 163.814 319.417 160.924 319.417 157.36 C 319.417 142.384 307.814 130.201 293.549 130.201 C 279.284 130.201 267.681 142.384 267.681 157.36 C 267.681 160.924 270.432 163.814 273.828 163.814 C 277.225 163.814 279.976 160.924 279.976 157.36 Z" style=""/>
  <path d="M 199.892 272.996 C 184.417 272.996 171.529 293.474 168.538 307.628 C 165.685 321.13 171.941 325.806 174.764 327.189 C 180.001 329.755 186.099 330.211 192.465 328.518 C 194.882 327.875 197.381 327.55 199.89 327.55 L 200.113 327.55 C 202.623 327.55 205.121 327.875 207.537 328.518 C 210.056 329.188 212.548 329.527 214.945 329.527 C 214.946 329.527 214.946 329.527 214.946 329.527 C 218.61 329.527 222.072 328.74 225.238 327.189 C 228.061 325.806 234.318 321.131 231.466 307.628 C 228.474 293.473 215.587 272.995 200.113 272.995 L 199.892 272.995 L 199.892 272.996 Z M 215.182 299.497 C 219.754 307.716 220.269 313.987 219.727 315.638 C 218.268 316.297 216.699 316.619 214.945 316.619 C 213.563 316.619 212.088 316.412 210.555 316.005 C 207.153 315.101 203.639 314.642 200.113 314.642 L 199.89 314.642 C 196.363 314.642 192.849 315.101 189.446 316.005 C 185.994 316.924 182.876 316.81 180.274 315.638 C 179.731 313.987 180.247 307.716 184.821 299.497 C 189.344 291.368 195.4 285.906 199.89 285.906 L 200.11 285.906 C 204.601 285.905 210.657 291.368 215.182 299.497 Z" style=""/>
  <path d="M 178.362 225.939 C 175.437 225.939 172.595 226.581 169.912 227.849 C 159.554 232.745 154.921 245.578 159.583 256.453 C 163.354 265.248 173.172 272.137 181.935 272.137 C 184.359 272.137 186.65 271.635 188.741 270.647 C 193.962 268.181 197.56 262.931 198.877 255.867 C 199.948 250.123 199.304 243.702 197.157 238.693 C 193.835 230.946 186.457 225.939 178.362 225.939 Z M 183.696 258.875 C 183.199 259.109 182.608 259.228 181.935 259.228 C 177.989 259.228 172.575 255.303 170.795 251.154 C 168.915 246.768 170.784 241.594 174.961 239.619 C 176.045 239.107 177.19 238.847 178.362 238.847 C 181.628 238.847 184.605 240.868 185.945 243.993 C 188.202 249.254 186.982 257.322 183.696 258.875 Z" style=""/>
  <path d="M 136.628 269.337 C 133.891 273.664 132.923 278.854 133.902 283.946 C 134.883 289.039 137.692 293.426 141.815 296.3 C 145.772 299.059 151.38 300.705 156.817 300.705 L 156.818 300.705 C 163.499 300.705 168.755 298.211 171.62 293.683 C 177.766 283.961 170.085 269.312 162.307 263.89 C 159.261 261.766 155.721 260.643 152.072 260.643 C 145.844 260.644 140.071 263.893 136.628 269.337 Z M 161.377 286.544 C 161.071 287.028 159.563 287.797 156.819 287.797 C 153.89 287.797 150.516 286.873 148.616 285.546 C 147.23 284.58 146.285 283.103 145.955 281.392 C 145.625 279.68 145.95 277.934 146.87 276.479 C 148.029 274.647 149.974 273.555 152.073 273.555 C 153.294 273.555 154.481 273.932 155.508 274.647 C 159.595 277.495 162.481 284.799 161.377 286.544 Z" style=""/>
  <path d="M 230.091 227.849 C 227.408 226.581 224.565 225.939 221.64 225.939 C 213.544 225.939 206.166 230.944 202.844 238.693 C 200.697 243.702 200.054 250.121 201.124 255.867 C 202.439 262.931 206.039 268.181 211.258 270.647 C 213.351 271.635 215.642 272.137 218.066 272.137 C 226.828 272.137 236.648 265.249 240.419 256.453 C 245.083 245.577 240.449 232.745 230.091 227.849 Z M 229.208 251.155 C 227.428 255.305 222.014 259.228 218.067 259.228 C 217.394 259.228 216.802 259.109 216.308 258.876 C 214.236 257.897 213.439 254.714 213.192 253.39 C 212.601 250.218 212.933 246.617 214.057 243.994 C 215.397 240.87 218.375 238.85 221.641 238.85 C 222.814 238.85 223.959 239.109 225.042 239.621 C 227.066 240.577 228.613 242.304 229.401 244.482 C 230.185 246.66 230.119 249.029 229.208 251.155 Z" style=""/>
  <path d="M 237.694 263.891 C 233.829 266.585 230.248 271.24 228.116 276.345 C 225.369 282.912 225.463 289.071 228.382 293.685 C 231.245 298.212 236.502 300.706 243.185 300.706 C 248.621 300.706 254.23 299.06 258.187 296.3 C 266.698 290.368 269.026 278.272 263.375 269.338 C 259.932 263.893 254.158 260.645 247.928 260.645 C 244.28 260.644 240.742 261.767 237.694 263.891 Z M 253.132 276.477 C 255.031 279.483 254.249 283.549 251.387 285.546 C 249.485 286.871 246.112 287.797 243.185 287.797 C 240.44 287.797 238.932 287.028 238.625 286.544 C 238.312 286.048 238.238 284.25 239.373 281.532 C 240.725 278.299 242.918 275.744 244.493 274.647 C 245.519 273.931 246.706 273.554 247.927 273.554 C 250.029 273.553 251.973 274.645 253.132 276.477 Z" style=""/>
  <path d="M 394.967 257.155 C 389.348 223.487 368.569 178.912 358.123 157.973 C 358.405 157.531 358.689 157.089 358.954 156.643 C 365.849 145.022 365.561 134.748 364.103 128.177 C 361.147 114.844 350.464 104.791 339.254 104.791 C 336.711 104.791 334.198 105.044 331.73 105.545 C 326.007 89.664 311.365 78.728 294.744 78.728 C 292.408 78.728 290.099 78.94 287.827 79.361 C 282.705 62.444 267.557 50.415 250.144 50.415 C 243.776 50.415 237.641 51.978 232.097 54.979 C 224.745 44.199 212.961 37.739 200.001 37.739 C 187.041 37.739 175.256 44.198 167.905 54.979 C 162.361 51.978 156.226 50.415 149.857 50.415 C 132.444 50.415 117.296 62.443 112.175 79.36 C 109.902 78.939 107.593 78.727 105.258 78.727 C 88.637 78.727 73.995 89.664 68.272 105.544 C 65.805 105.044 63.291 104.791 60.75 104.791 C 49.538 104.791 38.856 114.845 35.901 128.175 C 34.443 134.747 34.153 145.021 41.05 156.643 C 41.315 157.089 41.599 157.529 41.879 157.97 C 35.967 169.827 26.428 189.9 18.355 211.248 C 17.102 214.562 18.644 218.312 21.799 219.629 C 22.544 219.939 23.311 220.086 24.067 220.086 C 26.513 220.086 28.827 218.544 29.783 216.011 C 36.713 197.686 44.771 180.283 50.548 168.465 C 51.238 169.134 51.953 169.795 52.688 170.45 C 52.712 170.472 52.738 170.495 52.762 170.516 C 52.774 170.529 52.788 170.541 52.803 170.552 C 53.322 171.014 53.855 171.471 54.397 171.926 C 54.423 171.947 54.448 171.968 54.472 171.989 C 54.511 172.022 54.553 172.054 54.592 172.087 C 55.901 173.175 57.27 174.241 58.703 175.288 C 58.818 175.372 58.93 175.456 59.045 175.539 C 59.08 175.564 59.115 175.588 59.149 175.614 C 59.64 175.967 60.138 176.318 60.644 176.666 C 60.779 176.762 60.915 176.857 61.054 176.951 C 61.16 177.024 61.268 177.094 61.376 177.167 C 61.839 177.48 62.307 177.793 62.785 178.104 C 62.906 178.184 63.025 178.264 63.153 178.347 C 63.41 178.512 63.676 178.68 63.949 178.852 C 64.311 179.08 64.674 179.308 65.043 179.535 C 65.141 179.596 65.238 179.658 65.34 179.72 C 65.62 179.892 65.911 180.063 66.203 180.235 C 66.602 180.472 66.999 180.711 67.406 180.948 C 67.476 180.99 67.546 181.031 67.616 181.072 C 68.078 181.339 68.558 181.607 69.08 181.896 C 69.34 182.041 69.594 182.186 69.858 182.332 C 69.904 182.357 69.948 182.382 69.994 182.407 C 70.73 182.809 71.482 183.21 72.247 183.606 C 72.294 183.63 72.339 183.656 72.386 183.68 C 72.391 183.682 72.398 183.686 72.402 183.689 C 73.093 184.071 73.848 184.473 74.691 184.91 C 95.284 195.641 125.521 203.197 159.911 206.52 C 159.947 206.523 159.982 206.529 160.018 206.532 C 168.344 207.472 176.64 208.121 184.678 208.46 C 201.904 209.19 219.345 208.648 236.521 206.848 C 237.24 206.786 237.933 206.717 238.638 206.652 C 240.055 206.519 241.467 206.384 242.872 206.237 C 244.259 206.093 245.636 205.945 246.996 205.788 C 247.565 205.723 248.134 205.657 248.7 205.59 C 250.634 205.357 252.557 205.117 254.46 204.858 C 255.066 204.775 255.639 204.598 256.171 204.35 C 256.193 204.339 256.216 204.333 256.237 204.322 C 256.352 204.268 256.46 204.202 256.57 204.139 C 256.637 204.103 256.706 204.07 256.772 204.029 C 256.862 203.973 256.946 203.909 257.033 203.85 C 257.112 203.795 257.194 203.746 257.27 203.688 C 257.354 203.623 257.432 203.551 257.513 203.483 C 257.587 203.421 257.663 203.363 257.734 203.299 C 257.802 203.236 257.863 203.166 257.928 203.099 C 258.004 203.022 258.084 202.948 258.158 202.866 C 258.214 202.803 258.265 202.731 258.32 202.666 C 258.393 202.576 258.471 202.488 258.539 202.394 C 258.591 202.321 258.637 202.244 258.689 202.17 C 258.752 202.075 258.818 201.983 258.877 201.885 C 258.935 201.788 258.984 201.685 259.039 201.585 C 259.082 201.505 259.128 201.427 259.167 201.345 C 259.241 201.192 259.305 201.033 259.366 200.872 C 259.38 200.839 259.395 200.809 259.406 200.776 C 259.459 200.633 259.502 200.487 259.545 200.34 C 259.56 200.286 259.581 200.235 259.595 200.18 C 259.808 199.372 259.875 198.506 259.765 197.622 C 259.743 197.44 259.708 197.264 259.672 197.087 C 259.664 197.049 259.659 197.01 259.652 196.973 C 259.64 196.924 259.624 196.878 259.613 196.829 C 258.899 193.934 256.361 191.918 253.502 192.003 C 253.295 192.009 253.086 192.027 252.874 192.055 C 252.853 192.057 252.832 192.059 252.809 192.063 C 250.989 192.312 249.155 192.54 247.313 192.762 C 246.746 192.829 246.177 192.896 245.606 192.961 C 244.317 193.111 243.017 193.25 241.719 193.385 C 240.268 193.535 238.796 193.68 237.304 193.816 C 225.206 194.934 212.721 195.513 200.003 195.513 C 187.382 195.513 175.042 194.956 163.222 193.893 C 162.576 193.823 161.933 193.764 161.286 193.691 C 161.253 193.688 161.222 193.684 161.19 193.681 C 128.619 190.542 100.202 183.504 81.151 173.854 L 80.818 173.689 C 80.527 173.54 80.242 173.391 79.955 173.24 C 79.325 172.909 78.695 172.578 78.084 172.241 C 78.071 172.234 78.06 172.227 78.046 172.221 C 78.021 172.206 77.995 172.193 77.967 172.179 C 77.941 172.165 77.918 172.152 77.893 172.139 C 77.825 172.104 77.762 172.068 77.694 172.034 C 77.048 171.698 76.413 171.361 75.79 171.022 C 75.253 170.729 74.724 170.43 74.2 170.132 C 74.084 170.067 73.969 170.003 73.854 169.937 C 54.557 158.845 44.899 144.534 47.875 131.102 C 49.711 122.824 55.987 117.7 60.751 117.7 C 64.043 117.7 67.265 118.312 70.33 119.523 C 72.023 120.191 73.91 120.042 75.49 119.116 C 77.069 118.191 78.18 116.582 78.527 114.718 C 81.016 101.343 92.259 91.635 105.26 91.635 C 108.489 91.635 111.647 92.221 114.644 93.376 C 116.398 94.051 118.349 93.854 119.945 92.839 C 121.543 91.825 122.613 90.102 122.857 88.159 C 124.633 74 136.241 63.324 149.86 63.324 C 155.831 63.324 161.501 65.317 166.256 69.086 C 167.723 70.249 169.608 70.66 171.396 70.21 C 173.182 69.76 174.685 68.494 175.489 66.758 C 180.092 56.823 189.485 50.649 200.001 50.649 C 210.515 50.649 219.91 56.823 224.516 66.759 C 225.319 68.494 226.821 69.761 228.608 70.211 C 230.397 70.66 232.279 70.249 233.747 69.087 C 238.505 65.318 244.173 63.325 250.144 63.325 C 263.764 63.325 275.373 74.002 277.146 88.16 C 277.39 90.102 278.461 91.825 280.058 92.841 C 281.655 93.855 283.607 94.053 285.36 93.378 C 288.358 92.222 291.516 91.636 294.744 91.636 C 307.744 91.636 318.988 101.344 321.478 114.72 C 321.825 116.583 322.935 118.191 324.514 119.118 C 326.092 120.043 327.981 120.191 329.673 119.524 C 332.739 118.314 335.961 117.701 339.254 117.701 C 344.016 117.701 350.293 122.826 352.128 131.104 C 355.308 145.443 344.086 160.782 322.111 172.14 C 322.06 172.166 322.009 172.194 321.959 172.222 C 318.306 174.244 314.202 176.173 309.716 177.994 C 309.501 178.081 309.289 178.169 309.073 178.255 C 298.762 182.382 286.43 185.938 272.664 188.724 C 269.329 189.399 267.148 192.784 267.791 196.285 C 268.401 199.597 271.318 201.826 274.457 201.48 C 274.67 201.46 274.884 201.43 275.1 201.387 C 290.315 198.323 303.89 194.324 315.449 189.501 C 318.145 188.494 320.61 187.498 322.98 186.458 C 329.991 183.381 336.785 178.62 341.296 175.299 C 341.305 175.294 341.368 175.247 341.378 175.24 C 341.393 175.23 341.462 175.179 341.476 175.168 L 341.607 175.072 C 341.691 175.01 341.816 174.916 341.967 174.802 C 343.017 174.019 344.03 173.225 345.01 172.42 C 345.073 172.368 345.145 172.313 345.208 172.261 C 346.442 171.267 348.006 169.981 349.54 168.639 C 360.201 190.447 378.001 229.941 382.892 259.616 C 382.921 259.795 382.957 259.973 383 260.147 C 383.637 262.703 383.96 265.267 383.957 267.782 C 383.951 267.921 383.946 268.059 383.944 268.198 C 383.944 268.285 383.944 268.373 383.946 268.459 C 383.95 268.638 383.947 268.795 383.934 268.925 C 383.926 269.02 383.921 269.115 383.915 269.21 C 383.026 288.327 363.655 307.456 330.767 321.692 C 295.746 336.853 249.309 345.2 200.012 345.2 C 150.862 345.2 104.525 336.896 69.533 321.814 C 36.668 307.649 17.198 288.591 16.116 269.527 C 16.106 269.368 16.092 269.211 16.072 269.054 C 16.038 268.778 16.028 268.516 16.048 268.253 C 16.06 268.092 16.064 267.93 16.064 267.77 C 16.064 265.343 16.364 262.866 16.952 260.408 C 16.991 260.246 17.025 260.082 17.051 259.915 C 18.202 252.827 20.205 244.641 23.008 235.583 C 24.056 232.193 22.288 228.552 19.06 227.451 C 15.829 226.349 12.363 228.205 11.315 231.595 C 8.363 241.147 6.229 249.862 4.974 257.507 C 4.194 260.84 3.789 264.216 3.772 267.55 C 3.717 268.532 3.746 269.528 3.858 270.516 C 5.369 294.995 27.023 317.448 64.866 333.758 C 101.304 349.463 149.3 358.11 200.013 358.11 C 250.881 358.11 298.982 349.414 335.455 333.627 C 373.41 317.197 394.972 294.593 396.191 269.969 C 396.233 269.442 396.249 268.892 396.243 268.329 C 396.25 268.143 396.255 267.957 396.255 267.77 C 396.257 264.256 395.824 260.686 394.967 257.155 Z" style=""/>
  <g style="" transform="matrix(0.766624, 0, 0, 0.80489, 3.744971, -8.127495)"/>
  <g style="" transform="matrix(0.766624, 0, 0, 0.80489, 3.744971, -8.127495)"/>
  <g style="" transform="matrix(0.766624, 0, 0, 0.80489, 3.744971, -8.127495)"/>
  <g style="" transform="matrix(0.766624, 0, 0, 0.80489, 3.744971, -8.127495)"/>
  <g style="" transform="matrix(0.766624, 0, 0, 0.80489, 3.744971, -8.127495)"/>
  <g style="" transform="matrix(0.766624, 0, 0, 0.80489, 3.744971, -8.127495)"/>
  <g style="" transform="matrix(0.766624, 0, 0, 0.80489, 3.744971, -8.127495)"/>
  <g style="" transform="matrix(0.766624, 0, 0, 0.80489, 3.744971, -8.127495)"/>
  <g style="" transform="matrix(0.766624, 0, 0, 0.80489, 3.744971, -8.127495)"/>
  <g style="" transform="matrix(0.766624, 0, 0, 0.80489, 3.744971, -8.127495)"/>
  <g style="" transform="matrix(0.766624, 0, 0, 0.80489, 3.744971, -8.127495)"/>
  <g style="" transform="matrix(0.766624, 0, 0, 0.80489, 3.744971, -8.127495)"/>
  <g style="" transform="matrix(0.766624, 0, 0, 0.80489, 3.744971, -8.127495)"/>
  <g style="" transform="matrix(0.766624, 0, 0, 0.80489, 3.744971, -8.127495)"/>
  <g style="" transform="matrix(0.766624, 0, 0, 0.80489, 3.744971, -8.127495)"/>
</svg>