<?xml version="1.0" encoding="utf-8"?>
<svg version="1.1" id="Layer_1" x="0px" y="0px" viewBox="0 0 400 400" style="enable-background:new 0 0 441.242 441.242;" width="512" height="512" xmlns="http://www.w3.org/2000/svg">
  <g style="" transform="matrix(1, 0, 0, 0.900878, -20.621078, 1.247404)">
    <path style="fill:#F95428;" d="M358.314,207.485c11.11,77.26-37.75,200.5-137.69,226.26c-99.95-25.76-148.81-149-137.7-226.26   c11.1-77.26,137.7-75.42,137.7-75.42S347.214,130.225,358.314,207.485z"/>
    <path style="fill:#E54728;" d="M144.924,207.485c7.546-52.521,68.458-68.484,106.699-73.324   c-18.011-2.28-30.999-2.096-30.999-2.096s-126.6-1.84-137.7,75.42c-11.11,77.26,37.75,200.5,137.7,226.26   c10.95-2.822,21.287-6.816,30.999-11.79C172.688,381.53,135.031,276.28,144.924,207.485z"/>
    <path style="fill:#90BC42;" d="M344.074,8.605c0,34.09-13.82,64.95-36.16,87.29c-22.34,22.34-53.2,36.16-87.29,36.16   C220.624,63.875,275.894,8.605,344.074,8.605z"/>
    <path style="fill:#9AD14B;" d="M220.624,132.055h-0.01c-34.1,0-64.95-13.82-87.29-36.16c-22.34-22.34-36.16-53.2-36.16-87.29   C165.344,8.604,220.624,63.875,220.624,132.055z"/>
    <path style="fill:#90BC42;" d="M220.614,132.055c-34.1,0-64.95-13.82-87.29-36.16c-22.34-22.34-36.16-53.2-36.16-87.29   L220.614,132.055z"/>
    <path style="fill:#9AD14B;" d="M220.624,132.055c34.1,0,64.95-13.82,87.29-36.16c22.34-22.34,36.16-53.2,36.16-87.29   L220.624,132.055z"/>
    <path style="fill:#FFFFFF;" d="M290.468,367.653c-1.646,0-3.301-0.538-4.685-1.647c-3.232-2.59-3.754-7.31-1.163-10.542   c7.211-9,13.8-19.059,19.586-29.897c19.569-36.665,28.734-80.248,23.918-113.742c-1.366-9.513-5.762-17.106-13.833-23.898   c-7.986-6.719-19.214-12.315-33.372-16.634c-5.882-1.794-12.253-3.352-18.937-4.63c-4.068-0.777-6.736-4.706-5.958-8.774   c0.777-4.069,4.713-6.743,8.774-5.958c7.208,1.378,14.104,3.064,20.497,5.015c16.104,4.912,29.108,11.475,38.652,19.504   c10.906,9.178,17.129,20.051,19.023,33.242c5.248,36.493-4.536,83.601-25.533,122.938c-6.221,11.655-13.324,22.493-21.113,32.214   C294.845,366.691,292.666,367.653,290.468,367.653z"/>
    <circle style="fill:#FFFFFF;" cx="242.603" cy="156.283" r="7.5"/>
    <g>
      <path style="" d="M365.742,206.414c-4.996-34.76-32.115-59.947-78.426-72.841    c-6.297-1.753-12.526-3.165-18.504-4.304c48.432-19.236,82.765-66.567,82.765-121.769c0-4.143-3.357-7.5-7.5-7.5    c-56.863,0-105.369,36.434-123.422,87.18c-6.422-18.158-16.869-34.801-30.891-48.823C165.03,13.622,132.144,0,97.165,0.001    c-4.142,0-7.5,3.357-7.5,7.5c0,55.201,34.333,102.532,82.765,121.768c-5.978,1.139-12.207,2.551-18.505,4.304    c-46.31,12.894-73.429,38.081-78.425,72.841c-5.996,41.717,4.477,92.948,28.014,137.045    c27.08,50.732,68.005,85.375,115.236,97.546c0.614,0.158,1.243,0.237,1.872,0.237c0.628,0,1.257-0.079,1.872-0.237    c47.231-12.171,88.156-46.813,115.236-97.546C361.267,299.362,371.738,248.13,365.742,206.414z M262.083,48.963    c20.063-20.063,46.184-31.868,74.237-33.708c-3.834,57.771-50.175,104.111-107.946,107.945    C230.215,95.146,242.021,69.026,262.083,48.963z M104.919,15.257c57.771,3.834,104.111,50.176,107.946,107.946    c-28.054-1.84-54.174-13.646-74.237-33.709S106.759,43.311,104.919,15.257z M324.496,336.395    c-24.714,46.3-61.549,78.043-103.876,89.588c-42.327-11.545-79.161-43.288-103.875-89.588    c-21.759-40.765-31.875-89.753-26.399-127.847c9.735-67.733,121.979-68.99,129.75-68.99c0.239,0,0.379,0.001,0.415,0.001    c0.072,0.002,0.146,0.002,0.218,0c1.195-0.013,120.115-0.934,130.165,68.989C356.37,246.642,346.255,295.63,324.496,336.395z"/>
      <circle style="fill:#333333;" cx="307.274" cy="213.854" r="7.5"/>
      <circle style="fill:#333333;" cx="177.294" cy="292.014" r="7.5"/>
      <circle style="fill:#333333;" cx="263.943" cy="292.014" r="7.5"/>
      <circle style="fill:#333333;" cx="133.964" cy="213.854" r="7.5"/>
      <circle style="fill:#333333;" cx="220.619" cy="213.854" r="7.5"/>
      <circle style="fill:#333333;" cx="220.621" cy="369.854" r="7.5"/>
    </g>
  </g>
</svg>