<?xml version="1.0" encoding="utf-8"?>
<svg version="1.1" id="Layer_1" x="0px" y="0px" viewBox="0 0 400 400" style="enable-background:new 0 0 512.004 512.004;" xmlns="http://www.w3.org/2000/svg">
  <path style="fill: rgb(255, 77, 48);" d="M 111.153 321.936 C 128.964 352.508 162.069 373.067 199.998 373.067 C 237.927 373.067 271.033 352.508 288.844 321.936 L 111.153 321.936 Z"/>
  <path style="fill: rgb(87, 140, 173);" d="M 315.47 283.686 L 374.758 283.686 C 383.499 283.686 390.585 276.599 390.585 267.86 L 390.585 254.758 C 390.585 226.689 367.831 203.935 339.763 203.935 L 60.234 203.935 C 32.166 203.935 9.411 226.688 9.411 254.758 L 9.411 267.86 C 9.411 276.6 16.498 283.686 25.238 283.686 L 294.431 283.686"/>
  <path style="fill: rgb(144, 200, 236);" d="M 88.136 203.935 L 311.862 203.935 C 302.215 150.897 255.819 110.674 199.998 110.674 C 144.178 110.674 97.782 150.897 88.136 203.935 Z"/>
  <g style="" transform="matrix(0.769135, 0, 0, 0.769135, 3.099516, 3.099522)">
    <path style="fill:#3A5D74;" d="M330.882,261.118v-30.066c0-11.366-9.214-20.58-20.578-20.58H201.698 c-11.368,0-20.58,9.214-20.58,20.58v30.066H330.882z"/>
    <path style="fill:#3A5D74;" d="M40.787,364.808v29.153c0,11.364,9.214,20.577,20.578,20.577h389.269 c11.365,0,20.578-9.214,20.578-20.577v-29.153"/>
  </g>
  <circle style="fill: rgb(255, 77, 48);" cx="199.998" cy="49.794" r="22.862"/>
  <g style="opacity: 0.1;" transform="matrix(0.769135, 0, 0, 0.769135, 3.099516, 3.099522)">
    <path style="fill:#231F20;" d="M169.752,414.539h-29.265c23.156,39.748,66.199,66.479,115.513,66.479 c4.946,0,9.825-0.281,14.632-0.805C227.519,475.512,190.585,450.3,169.752,414.539z"/>
  </g>
  <g style="opacity: 0.1;" transform="matrix(0.769135, 0, 0, 0.769135, 3.099516, 3.099522)">
    <path style="fill:#231F20;" d="M34.188,344.231v-17.034c0-36.495,29.584-66.079,66.078-66.079H74.283 c-36.493,0-66.078,29.583-66.078,66.079v17.034c0,11.364,9.214,20.577,20.578,20.577h25.983 C43.402,364.808,34.188,355.594,34.188,344.231z"/>
  </g>
  <g style="opacity: 0.1;" transform="matrix(0.769135, 0, 0, 0.769135, 3.099516, 3.099522)">
    <path style="fill:#231F20;" d="M268.991,140.431c-4.281-0.373-8.613-0.568-12.991-0.568c-72.576,0-132.898,52.297-145.44,121.254 h25.983C148.329,196.321,202.305,146.239,268.991,140.431z"/>
  </g>
  <g style="opacity: 0.1;" transform="matrix(0.769135, 0, 0, 0.769135, 3.099516, 3.099522)">
    <path style="fill:#231F20;" d="M227.681,210.473h-25.983c-11.368,0-20.58,9.214-20.58,20.58v30.066h25.983v-30.066 C207.103,219.687,216.315,210.473,227.681,210.473z"/>
  </g>
  <g style="opacity: 0.1;" transform="matrix(0.769135, 0, 0, 0.769135, 3.099516, 3.099522)">
    <path style="fill:#231F20;" d="M66.77,393.963v-29.153H40.787v29.153c0,11.364,9.214,20.577,20.578,20.577h25.983 C75.984,414.539,66.77,405.325,66.77,393.963z"/>
  </g>
  <g style="opacity: 0.1;" transform="matrix(0.769135, 0, 0, 0.769135, 3.099516, 3.099522)">
    <path style="fill:#231F20;" d="M252.256,60.71c0-11.755,6.829-21.915,16.735-26.737c-3.925-1.91-8.333-2.986-12.991-2.986 c-16.415,0-29.727,13.308-29.727,29.722c0,16.419,13.312,29.724,29.727,29.724c4.658,0,9.066-1.073,12.991-2.986 C259.085,82.628,252.256,72.468,252.256,60.71z"/>
  </g>
  <g style="" transform="matrix(0.769135, 0, 0, 0.769135, 3.099516, 3.099522)">
    <path style="fill:#231F20;" d="M442.917,304.757H69.082c-4.533,0-8.205,3.673-8.205,8.205s3.673,8.205,8.205,8.205h373.837 c4.533,0,8.205-3.673,8.205-8.205S447.45,304.757,442.917,304.757z"/>
    <path style="fill:#231F20;" d="M437.717,252.913h-29.583C392.672,184.907,333.821,135.5,264.206,131.88V97.736 c16.981-3.761,29.724-18.929,29.724-37.026c0-20.913-17.015-37.927-37.93-37.927c-20.915,0-37.932,17.014-37.932,37.927 c0,18.097,12.743,33.265,29.727,37.026v34.144c-69.615,3.62-128.467,53.026-143.928,121.033H74.283 C33.324,252.913,0,286.237,0,327.197v17.034c0,15.871,12.913,28.783,28.784,28.783h3.8v20.948 c0,15.871,12.913,28.781,28.784,28.781h74.5c25.857,41.125,71.451,66.479,120.135,66.479s94.278-25.354,120.135-66.479h74.5 c15.871,0,28.784-12.912,28.784-28.781v-20.948h3.799c15.871,0,28.784-12.912,28.784-28.783v-17.034 C512,286.237,478.676,252.913,437.717,252.913z M234.479,60.71c0-11.865,9.655-21.517,21.521-21.517 c11.866,0,21.519,9.653,21.519,21.517c0,11.866-9.654,21.519-21.519,21.519C244.133,82.229,234.479,72.575,234.479,60.71z M256,148.069c64.201,0,119.583,43.53,135.254,104.844h-52.167v-21.861c0-15.872-12.913-28.785-28.784-28.785H201.698 c-15.872,0-28.785,12.913-28.785,28.785v21.861h-52.169C136.417,191.599,191.799,148.069,256,148.069z M322.677,252.913H189.325 v-21.861c0-6.822,5.551-12.374,12.374-12.374h108.605c6.822,0,12.373,5.551,12.373,12.374v21.861H322.677z M256,472.813 c-39.491,0-76.685-18.869-100.219-50.069H356.22C332.685,453.944,295.491,472.813,256,472.813z M495.59,344.231 c0,6.821-5.55,12.372-12.373,12.372h-77.084c-4.533,0-8.205,3.673-8.205,8.205c0,4.533,3.673,8.205,8.205,8.205h56.875v20.948 c0,6.821-5.55,12.371-12.373,12.371h-79.121H140.487H61.366c-6.822,0-12.373-5.55-12.373-12.371v-20.948h329.785 c4.533,0,8.205-3.673,8.205-8.205c0-4.533-3.673-8.205-8.205-8.205H28.784c-6.822,0-12.373-5.55-12.373-12.372v-17.034 c0-31.911,25.961-57.874,57.872-57.874h36.277h70.56h149.763h70.558h36.277c31.911,0,57.872,25.963,57.872,57.874v17.034H495.59z"/>
  </g>
</svg>